<svg width="202" height="273" viewBox="0 0 202 273" xmlns="http://www.w3.org/2000/svg" xmlns:xlink="http://www.w3.org/1999/xlink"><title>023D8798-6711-4A4C-B71B-181319DFA63D</title><defs><path id="a" d="M.09.332h91.92v109.955H.09V.332z"/></defs><g fill="none" fill-rule="evenodd"><g fill="#FFB07B"><path d="M60.403 204.837l1.064 2.995H59.34l1.064-2.995zM35.58 215.228c.12.136.253.267.395.395.12.135.253.267.394.394.12.136.253.267.395.395.12.136.253.267.394.394.121.136.253.267.395.395 1.177 1.324 3.372 2.348 5.897 2.348 2.668 0 4.823-1.065 5.925-2.643h.337v.395h.394v.394h.395v.395h.394v.394h.395v.395h.395v.394h7.101v-3.55h-.394v-.395h-.395v-.394h-.395v-.395h-.394v-.395h-.005l.398-1.183h5.577l.262.789h-2.287v3.156h.395v.395h.394v.394h.395v.395h.394v.394h.395v.395h.394v.394h7.497v-3.55h-.395v-.395h-.395v-.394h-.394v-.395h-.395v-.395h-.394v-.394h-.464l-3.907-10.652h2.004V199.546h-.395v-.394h-.394v-.394h-.395v-.395h-.394v-.394h-.395v-.395H53.656v3.156h.395v.395h.394v.394h.395v.395h.394V202l-4.439 11.75h-.62s.002.015.002.002c0-.07-.008-.114-.01-.182.002-.065.01-.116.01-.182 0-1.68-.586-2.82-1.563-3.696a5.003 5.003 0 0 0-.395-.392 5.085 5.085 0 0 0-.394-.393 5.09 5.09 0 0 0-.395-.394 5.094 5.094 0 0 0-.394-.394c-1.075-1.2-2.804-1.916-4.835-2.639a18.714 18.714 0 0 1-1.498-.602 2.001 2.001 0 0 1-.027-.211c.112-1.27 1.193-2.126 2.976-2.126.062 0 .119.003.179.004.13.244.315.463.55.639.109.147.241.28.395.394.109.147.24.28.394.395.11.147.241.28.395.394.109.147.24.28.394.395.11.147.241.28.395.394.349.47.928.807 1.706.807 1.102 0 1.943-.783 1.943-2.147 0-.068-.01-.135-.016-.202.005-.065.016-.125.016-.192 0-.926-.456-1.773-1.228-2.458a4.485 4.485 0 0 0-.394-.394 4.485 4.485 0 0 0-.395-.395 4.485 4.485 0 0 0-.394-.394 4.485 4.485 0 0 0-.395-.395c-1.076-1.231-3.098-2.055-5.489-2.055-.061 0-.118.006-.178.007-.073-.001-.143-.007-.216-.007-3.857 0-6.322 2.378-6.322 5.423 0 1.683.568 2.817 1.54 3.685.123.138.254.27.395.395.123.137.254.27.394.394.123.138.254.27.395.395.123.138.254.27.394.395.123.137.255.269.395.394 1.061 1.188 2.787 1.898 4.886 2.654.394.138.773.28 1.13.43.005.063.012.125.012.19 0 1.597-1.247 2.514-3.213 2.575a6.799 6.799 0 0 1-.6-.04c-.015-.527-.29-1.057-.762-1.412a1.978 1.978 0 0 0-.394-.394 1.978 1.978 0 0 0-.395-.395 1.978 1.978 0 0 0-.395-.394 1.978 1.978 0 0 0-.394-.395c-.356-.476-.953-.82-1.718-.82-.05 0-.094.01-.142.013a2.506 2.506 0 0 0-.252-.014c-1.19 0-2.001.9-2.001 2.262 0 .926.49 1.816 1.312 2.556zM67.86 201.125h.394v.394h.394v.395h.395v.395h.394v.394h.395v.395h.496l5.928 13.808h.227l.168.395h.227l.167.394h.227l.168.395h.227l.167.394h.228l.167.395h.227l.167.394h1.856l6.931-16.175h1.754V201.519h.395v.395h.394v.395h.395v11.441H88.375v3.156h.395v.395h.394v.394h.395v.395h.394v.394h.395v.395h.394v.394h14.203v-5.918h-.394v-.394h-.395v-.395h-.394v-.394h-.395v-.395h-.394v-.394H99.422v2.367h-3.55v-2.762h5.917v-3.156h-.394v-.395H101v-.394h-.395v-.395h-.394v-.394h-.395v-.395H95.871v-2.761h3.945v.394h.395v.395h.394v.394H101v.395h.395v.394h.394v.395h3.156v-5.919h-.394v-.394h-.395v-.394h-.394v-.395h-.395v-.394h-.394v-.395H88.375v1.184h-.395v-.395h-.394v-.394h-.395v-.395h-7.89v3.156h.394v.395h.395v.394h.394v.395h.395v.065l-2.812 7.137-2.42-6.018h1.681v-3.552h-.394v-.394h-.395v-.394h-.394v-.395h-.395v-.394h-.395v-.395H67.465v3.156h.394zM151.895 201.125v.394h.394v.395h.395v.395h.394v11.441H151.105v1.973-.395h-.394v-.394h-.395v-.395h-.394v-.395h-.395v-.394h-.394v-10.652h2.367v-2.367.394h.395zm-9.47 16.57v.395h.395v.394h.395v.395h.394v.394h7.891v-2.367.395h.395v.394h.394v.395h.395v.394h.394v.395h.395v.394h14.203v-5.918h-.395v-.394h-.394v-.395h-.395v-.394h-.394v-.395h-.395v-.394h-3.551v2.367h-3.156v-2.762h5.524v-3.156h-.395v-.395h-.395v-.394h-.394v-.395h-.395v-.394h-.394v-.395h-3.551v-2.761h3.551v.394h.394v.395h.395v.394h.394v.395h.395v.394h.395v.395h3.156v-5.919h-.395v-.394h-.394v-.394h-.395v-.395h-.394v-.394h-.395v-.395H151.105v1.973-.395h-.394v-.394h-.395v-.395h-.394v-.394h-.395v-.395h-8.285v3.156h.395v.395h.394v.394h.395v.395h.394v.395h.395v.394h.394v2.762h-6.707v-2.367h2.368v-3.552h-.395v-.394h-.395v-.394h-.394v-.395h-.395v-.394h-.394v-.395h-7.891v1.578h-.394v-.394h-.395v-.395h-.394v-.394h-.395v-.395h-16.965v5.918h.395v.395h.394v.394h.395v.395h.394v.394h.395v.395h.394v.394h3.157v-3.156h1.183v11.047h-2.366v3.156h.394v.395h.394v.394h.395v.395h.394v.394h.395v.395h.394v.394h7.89v-3.55h-.394v-.395h-.394v-.394h-.395v-.395h-.394v-.395h-.395v-.394h-.394v-11.047h1.183v.79h.395v.394h.394v.394h.395v.395h.394v.394h.395v.395h.395v.394h3.156v-4.734h.394v.394h.395v.395h.394v.395h.395v11.441h-1.973v3.156h.395v.395h.394v.394h.395v.395h.394v.394h.395v.395h.394v.394h7.497v-3.55h-.395v-.395h-.395v-.394h-.394v-.395h-.395v-.395h-.394v-.394h-.395v-2.762h6.707v2.762h-2.367v3.156h.395v.395h.394v.394h.395zM36.297 232.217v-.357c-.13 0-.395-.038-.395-.038v.076l.001-.432c-.131 0-.395-.038-.395-.038v-.357c-.13 0-.395-.038-.395-.038v.076l.001-.432c-.131 0-.395-.038-.395-.038v-.357c-.13 0-.395-.038-.395-.038-4.734.008-9.08.017-13.622.027-.004 1.882-.095 3.764-.1 5.646l.308-.005v-.068h.175c0 .394-.088.3-.088.43.132-.002.308.033.308.033v-.069h.175c0 .395-.088.3-.088.431.131-.002.307.032.307.032v-.068h.175c0 .394-.088.3-.088.431.132-.003.308.032.308.032v-.069h.175c0 .395-.088.3-.088.432.131-.003.307.031.307.031v-.068h.175c0 .394-.088.3-.088.431.132-.003.308.032.308.032v-.069h.175l-.001.432c.587-.013 1.174-.006 1.762-.017l-.02 7.192c-4.317.215-8.632.458-12.946.71l.01-7.603c1.377-.033 2.756-.047 4.134-.078l.01-5.765s.084-.28.084-.41a4.09 4.09 0 0 1-.31-.016v.032h-.17s.085-.28.086-.411a4.09 4.09 0 0 1-.31-.016v.032h-.17s.085-.28.085-.41a4.09 4.09 0 0 1-.31-.016v.032h-.17s.085-.28.086-.411c-.132 0-.31-.016-.31-.016v.032h-.17s.085-.28.085-.41a4.09 4.09 0 0 1-.31-.017v.033h-.17s.085-.28.086-.411a4.09 4.09 0 0 1-.31-.016c-4.735.01-9.075.022-13.809.034v6.079c0-.004.395-.007.395-.01v.404c0-.003.394-.006.394-.01v.405c0-.004.395-.007.395-.01v.404c0-.003.394-.006.394-.01v.405c0-.004.395-.007.395-.01v.404c0-.003.394-.006.394-.01v.405c.395-.012.95-.024 1.42-.036-.003 8.208-.013 16.416-.017 24.624-1.255.16-2.586.322-3.77.487v6.079c0-.02.395-.04.395-.06v.454c0-.02.394-.039.394-.06v.455c0-.02.395-.04.395-.06v.454c0-.02.394-.039.394-.06v.455c0-.02.395-.04.395-.06v.454c0-.02.394-.039.394-.06v.455c4.34-.702 9.042-1.306 13.565-1.912.004-1.928.016-3.76.02-5.732h-.001c0-.395-.085-.314-.085-.446-.131.015-.085-.019-.48-.004v.055h.17c0-.395-.084-.314-.084-.445-.132.015-.085-.02-.48-.004v.054h.17c0-.394-.085-.313-.085-.445-.131.015-.085-.019-.48-.004v.055h.17c0-.395-.085-.314-.084-.445-.132.015-.085-.02-.48-.004v.054h.17c0-.394-.085-.313-.085-.445-.131.015-.085-.019-.48-.004v.055h.17c0-.395-.085-.314-.084-.445-.132.015-.085-.02-.48-.005v-.046c-.394.067-1.083.137-1.667.205.003-2.663.05-5.326.053-7.988 4.309-.349 8.643-.666 12.957-.965-.007 2.52-.003 5.04-.01 7.56a763.83 763.83 0 0 0-4.124.42c-.004 1.882-.056 3.764-.06 5.646.131-.016.347-.03.347-.046v.004h.1s-.05.284-.05.416c.131-.017.345-.01.345-.026v.004h.1s-.05.285-.05.416c.13-.016.344-.009.344-.025v.004h.1s-.05.284-.05.416c.131-.017.345-.01.345-.026v.004h.1s-.05.285-.05.416c.13-.016.344-.009.344-.025v.004h.1s-.05.284-.05.416c.131-.017.345-.01.345-.026v.004h.1v.416c4.528-.557 9.062-.958 13.598-1.419l.018-5.31h-.002c0-.394.047-.359.048-.49-.132.011-.348-.073-.348-.061v.157h-.094c0-.394.047-.36.047-.49-.131.01-.348-.073-.348-.062v.158h-.094c0-.395.047-.36.048-.491-.132.011-.348-.073-.348-.061v.157h-.094c0-.394.047-.36.047-.49-.131.01-.348-.073-.348-.062v.158h-.094c0-.395.047-.36.048-.491-.132.011-.348-.073-.348-.061v.157h-.095c0-.394.048-.36.048-.49-.131.01-.348-.073-.348-.062v-.035c-.394.04-.983.084-1.452.125.022-7.381.021-14.762.043-22.143 1.262-.023 2.511-.007 3.772-.029.006-1.805 0-3.8.006-5.378h-.001v-.432c-.131 0-.395-.038-.395-.038M52.18 248.48a2242.93 2242.93 0 0 1 3.051-8.747 2465.1 2465.1 0 0 0 3.005 8.51c-2.02.07-4.038.156-6.057.237m20.415 11.359v.071h-.037c0-.395.019-.307.019-.438-.132.005-.377-.033-.377-.028v.071h-.036c0-.394.018-.306.019-.438-.132.005-.377-.033-.377-.027v.07h-.037c0-.394.019-.306.019-.437-.132.005-.377-.033-.377-.028v.071h-.036c0-.394.018-.307.018-.438-.131.005-.376-.033-.376-.028v.072h-.037c0-.395.019-.307.019-.438-.132.005-.377-.033-.377-.028v-.016l-1.277.05c-2.447-6.685-4.9-13.432-7.34-20.273 1.164-.012 2.324.035 3.488.024.005-1.674.005-3.386.01-4.964 0-.394-.005-.321-.005-.453-.131 0-.4-.058-.4-.058v.117h.01c0-.395-.005-.322-.005-.453-.13 0-.399-.058-.399-.058v.116h.009c0-.394-.004-.321-.004-.453-.131 0-.4-.058-.4-.058v.117h.01c0-.395-.005-.322-.005-.453-.131 0-.399-.059-.399-.059v.117h.009c0-.394-.005-.321-.004-.453-.132 0-.4-.058-.4-.058v.117h.01c0-.395-.005-.322-.005-.453-.131 0-.399-.059-.399-.059-6.312.006-12.509.014-18.765.024-.006 1.74-.09 3.481-.095 5.222l.317-.004v.004h.161s-.08.263-.08.395l.314-.004v.004h.161s-.08.262-.081.394l.314-.004v.004h.161s-.08.263-.08.395l.314-.004v.004h.161s-.08.262-.081.394l.314-.004v.004h.162s-.081.263-.082.395l.315-.004v.004h.161l-.001.394.422-.006a1934.164 1934.164 0 0 0-7.51 21.856c-.96.076-1.918.154-2.876.233-.006 1.793-.033 3.585-.038 5.378.131-.012.373-.023.373-.036v.192h.044s-.022.185-.023.317c.132-.013.374-.102.374-.115v.193h.043s-.022.185-.022.316c.131-.012.373-.101.373-.114v.193h.044s-.022.185-.023.316c.132-.013.374-.102.374-.115v.193h.043s-.022.185-.022.316c.131-.012.373-.101.373-.114v.193h.044s-.022.185-.023.316c.132-.013.374-.102.374-.115v.193h.043v.317c4.252-.416 8.507-.767 12.765-1.098l.017-5.137c0-.394.097-.323.098-.455-.132.009-.298-.042-.298-.033v.094h-.195c0-.395.098-.324.098-.455-.132.008-.298-.043-.298-.034v.094h-.195c0-.394.098-.323.098-.455-.131.009-.297-.042-.297-.033v.094H50.7c0-.395.098-.324.098-.455-.132.008-.298-.043-.298-.034v.094h-.195c0-.395.098-.324.098-.455-.131.009-.297-.042-.297-.033v.093h-.195c0-.394.097-.323.098-.454-.132.008-.298-.043-.298-.034V259c-.395.018-.643.038-.916.056.345-1.047.641-2.098.986-3.14a934.79 934.79 0 0 1 10.873-.542c.336.974.66 1.95.998 2.921-1.28.064-2.566.132-3.846.203-.005 1.69-.105 3.38-.11 5.07.131-.009.3-.016.3-.024v-.083h.184c0 .394-.092.316-.093.448.132-.009.304.038.304.03v-.084h.184c0 .395-.093.317-.093.448.131-.008.303.038.303.03v-.083h.184c0 .394-.092.316-.093.448.132-.009.304.038.304.03v-.084h.184c0 .395-.093.317-.093.448.131-.008.303.038.303.03v-.083h.184c0 .394-.092.316-.093.448.132-.009.304.038.304.03v-.084h.184c0 .395-.001.317-.002.448 4.261-.276 8.525-.44 12.79-.632l.012-4.944h-.001c0-.395.018-.307.019-.439-.132.005-.377-.033-.377-.027M102.083 255.419l-.394-.395-.395-.395c-.132-.13-.263-.263-.394-.394l-.395-.395c-.132-.13-.263-.263-.394-.394-.065.067-.132.131-.198.198l-.197-.198c-2.463 2.564-5.63 4.224-9.494 4.293-2.795-.023-5.197-.86-7.062-2.28-1.44-1.89-2.258-4.287-2.295-6.945.1-6.658 5.022-11.42 11.425-11.425 1.258-.003 2.322.122 3.207.32a4.09 4.09 0 0 0-.022.42c0 1.085.422 1.97 1.144 2.573.12.143.25.274.395.395.119.142.25.274.394.394.12.143.25.275.395.395.119.142.25.274.394.394.12.143.25.275.395.395.673.805 1.757 1.273 3.087 1.272 2.072 0 3.637-1.603 3.636-3.94 0-.066-.005-.13-.008-.196.002-.067.008-.131.008-.198 0-1.459-.742-2.923-2.081-4.18a8.858 8.858 0 0 0-.395-.394 8.858 8.858 0 0 0-.394-.395 8.858 8.858 0 0 0-.395-.394 8.858 8.858 0 0 0-.394-.395c-2.115-2.258-6.088-3.954-11.182-3.955-.059 0-.116.004-.174.004-.074 0-.147-.004-.22-.004-9.686-.028-17.473 7.042-17.497 16.887-.013 4.93 1.696 8.962 4.623 11.793.128.134.26.265.394.394.129.135.261.265.395.395.128.134.26.265.394.394.129.135.261.265.395.395.128.134.26.265.394.394 3.133 3.275 7.806 5.077 13.34 4.978 5.314-.083 10.123-2.173 13.36-5.612l-.197-.197c.065-.067.133-.13.197-.198a2303.96 2303.96 0 0 0-3.795-3.804M141.524 260.308c-.131-.007-.263-.028-.394-.035l-.001-.383-.393-.023-.002-.377-.393-.02-.001-.376-.393-.02-.002-.375-.393-.02-.001-.375a779.15 779.15 0 0 0-3.593-.175c-2.402-3.97-4.802-7.888-7.2-11.764 3.04-2.88 6.077-5.786 9.113-8.732 1.195.01 2.39.097 3.584.109v-.32c-.005-1.973-.01-3.551-.016-5.13h-.393v-.394h-.394l-.001-.394h-.394v-.395h-.394l-.001-.394h-.394c0-.395-.082-.32-.082-.452-4.878-.005-9.585.025-14.714.022v.035h-.232l.01 4.824c.131 0 .263-.03.394-.03v.376c.132.001.263-.006.394-.005l.001.388h.394v.392l.394.001.001.392.394.003v.222c-2.32 2.28-4.642 4.543-6.964 6.796l-.01-6.272c1.38.006 2.76.01 4.139.018v-.398l-.01-4.734h-.483v-.395h-.395v-.394h-.394v-.395h-.395v-.394h-.304c0-.395.06-.328.06-.46-4.542-.002-9.225.03-13.564.03v.035h-.516c.002 1.578.061 3.214.063 4.855.131 0 .058-.067.453-.067v.394h.394v.394l.395.001v.394h.394v.394l.395.001v.394h.394v.395l1.363.003c.007 6.632.035 13.263.043 19.895a659.072 659.072 0 0 0-3.378-.043v.005c-.395-.001-.314-.004-.445-.005 0 1.64.026 3.281.027 4.922.131.002.023.005.418.007v.388s0 .005.394.007v.387s0 .005.395.007v.388s0 .005.394.007v.387s0 .006.395.007v.388s0 .005.394.007v.387c4.34.055 9.06.214 13.613.364 0-.132-.05-.339-.05-.339h.001l-.009-5.024c-.131-.004-.262-.034-.394-.038v-.398c-.132-.004-.263-.014-.394-.017v-.389l-.395-.011v-.385l-.394-.011-.001-.385-.394-.01v-.385c-.726-.02-1.452-.036-2.178-.055l-.004-2.878c1.407-1.312 2.814-2.626 4.22-3.943 2.495 4.036 4.991 8.112 7.489 12.249l.16.008.235.386.16.008.234.387.16.008.235.386.16.009.234.386.16.008.235.386.16.009.234.386c2.663.128 5.326.305 7.988.466v-.364l-.015-5.125M169.218 257.603c-.131-.01-.263-.057-.394-.066v-.385c-.132-.01-.263-.028-.394-.038l-.001-.37c-.131-.01-.263-.022-.394-.031l-.001-.368-.393-.029-.002-.366-.393-.029c0-.121-.021-.244-.022-.366-1.814-.135-3.494-.266-5.466-.39v.028c0-.009-.243-.02-.374-.028.005 1.545.02 3.09.025 4.636a762.04 762.04 0 0 0-7.524-.566c-.008-2.466-.1-4.932-.109-7.397 3.348.153 6.798.357 9.954.54v-.358h.176l-.017-5.13c-.131-.005-.262-.027-.393-.033l-.001-.389c-.132-.005-.263-.013-.394-.018l-.001-.383-.393-.016-.002-.38-.393-.015-.001-.38-.393-.015-.002-.38c-2.69-.11-5.383-.208-8.074-.304l-.023-6.814c2.493.033 4.985.072 7.478.11l.007 2.333.394.012.001.383.393.012.002.383.393.011.001.383.393.012.002.383.393.011.001.383.394.012v.383c1.817.051 3.633.013 5.449.07l-.001-.488-.03-10.03c-.132 0-.263.047-.394.046l-.001-.37c-.131-.001-.262.01-.393.01l-.002-.388c-.13 0-.262.04-.393.04l-.001-.355h-.393c0-.394-.002-.3-.002-.43-.13-.001-.262-.02-.393-.02 0-.132.041-.272.04-.403-8.257-.016-16.446-.038-24.731-.047h-.437c.006 1.707-.01 3.415-.005 5.122l.383.005c0 .13.03.26.03.39.13.001.029.003.423.004v.39l.36.005c0 .13-.016.26-.016.39l.385.005c0 .13.03.26.03.39.131 0 .03.003.425.004v.39l.36.005c0 .13-.017.26-.016.39l1.416.016c.022 6.98.039 13.96.061 20.94-1.13-.068-2.216-.134-3.4-.197v.023c0-.007-.26-.016-.392-.023l.017 5.122c.131.01.263.02.394.028l.001.367.393.028.002.367.393.027.002.367.393.028.001.367.393.027.002.367.393.028.001.367c8.287.54 16.565 1.314 24.831 2.172l-.001-.32-.03-10.197M186 238.384c1.792.035 3.317.364 4.517.987.379.782.584 1.7.586 2.763.003 3.733-2.576 5.92-6.346 6.005-.183-.003-.366-.004-.554-.017-.487-.03-.899-.06-1.256-.09l-.022-9.714 3.076.066m15.604 27.38v-.343c0-.017-.394-.033-.394-.05v-.344c0-.017-.395-.034-.395-.051v-.344c0-.017-.394-.034-.394-.05v-.344c0-.017-.395-.034-.395-.051v-.344c-.789-.115-1.755-.226-2.628-.339a768.964 768.964 0 0 0-4.111-8.895c3.539-1.422 6.079-5.062 6.078-10.07 0-.08-.005-.156-.007-.236 0-.053.005-.104.005-.158 0-3.795-1.217-6.66-3.302-8.628a9.54 9.54 0 0 0-.394-.394 9.54 9.54 0 0 0-.395-.395 9.54 9.54 0 0 0-.394-.394 9.54 9.54 0 0 0-.395-.395c-2.33-2.466-5.825-3.67-10.081-3.657l-12.782-.027h-.478c.005 1.836-.032 3.671-.026 5.508l.372.007c0 .13-.01.258-.01.387l.39.008c0 .129-.003.258-.002.387l.392.007v.387l.393.008.001.387.394.007v.387l.394.008.001.387 1.423.027c.02 7.6.08 15.199.1 22.799-1.127-.111-2.16-.22-3.344-.326v.037c-.394-.012-.303-.025-.434-.037.005 1.836-.009 3.671-.004 5.508.132.014.253.03.384.045 0 .116.026.233.027.35.131.014.422.03.422.044v.35c0 .014.23.03.361.045 0 .116-.015.233-.014.35.131.014.254.03.385.045 0 .116.028.232.029.349.131.014.422.03.422.045v.35c0 .014.231.03.362.045 0 .116-.015.232-.015.349 4.534.5 9.056 1.058 13.581 1.655 0-.132-.008-.386-.008-.386l-.01-5.765-.395-.047v-.353l-.394-.044v-.352l-.395-.043v-.352l-.394-.043v-.352l-.395-.043v-.351c-.72-.08-1.439-.158-2.158-.236l-.014-6.165c.705.111 1.662.188 2.719.274.23.019.462.025.695.032a852.094 852.094 0 0 1 5.61 12.847l.24.035c.05.12.102.24.154.36l.24.035.154.36c.08.01.16.023.24.034l.155.36.24.035.154.36c.08.01.16.023.24.035.052.12.104.238.155.359l.24.035c.051.12.112.239.163.36 2.545.364 5.27.745 7.637 1.14V265.816c0-.017-.395-.034-.395-.051"/></g><g fill="#924E95"><path d="M34.267 212.672c0-1.363.811-2.261 2-2.261 1.277 0 2.088.956 2.088 1.884 0 .464-.086.812-.26 1.16.696.493 1.768.812 3.015.812 2.089 0 3.423-.928 3.423-2.58 0-1.567-1.595-2.32-3.51-2.988-3.537-1.275-6.031-2.407-6.031-5.945 0-3.045 2.465-5.423 6.322-5.423 3.567 0 6.322 1.827 6.322 4.118 0 1.363-.842 2.146-1.943 2.146-1.334 0-2.088-.986-2.088-1.943 0-.464.086-.667.202-.899-.521-.319-1.333-.58-2.523-.58-1.885 0-2.987.957-2.987 2.35 0 1.565 1.596 2.261 3.51 2.957 3.422 1.218 6.003 2.407 6.003 5.945 0 3.625-2.813 5.684-6.728 5.684-3.77 0-6.815-2.117-6.815-4.437M61.467 208.003l-2.667-7.51-2.669 7.51h5.336zm-12.325 5.83h1.653l4.756-13.254h-2.088v-2.9h10.789v2.9h-2.089l4.756 13.253h1.654v2.93h-7.338v-2.9h2.205l-1.074-3.133h-7.134l-1.072 3.132h2.32v2.9h-7.338v-2.929zM69.325 200.608h-1.74v-2.929h7.54v2.93h-2.001l4.118 10.468 4.118-10.469h-2.117v-2.929h7.54v2.93h-1.74l-6.93 16.355h-1.857zM88.231 213.832h2.175v-13.224h-2.175v-2.929h14.24v5.452h-3.132v-2.552h-5.656v5.104h5.772v2.784h-5.772v5.395h5.684v-2.553h3.133v5.452H88.23zM115.2 213.832h2.377v-13.31h-3.538v3.015h-3.103v-5.858h16.56v5.858h-3.104v-3.016h-3.538v13.311h2.378v2.93H115.2zM129.234 213.832h2.175v-13.224h-2.175v-2.929h7.83v2.93h-2.378v5.045h8.816v-5.046h-2.378v-2.929h7.83v2.93h-2.175v13.223h2.175v2.93h-7.83v-2.93h2.378v-5.307h-8.816v5.307h2.378v2.93h-7.83zM151.098 213.832h2.175v-13.224h-2.175v-2.929h14.24v5.452h-3.133v-2.552h-5.655v5.104h5.771v2.784h-5.77v5.395h5.683v-2.553h3.132v5.452h-14.268zM.018 263.843c1.255-.165 2.51-.328 3.766-.487l.014-27.052c-1.26.031-2.52.064-3.78.097v-6.079l13.622-.035-.01 5.783c-1.379.03-2.757.063-4.135.095l-.013 10.11c5.104-.307 10.21-.588 15.318-.842l.025-9.599-4.135.083.013-5.646c4.54-.01 9.082-.019 13.623-.027l-.017 5.416c-1.261.021-2.523.043-3.784.066l-.074 24.722c1.26-.115 2.52-.227 3.78-.336l-.017 5.416c-4.536.46-9.07.97-13.598 1.526l.013-5.646a723.94 723.94 0 0 1 4.129-.42l.027-10.094c-5.107.342-10.21.72-15.31 1.132l-.014 10.631c1.374-.164 2.749-.324 4.123-.48l-.01 5.782c-4.524.606-9.043 1.26-13.556 1.962v-6.078zM58.236 248.243a2354.95 2354.95 0 0 1-4.603-13.07 2263.517 2263.517 0 0 0-4.687 13.435c3.096-.135 6.192-.256 9.29-.365M36.75 259.899c.959-.08 1.917-.157 2.875-.233 2.784-8.267 5.57-16.344 8.354-24.267l-3.632.05.017-5.222c6.256-.01 12.513-.018 18.77-.024l-.014 5.022c-1.212.011-2.423.024-3.634.036 2.735 7.67 5.474 15.227 8.217 22.705.96-.04 1.92-.08 2.882-.116l-.013 5.014a647.2 647.2 0 0 0-12.789.703l.016-5.07c1.28-.07 2.56-.137 3.84-.202a2691.06 2691.06 0 0 1-1.853-5.359c-4.142.177-8.283.381-12.422.613-.628 1.9-1.257 3.81-1.886 5.729 1.346-.096 2.692-.189 4.039-.278l-.018 5.158a650.2 650.2 0 0 0-12.766 1.12l.017-5.379M72.583 246.487c.025-9.845 7.811-16.914 17.496-16.887 7.719.001 12.867 3.893 12.869 7.74 0 2.337-1.565 3.94-3.636 3.94-2.273 0-3.838-1.358-3.837-3.452 0-.633.152-1.266.354-1.656-.96-.728-2.877-1.457-5.906-1.45-6.46.005-11.416 4.85-11.43 11.602-.012 6.51 4.63 11.521 11.662 11.418 3.895-.051 7.083-1.717 9.561-4.296 1.265 1.265 2.53 2.533 3.794 3.805-3.236 3.439-8.045 5.529-13.36 5.612-10.275.184-17.593-6.18-17.567-16.376M107.606 257.33c1.265.013 2.53.029 3.794.048l-.024-22.261-3.786-.01-.003-4.922c4.54 0 9.082.003 13.623.006l.01 4.87c-1.38-.008-2.76-.014-4.14-.02l.017 10.928c3.717-3.593 7.43-7.204 11.139-10.863-1.262-.01-2.524-.018-3.786-.026l-.01-4.887c4.877.003 9.755.007 14.632.013l.016 5.095c-1.195-.013-2.39-.024-3.584-.035-3.087 2.996-6.176 5.95-9.267 8.878 2.839 4.586 5.68 9.227 8.523 13.946 1.466.067 2.931.138 4.396.214l.016 5.095a658.952 658.952 0 0 0-7.988-.435 1449.573 1449.573 0 0 0-9.284-15.15 2645.697 2645.697 0 0 1-4.793 4.478l.008 5.194c1.382.031 2.765.067 4.147.106l.01 4.968c-4.554-.15-9.108-.253-13.662-.308l-.004-4.922zM142.035 258.458c1.263.07 2.525.143 3.788.22l-.075-23.303c-1.262-.016-2.523-.03-3.785-.044l-.016-5.122c8.258.01 16.517.022 24.774.037l.031 10.122c-1.815-.056-3.631-.11-5.447-.161l-.016-4.667c-3.279-.052-6.559-.1-9.839-.144l.03 9.107c3.348.115 6.696.241 10.042.378l.016 5.094c-3.346-.183-6.693-.351-10.041-.505l.032 9.625c3.298.224 6.595.47 9.89.737l-.015-4.667c1.816.124 3.631.254 5.446.39l.032 10.123a649.042 649.042 0 0 0-24.831-2.097l-.016-5.123M191.103 242.134c-.005-4.036-2.88-6.028-7.47-6.117-1.025-.023-2.05-.045-3.076-.066.01 3.952.018 7.905.027 11.858.605.093 1.41.198 3.224.313 4.281.286 7.298-1.949 7.295-5.988m-19.956 18.496c1.26.118 2.52.24 3.779.364l-.068-25.16-3.783-.072-.016-5.507c4.289.008 8.577.018 12.865.027 7.62-.024 13.071 3.852 13.072 11.89.002 5.08-2.613 8.759-6.234 10.135a767.202 767.202 0 0 1 5.087 11.049c1.256.159 2.511.322 3.766.487v6.079c-2.54-.396-5.083-.776-7.628-1.14a857.824 857.824 0 0 0-6.658-15.195c-.705-.001-1.36.002-2.014-.052-1.057-.087-2.014-.163-2.719-.274l.02 8.317c1.375.147 2.75.297 4.125.45l.01 5.757a651.426 651.426 0 0 0-13.588-1.648l-.016-5.507"/></g><path d="M180.212 100.232c0 43.609-35.83 78.962-80.028 78.962-44.199 0-80.03-35.353-80.03-78.962 0-43.61 35.831-78.962 80.03-78.962 44.198 0 80.028 35.353 80.028 78.962" fill="#FFC878"/><path d="M100.184 22.059c-43.693 0-79.24 35.068-79.24 78.173 0 43.104 35.547 78.173 79.24 78.173s79.24-35.069 79.24-78.173c0-43.105-35.547-78.173-79.24-78.173m0 157.924c-44.564 0-80.818-35.776-80.818-79.751S55.62 20.48 100.184 20.48c44.563 0 80.817 35.776 80.817 79.75 0 43.976-36.254 79.752-80.817 79.752" fill="#333"/><path fill="#282733" d="M151.972 40.127l-1.115-1.115 27.635-27.636 1.116 1.116z"/><path fill="#282733" d="M179.84 30.388h-1.579V12.723h-16.876v-1.578h18.454zM21.85 170.25l-1.115-1.116 18.102-18.103 1.116 1.116z"/><path fill="#282733" d="M36.565 173.663h-1.579v-17.665H18.11v-1.578h18.455z"/><path fill="#282733" d="M31.147 179.08H29.57v-17.665H12.692v-1.578h18.455zM47.66 40.127L20.026 12.492l1.116-1.116 27.635 27.636z"/><path fill="#282733" d="M21.372 30.388h-1.578V11.145h18.455v1.578H21.372zM177.782 170.25l-18.102-18.103 1.116-1.116 18.102 18.103z"/><path fill="#282733" d="M164.646 173.663h-1.578V154.42h18.455v1.578h-16.877z"/><path fill="#282733" d="M170.064 179.08h-1.578v-19.243h18.455v1.578h-16.877z"/><path d="M160.398 150.987v-4.547c0-12.324-10.037-22.35-22.374-22.35H115.84c.001-.698.005-1.156.008-1.612.005-.628.01-1.256.01-2.512 0-1.252.002-1.878.003-2.504v-.192c4.916-3.371 12.86-10.023 16.822-21.32 1.438-4.101 3.224-10.3 4.363-14.38.047-.056.095-.11.14-.168-.58 8.414-2.672 18.004-6.161 27.854-.24.678.051 1.405.693 1.729a1.395 1.395 0 0 0 1.8-.472c13.254-19.657 17.073-35.334 14.596-59.91-.553-5.48-1.569-10.339-2.908-14.663-12.713-8.69-28.114-13.812-44.703-13.877-14.713.085-28.487 4.146-40.275 11.146-.245.68-.48 1.364-.698 2.054a97.509 97.509 0 0 0-.587 1.757.782.782 0 0 0-.032.338 57.224 57.224 0 0 0-2.009 15.091c0 2.97.23 5.942.679 8.846-.072.037-.144.073-.215.114a4.488 4.488 0 0 0-2.034 5.242c.427 1.369 1.226 2.877 2.152 4.624 1.406 2.656 3 5.666 3.64 8.93.34 1.73.785 3.05 1.283 4.058a3.165 3.165 0 0 0-.765 2.063 3.183 3.183 0 0 0 3.18 3.18 3.185 3.185 0 0 0 3.11-2.516c.329-.151.655-.35.975-.593 1.167 4.661 2.651 9.972 4.029 13.057a41.904 41.904 0 0 0 4.901 8.3 5.671 5.671 0 0 0-.738 2.549c-.113 2.094.204 4.286 1.614 5.674.548.54 1.228 1.122 1.984 1.732-2.357.363-4.008 3.502-3.233 6.38H67.187c-12.344 0-22.386 10.027-22.386 22.351v8.873c14.275 14.168 34.003 22.982 55.78 23.087 23.913-.117 45.353-10.735 59.817-27.413" fill="#EBAF6C"/><path d="M79.645 126.457c-3.207-1.432-6.355 2.646-4.912 6.524.256.69.648 1.337 1.219 1.898 3.41 3.358 11.938 8.394 12.151 11.332.213 2.938 2.132-8.953.213-11.751-.943-1.375-2.948-5.446-8.67-8.003" fill="#9C6344"/><path d="M78.308 126.95c-.823 0-1.457.453-1.813.786-1.025.962-1.782 2.927-1.023 4.97.232.623.58 1.165 1.033 1.611 1.137 1.119 2.872 2.44 4.71 3.838 2.8 2.13 5.485 4.175 6.815 6.01.393-2.867.66-7.764-.365-9.259a21.11 21.11 0 0 1-.406-.63c-1.09-1.728-3.117-4.946-7.935-7.098a2.476 2.476 0 0 0-1.016-.228zm9.917 20.513a.814.814 0 0 1-.223-.03c-.614-.174-.662-.843-.686-1.165-.114-1.572-3.964-4.503-7.057-6.857-1.878-1.43-3.653-2.78-4.861-3.97a5.955 5.955 0 0 1-1.405-2.185c-1.017-2.732-.018-5.32 1.422-6.67 1.303-1.223 3.005-1.54 4.552-.85 5.255 2.348 7.533 5.963 8.627 7.7.142.225.265.42.373.578 1.845 2.69.64 12.126-.043 13.077a.864.864 0 0 1-.7.372z" fill="#333"/><path d="M97.08 128.976c3.208-1.433 6.356 2.646 4.913 6.523a5.148 5.148 0 0 1-1.22 1.899c-3.41 3.357-11.937 8.393-12.15 11.331-.214 2.938-2.132-8.953-.214-11.751.943-1.375 2.949-5.446 8.671-8.002" fill="#9C6344"/><path d="M97.402 129.696c-4.819 2.152-6.847 5.37-7.936 7.1-.154.244-.288.456-.406.628-1.025 1.495-.757 6.391-.365 9.258 1.33-1.834 4.016-3.878 6.816-6.008 1.837-1.399 3.573-2.72 4.71-3.839.453-.446.8-.988 1.032-1.611.76-2.043.003-4.008-1.022-4.97-.491-.46-1.513-1.145-2.83-.558zM88.5 149.98a.864.864 0 0 1-.7-.372c-.682-.951-1.887-10.387-.042-13.077.107-.158.23-.353.372-.578 1.094-1.737 3.372-5.351 8.627-7.699 1.547-.692 3.25-.374 4.553.849 1.44 1.351 2.438 3.937 1.421 6.67a5.945 5.945 0 0 1-1.404 2.186c-1.209 1.19-2.983 2.54-4.862 3.97-3.093 2.354-6.942 5.283-7.056 6.856-.024.322-.072.99-.687 1.164a.814.814 0 0 1-.222.031z" fill="#333"/><path d="M79.584 117.117c-3.592-1.41-6.56 3.846-4.274 7.605.187.307.4.616.642.924 5.713 7.29 12.364 9.094 13.004 12.031.634 2.912 1.279-9.652-.64-12.45-.978-1.427-1.69-5.346-8.732-8.11" fill="#9C6344"/><path d="M78.384 117.67c-.954 0-1.642.617-2.01 1.055-1.092 1.3-1.577 3.636-.39 5.587.174.286.372.571.589.848 2.982 3.805 6.173 6.042 8.737 7.84 1.449 1.015 2.65 1.857 3.444 2.744.159-3.019-.003-8.488-1.089-10.071-.206-.301-.385-.662-.593-1.08-.852-1.714-2.277-4.583-7.776-6.741a2.492 2.492 0 0 0-.912-.182m10.767 21.231a.823.823 0 0 1-.152-.013c-.612-.112-.754-.764-.814-1.042-.232-1.066-1.798-2.164-3.781-3.554-2.51-1.76-5.947-4.17-9.073-8.159a10.396 10.396 0 0 1-.695-1c-1.574-2.589-.925-5.693.53-7.423 1.256-1.495 3.015-1.992 4.706-1.327 6.065 2.38 7.66 5.59 8.613 7.508.181.365.338.68.482.89 1.73 2.524 1.682 12.518.91 13.71a.864.864 0 0 1-.726.41" fill="#333"/><path d="M97.141 119.636c3.592-1.41 6.56 3.845 4.275 7.605-.187.307-.4.615-.642.924-5.714 7.29-12.365 9.093-13.004 12.03-.634 2.912-1.28-9.652.64-12.45.977-1.427 1.69-5.346 8.731-8.11" fill="#9C6344"/><path d="M98.342 120.188c-.282 0-.586.054-.913.182-5.498 2.158-6.924 5.027-7.775 6.741-.208.418-.387.779-.594 1.08-1.085 1.584-1.247 7.053-1.089 10.072.795-.888 1.996-1.73 3.444-2.746 2.564-1.797 5.756-4.034 8.738-7.84.216-.275.414-.56.588-.847 1.187-1.951.702-4.288-.39-5.587-.368-.438-1.056-1.055-2.01-1.055M87.576 141.42a.864.864 0 0 1-.726-.41c-.773-1.193-.821-11.187.91-13.711.143-.21.3-.525.481-.89.953-1.918 2.548-5.128 8.613-7.508 1.69-.664 3.45-.168 4.706 1.327 1.455 1.73 2.104 4.835.53 7.422-.206.34-.44.677-.694 1.001-3.127 3.99-6.563 6.4-9.074 8.159-1.982 1.39-3.548 2.488-3.78 3.554-.06.278-.203.93-.815 1.042a.823.823 0 0 1-.151.014" fill="#333"/><path d="M79.76 105.327c-2.481-1.3-5.24.813-5.422 4.187-.113 2.094.204 4.286 1.614 5.674 3.41 3.358 11.938 8.394 12.151 11.332.213 2.938 2.132-8.954.213-11.752-.936-1.365-2.921-6.49-8.556-9.441" fill="#9C6344"/><path d="M78.233 105.73c-.416 0-.83.11-1.22.333-1.081.615-1.804 1.953-1.887 3.493-.127 2.339.337 4.044 1.38 5.07 1.136 1.119 2.871 2.44 4.709 3.838 2.795 2.127 5.477 4.169 6.809 6 .126-.904.243-2.025.304-3.218.152-2.95-.096-5.205-.663-6.031-.185-.27-.387-.635-.642-1.096-1.115-2.016-3.191-5.768-7.629-8.093a2.493 2.493 0 0 0-1.16-.296m9.99 22.042a.811.811 0 0 1-.221-.03c-.615-.174-.664-.843-.687-1.165-.114-1.573-3.964-4.503-7.057-6.857-1.879-1.43-3.653-2.78-4.861-3.97-1.378-1.356-2-3.47-1.848-6.279.113-2.102 1.116-3.888 2.682-4.78a3.993 3.993 0 0 1 3.895-.063c4.856 2.544 7.081 6.566 8.277 8.726.226.408.42.76.563.969 1.845 2.69.64 12.125-.042 13.077a.865.865 0 0 1-.7.372" fill="#333"/><path d="M97.048 108.175c2.464-1.232 5.213.883 5.35 4.213.08 1.951-.262 3.978-1.624 5.319-3.41 3.357-12.898 8.746-13.111 11.684-.213 2.937-1.172-9.306.746-12.104.941-1.372 2.941-6.264 8.64-9.112" fill="#9C6344"/><path d="M97.401 108.88c-4.55 2.275-6.63 5.911-7.747 7.865-.235.412-.422.737-.594.988-.991 1.446-1.097 6.221-.988 9.251 1.36-1.589 3.802-3.438 6.946-5.736 2.069-1.514 4.023-2.943 5.202-4.104 1.01-.993 1.478-2.583 1.39-4.723-.062-1.5-.761-2.822-1.824-3.45-.76-.447-1.606-.48-2.385-.09zM87.26 130.753l-.345-.464c-.57-.794-.947-10.835.845-13.447.136-.199.316-.514.525-.88 1.2-2.098 3.434-6.004 8.411-8.492 1.256-.627 2.674-.575 3.892.143 1.543.91 2.514 2.684 2.6 4.744.106 2.604-.519 4.594-1.86 5.913-1.26 1.241-3.26 2.704-5.378 4.252-3.118 2.28-7.389 5.404-7.499 6.926-.029.394-.072.989-.658 1.154l-.533.15z" fill="#333"/><path d="M79.584 95.867c-3.592-1.41-6.56 3.846-4.274 7.605.187.307.4.615.642.924 5.713 7.29 12.364 9.093 13.004 12.03.634 2.912 1.279-9.652-.64-12.45-.978-1.427-1.69-5.346-8.732-8.11" fill="#9C6344"/><path d="M78.384 96.42c-.954 0-1.642.616-2.01 1.054-1.092 1.3-1.577 3.636-.39 5.588.174.286.372.57.589.847 2.982 3.805 6.173 6.042 8.737 7.84 1.449 1.015 2.65 1.857 3.444 2.745.159-3.02-.003-8.488-1.089-10.072-.206-.301-.385-.662-.593-1.08-.852-1.714-2.277-4.583-7.776-6.74a2.492 2.492 0 0 0-.912-.183m10.767 21.232a.823.823 0 0 1-.152-.014c-.612-.111-.754-.764-.814-1.042-.232-1.066-1.798-2.164-3.781-3.554-2.51-1.76-5.947-4.17-9.073-8.159a10.337 10.337 0 0 1-.695-1c-1.574-2.588-.925-5.693.53-7.423 1.256-1.494 3.015-1.991 4.706-1.327 6.066 2.38 7.66 5.59 8.613 7.508.182.365.338.68.482.89 1.73 2.524 1.682 12.518.91 13.71a.864.864 0 0 1-.726.41" fill="#333"/><path d="M97.141 98.385c3.592-1.41 6.56 3.846 4.275 7.605-.187.307-.4.615-.642.924-5.714 7.29-12.365 9.093-13.004 12.03-.634 2.912-1.28-9.652.64-12.45.977-1.427 1.69-5.346 8.731-8.11" fill="#9C6344"/><path d="M97.43 99.119c-5.5 2.158-6.925 5.027-7.777 6.742-.207.417-.386.779-.593 1.08-1.086 1.583-1.247 7.051-1.089 10.07.794-.887 1.996-1.728 3.444-2.744 2.565-1.797 5.756-4.035 8.738-7.84.216-.276.414-.56.588-.848 1.188-1.95.703-4.288-.39-5.587-.477-.567-1.492-1.434-2.922-.873zm-9.855 21.05a.863.863 0 0 1-.725-.41c-.773-1.193-.822-11.187.909-13.711.144-.21.3-.525.481-.89.953-1.918 2.548-5.128 8.613-7.508 1.689-.663 3.45-.168 4.706 1.327 1.455 1.73 2.105 4.835.53 7.423-.206.339-.44.676-.694 1-3.127 3.99-6.564 6.4-9.074 8.16-1.982 1.389-3.548 2.487-3.78 3.553-.06.278-.203.93-.815 1.042a.824.824 0 0 1-.151.014z" fill="#333"/><path d="M156.847 145.651c0-11.985-9.64-21.561-21.585-21.561H64.425c-11.945 0-21.597 9.576-21.597 21.561v8.95l-.004.687c14.54 14.744 34.864 23.906 57.36 23.906 22.068 0 42.05-8.815 56.528-23.07l.135-.275v-10.198z" fill="#3BD2F4"/><path d="M135.262 124.09H64.425a21.554 21.554 0 0 0-17.303 8.617 21.602 21.602 0 0 1 11.19-3.094h70.836c11.945 0 21.586 9.576 21.586 21.561v10.199l-.058.118a80.277 80.277 0 0 0 6.036-5.366l.135-.275V145.65c0-11.985-9.64-21.561-21.585-21.561" fill="#31C0EC"/><path d="M43.615 154.965c15.028 15.118 35.104 23.44 56.569 23.44 21.088 0 40.925-8.076 55.874-22.745v-10.008c0-11.455-9.329-20.773-20.796-20.773H64.425c-11.474 0-20.808 9.318-20.808 20.773l-.002 9.313zm56.569 25.018c-22 0-42.57-8.573-57.922-24.141l-.228-.232.005-1.012v-8.946c0-12.325 10.042-22.351 22.386-22.351h70.837c12.338 0 22.374 10.026 22.374 22.35v10.383l-.276.56-.095.093c-15.258 15.023-35.53 23.296-57.081 23.296z" fill="#333"/><path d="M81.456 124.09c.104 11.173 8.01 20.195 17.754 20.195 9.743 0 17.65-9.022 17.754-20.195H81.456z" fill="#FFF"/><path d="M114.467 124.09c-.76 10.471-8.384 18.7-17.688 18.7-2.53 0-4.935-.613-7.114-1.71 2.757 2.026 6.03 3.205 9.545 3.205 9.743 0 17.65-9.022 17.754-20.195h-2.497z" fill="#F3F3F3"/><path d="M82.267 124.879c.458 10.337 7.919 18.617 16.943 18.617 9.025 0 16.485-8.28 16.944-18.617H82.267zm16.943 20.195c-10.117 0-18.435-9.41-18.543-20.977l-.007-.796h37.1l-.007.796c-.108 11.566-8.426 20.977-18.543 20.977z" fill="#282733"/><path d="M112.313 114.166c0 2.505-.006 2.505-.006 5.011 0 2.506-.02 2.506-.02 5.012 0 1.762-.316 3.468-.956 5.003-.662 1.588-1.717 2.966-2.916 4.164-1.2 1.2-2.639 2.109-4.226 2.77a12.73 12.73 0 0 1-9.876-.024c-1.588-.661-3.06-1.524-4.26-2.723a13.089 13.089 0 0 1-2.839-4.21 12.908 12.908 0 0 1-.98-4.98c0-2.57-.124-2.57-.124-5.141 0-2.57.153-2.57.153-5.14" fill="#FED5AA"/><path d="M86.402 120.191s10.952 5.774 26.04 4.438v-7.281h-26.04v2.843z" fill="#FCC08D"/><path d="M99.246 137.9c-1.773 0-3.535-.36-5.237-1.07-1.868-.779-3.344-1.725-4.513-2.892a13.804 13.804 0 0 1-3.01-4.464 13.663 13.663 0 0 1-1.04-5.285c0-1.266-.03-1.882-.062-2.533-.03-.64-.062-1.304-.062-2.608 0-1.309.039-1.974.077-2.617.039-.649.075-1.262.075-2.524h1.578c0 1.309-.04 1.974-.077 2.618a36.145 36.145 0 0 0-.075 2.523c0 1.266.03 1.881.06 2.532.031.642.064 1.304.064 2.609 0 1.64.308 3.214.919 4.677a12.223 12.223 0 0 0 2.669 3.955c1.02 1.02 2.33 1.855 4.004 2.553 1.53.638 3.044.947 4.63.947 1.608 0 3.169-.31 4.64-.923 1.559-.65 2.895-1.525 3.971-2.6 1.287-1.286 2.185-2.565 2.746-3.91.594-1.425.896-3.007.896-4.7 0-1.255.005-1.883.01-2.511.004-.625.01-1.25.01-2.5l.002-2.507c.002-.626.003-1.252.003-2.504h1.578c0 1.253-.001 1.88-.003 2.507l-.002 2.504c0 1.256-.006 1.884-.01 2.512-.005.625-.01 1.25-.01 2.5 0 1.902-.343 3.687-1.018 5.307-.641 1.539-1.651 2.984-3.086 4.418-1.222 1.222-2.73 2.21-4.48 2.94a13.572 13.572 0 0 1-5.247 1.045" fill="#333"/><path fill="#282733" d="M104.154 168.671l-9.065-12.795-7.439 5.262-.911-1.288 8.726-6.173 8.799 12.42 7.572-8.953 1.204 1.019z"/><path d="M87.195 162.788a2.288 2.288 0 1 1 .002-4.578 2.29 2.29 0 0 1 2.3 2.177 2.302 2.302 0 0 1-2.302 2.401" fill="#FFF"/><path d="M87.197 157.42c-.048 0-.096.002-.145.004a3.079 3.079 0 0 0 .286 6.15 3.092 3.092 0 0 0 2.947-3.224 3.078 3.078 0 0 0-3.088-2.93m0 1.579c.798 0 1.474.62 1.512 1.425a1.515 1.515 0 0 1-1.515 1.575c-.798 0-1.46-.63-1.497-1.436a1.494 1.494 0 0 1 1.5-1.564" fill="#282733"/><path d="M95.276 157.072a2.293 2.293 0 0 1-2.295-2.189 2.303 2.303 0 0 1 2.295-2.407 2.29 2.29 0 0 1 2.284 2.195 2.294 2.294 0 0 1-2.284 2.401" fill="#FFF"/><path d="M95.277 151.687c-.048 0-.096 0-.144.003a3.092 3.092 0 0 0-2.94 3.23 3.08 3.08 0 1 0 6.155-.286 3.079 3.079 0 0 0-3.071-2.947m0 1.578c.797 0 1.457.637 1.495 1.443a1.5 1.5 0 0 1-1.496 1.575c-.798 0-1.47-.63-1.507-1.436a1.516 1.516 0 0 1 1.508-1.582" fill="#282733"/><path d="M104.21 169.688a2.29 2.29 0 0 1-2.28-2.199 2.3 2.3 0 0 1 .584-1.649 2.255 2.255 0 0 1 1.694-.76c1.23 0 2.237.966 2.294 2.198a2.303 2.303 0 0 1-2.292 2.41" fill="#FFF"/><path d="M104.208 164.292l-.143.003a3.04 3.04 0 0 0-2.139 1.02 3.086 3.086 0 0 0-.785 2.211 3.079 3.079 0 0 0 3.211 2.949 3.093 3.093 0 0 0 2.938-3.234 3.084 3.084 0 0 0-3.082-2.95m0 1.579c.799 0 1.468.639 1.506 1.444a1.518 1.518 0 0 1-1.505 1.586c-.797 0-1.455-.641-1.492-1.447a1.504 1.504 0 0 1 1.491-1.583" fill="#282733"/><path d="M112.435 159.933a2.282 2.282 0 0 1-2.287-2.173 2.299 2.299 0 0 1 2.29-2.405c1.233 0 2.243.963 2.3 2.192a2.252 2.252 0 0 1-.607 1.65 2.302 2.302 0 0 1-1.696.736" fill="#FFF"/><path d="M112.438 154.566l-.143.003a3.088 3.088 0 0 0-2.935 3.227 3.069 3.069 0 0 0 3.22 2.923c1.703-.079 3.025-1.519 2.946-3.21a3.085 3.085 0 0 0-3.088-2.943m0 1.578c.799 0 1.474.634 1.512 1.44a1.502 1.502 0 0 1-1.515 1.56 1.492 1.492 0 0 1-1.498-1.421 1.509 1.509 0 0 1 1.501-1.579" fill="#282733"/><path d="M66.856 85.182l.004.016-.004-.016" fill="#FFE2B7"/><path fill="#282733" d="M66.09 85.469l.521-.156-.525.138 1.537-.453-.218.071.22-.065-.155.05.155-.045-.437.131.174-.052z"/><path d="M67.588 82.772c-2.78 4.483-6.892 4.424-8.45-3.508-1.083-5.51-4.766-10.28-5.814-13.637-1.123-3.595 3.29-6.55 6.03-3.622l8.234 20.767z" fill="#FECE9C"/><path d="M56.77 61.606a2.75 2.75 0 0 0-1.372.378c-1.004.585-1.803 1.866-1.321 3.408.383 1.229 1.15 2.678 2.04 4.356 1.457 2.752 3.108 5.871 3.795 9.364.676 3.445 1.906 5.573 3.375 5.841 1.066.196 2.327-.648 3.417-2.267l-8.026-20.243c-.612-.606-1.284-.837-1.908-.837m6.834 24.954c-.2 0-.401-.018-.6-.054-1.537-.28-3.59-1.738-4.64-7.09-.642-3.264-2.236-6.274-3.642-8.93-.926-1.747-1.724-3.255-2.152-4.624a4.488 4.488 0 0 1 2.034-5.242c1.784-1.038 3.874-.706 5.326.847l.102.109.056.139 8.38 21.136-.21.337c-1.348 2.175-3.016 3.372-4.654 3.372" fill="#333"/><path d="M64.451 85.537a2.39 2.39 0 1 1-4.782 0 2.39 2.39 0 0 1 4.782 0" fill="#EFED86"/><path d="M62.06 83.935a1.603 1.603 0 0 0 0 3.204c.883 0 1.602-.718 1.602-1.601 0-.884-.719-1.603-1.602-1.603m0 4.782a3.184 3.184 0 0 1-3.18-3.18 3.184 3.184 0 0 1 3.18-3.18 3.184 3.184 0 0 1 3.18 3.18 3.184 3.184 0 0 1-3.18 3.18" fill="#333"/><path d="M134.96 69.579l-.468-3.267-.003-.014c-1.128-5.5-2.594-17.585-15.484-20.622l-10.29-.753-1.101-.132c-5.99-.113-12.1-.455-17.5-4.349l-.14-.056-.124-.136c-2.112-1.575-4.112-3.705-5.95-6.595h-.001l-5.744 2.467a26.914 26.914 0 0 0-3.64 2.4l-2.542 2.31c-.324.34-.642.691-.949 1.057l-3.143 4.913c-.33.694-.633 1.42-.908 2.18l-.886 4.506-.474.037-3.416 2.57c.473 7.28 2.1 14.118 4.633 20.182l-2.032-.004s3.315 15.838 6.096 22.07c6.41 14.366 18.393 20.357 24.331 21.731 5.939 1.375 11.503-.343 13.483-1.718 1.98-1.375 15.04-7.976 20.468-23.456 2.309-6.583 5.483-18.465 5.483-18.465l-2.096-.005a59.386 59.386 0 0 0 2.398-6.851" fill="#FCD9AC"/><path d="M134.96 69.579l-.468-3.267-.003-.014c-1.128-5.5-2.594-17.585-15.484-20.622l-4.455-.326c6.114 8.94 9.728 19.964 9.728 31.892 0 17.382-7.669 32.846-19.58 42.733 1.787-.442 3.2-1.058 4.01-1.619 1.98-1.374 15.04-7.976 20.468-23.456 2.309-6.583 5.483-18.465 5.483-18.465l-2.096-.005a59.386 59.386 0 0 0 2.398-6.851" fill="#FCC08D"/><path d="M65.775 77.064c.763 3.506 3.515 15.748 5.84 20.958 6.198 13.889 17.869 19.913 23.788 21.283 5.98 1.385 11.243-.478 12.855-1.597.223-.155.543-.351.986-.623 3.565-2.184 14.413-8.83 19.187-22.446 1.887-5.378 4.385-14.428 5.198-17.417l-2.253-.006.46-1.092a58.582 58.582 0 0 0 2.32-6.6l-.443-3.077c-.075-.372-.151-.762-.232-1.177-1.164-6.014-3.113-16.073-14.597-18.811l-10.227-.749-1.098-.131c-6.291-.12-12.389-.557-17.827-4.44l-.22-.088-.194-.214c-2.145-1.611-4.02-3.643-5.718-6.195l-5.098 2.19a26.103 26.103 0 0 0-3.477 2.294l-2.5 2.271c-.317.333-.6.648-.864.96l-3.088 4.828a23.76 23.76 0 0 0-.837 2.01l-.991 5.033-.841.066-2.89 2.175c.49 6.9 2.02 13.46 4.544 19.504l.458 1.096-2.24-.005zm33.985 44.312c-1.498 0-3.087-.157-4.713-.533-6.203-1.436-18.423-7.723-24.873-22.178-2.784-6.238-6.012-21.58-6.149-22.23l-.199-.953 1.83.004c-2.376-6.025-3.803-12.525-4.246-19.34l-.028-.424 3.94-2.965.106-.009.804-4.034c.278-.772.594-1.53.937-2.25l.048-.087 3.202-4.995c.3-.357.621-.715.982-1.094l.041-.04 2.586-2.346a27.754 27.754 0 0 1 3.746-2.471l.07-.034 6.08-2.612.523.262.118.185c1.705 2.679 3.588 4.768 5.757 6.386l.254.184c5.107 3.683 10.745 4.08 17.053 4.2l.079.006 1.1.132 10.378.768c12.53 2.952 14.687 14.082 15.845 20.062.08.416.156.807.23 1.17l.011.06.493 3.432-.045.162a60.692 60.692 0 0 1-1.983 5.85l1.949.004-.265.99c-.032.12-3.208 11.988-5.5 18.523-4.96 14.145-16.17 21.013-19.852 23.27a22.78 22.78 0 0 0-.911.573c-1.579 1.096-5.122 2.372-9.398 2.372z" fill="#333"/><path d="M133.968 71.345c-1.895 7.535-6.552 11.198-14.237 11.198-7.856 0-14.287-6.385-14.26-14.238 0-.344.011-2.084.021-3.63a3.813 3.813 0 0 1 2.436-3.532c3.264-1.268 9.237-2.937 14.146-3.325 3.437-.272 11.643-.284 13.075 1.713 1.198 1.67.472 5.242-1.18 11.814M79.691 82.543c-7.685 0-12.342-3.663-14.237-11.198-1.653-6.572-2.38-10.144-1.18-11.814 1.431-1.997 9.637-1.985 13.074-1.713 4.909.388 10.882 2.057 14.147 3.325a3.814 3.814 0 0 1 2.435 3.533l.022 3.629c.026 7.853-6.405 14.238-14.261 14.238m62.171-24.337a27.844 27.844 0 0 0-1.587-2.572c-.568-.807-1.542-1.044-2.53-1.052-4.077-.034-18.62-2.617-29.911 2.934-2.532 1.245-5.285 1.978-8.106 1.978-2.822 0-5.575-.733-8.107-1.978-11.292-5.551-25.835-2.968-29.912-2.934-.987.008-1.96.245-2.53 1.052a27.844 27.844 0 0 0-1.586 2.572c-1.008 1.822.337 3.037.963 3.918 1.01 1.416 2.483 6.507 3.413 10.202 2.42 9.628 8.97 13.69 17.443 13.69 9.67 0 17.599-7.894 17.599-17.598a2.316 2.316 0 0 1 2.313-2.35h.806a2.316 2.316 0 0 1 2.314 2.35c0 9.704 7.928 17.599 17.598 17.599 8.474 0 15.023-4.063 17.444-13.691.93-3.695 2.404-8.786 3.413-10.202.626-.88 1.97-2.096.963-3.918" fill="#676868"/><path d="M66.087 71.254c-1.53-6.084-2.887-9.43-1.778-10.977.858-1.196 3.492-2.29 6.707-2.367-3.628-.09-7.371.896-8.456 2.408-1.109 1.546-.437 4.852 1.093 10.936 1.754 6.974 5.378 11.117 12.492 11.117.342 0 1.636.026 1.972 0-6.27-.434-10.396-4.62-12.03-11.117M89.188 57.516c2.532 1.246 5.284 1.978 8.106 1.978.408 0 .813-.02 1.217-.05-2.394-.176-4.722-.862-6.889-1.928-6.266-3.08-13.53-3.655-19.454-3.552 5.409.096 11.589.882 17.02 3.552M97.697 66.067h-.806c-1.292 0-2.127 3.571-2.127 3.571-.548 9.778-7.508 15.754-16.66 16.339.433.022.867.04 1.31.04 9.67 0 17.598-7.895 17.598-17.599a2.312 2.312 0 0 1 1.5-2.195 2.287 2.287 0 0 0-.815-.156M141.863 58.206a27.739 27.739 0 0 0-1.587-2.572c-.568-.807-1.543-1.044-2.53-1.052-2.116-.018-7.054-.72-12.891-.618 4.752.084 8.642.603 10.457.618.987.008 1.961.245 2.53 1.052a27.739 27.739 0 0 1 1.587 2.572c1.007 1.822-.337 3.038-.964 3.918-1.009 1.416-2.483 6.506-3.412 10.202-2.295 9.125-8.3 13.244-16.135 13.65.373.024.747.041 1.125.041 8.474 0 15.023-4.063 17.444-13.691.93-3.696 2.404-8.786 3.412-10.202.627-.88 1.972-2.096.964-3.918" fill="#515151"/><path d="M73.79 58.476c-3.936 0-8.116.457-8.874 1.514-1.033 1.44-.111 5.535 1.304 11.162 1.819 7.233 6.1 10.601 13.472 10.601 3.61 0 7.006-1.412 9.561-3.976 2.534-2.542 3.922-5.905 3.91-9.47 0-.344-.012-2.082-.022-3.626a3.011 3.011 0 0 0-1.932-2.802c-3.49-1.356-9.394-2.916-13.923-3.274a45.19 45.19 0 0 0-3.495-.13zm5.902 24.856c-8.099 0-13.007-3.858-15.003-11.795-1.764-7.015-2.443-10.532-1.056-12.466 2.1-2.929 13.661-2.049 13.779-2.04 4.897.388 10.881 2.022 14.37 3.377a4.58 4.58 0 0 1 2.938 4.263l.022 3.632c.013 3.986-1.539 7.747-4.37 10.589a14.98 14.98 0 0 1-10.68 4.44zm54.276-11.987h.004-.004zm-8.336-12.87c-1.226 0-2.428.045-3.496.13-4.528.358-10.431 1.918-13.923 3.274a3.012 3.012 0 0 0-1.931 2.802c-.01 1.544-.021 3.283-.022 3.626-.012 3.565 1.376 6.928 3.91 9.47a13.413 13.413 0 0 0 9.56 3.976c7.373 0 11.654-3.368 13.473-10.6 1.416-5.628 2.337-9.723 1.304-11.163-.758-1.057-4.939-1.514-8.875-1.514zm-5.901 24.857a14.98 14.98 0 0 1-10.68-4.44c-2.831-2.842-4.383-6.603-4.37-10.59.002-.344.012-2.085.023-3.631a4.58 4.58 0 0 1 2.938-4.263c3.488-1.355 9.472-2.99 14.37-3.377.117-.009 11.678-.888 13.778 2.04 1.387 1.934.708 5.45-1.056 12.466-1.997 7.937-6.904 11.795-15.003 11.795zM99.325 65.278h.807c.836 0 1.62.328 2.208.925.588.597.906 1.388.894 2.226 0 9.258 7.54 16.799 16.81 16.799 8.756 0 14.524-4.528 16.678-13.094.502-1.997 2.24-8.65 3.535-10.468.093-.131.201-.27.315-.415.734-.937 1.173-1.628.6-2.663a27.1 27.1 0 0 0-1.54-2.5c-.336-.475-.955-.71-1.892-.717-.75-.007-1.8-.093-3.13-.201-6.056-.495-17.329-1.418-26.427 3.054-5.556 2.733-11.35 2.733-16.91 0-9.096-4.472-20.369-3.55-26.426-3.054-1.33.108-2.38.194-3.13.2-.938.009-1.557.243-1.891.718a27.03 27.03 0 0 0-1.542 2.5c-.572 1.035-.133 1.726.601 2.663.114.146.222.284.315.415 1.294 1.817 3.033 8.471 3.535 10.468 2.154 8.566 7.921 13.094 16.678 13.094 9.27 0 16.81-7.541 16.81-16.81a3.082 3.082 0 0 1 .895-2.216 3.079 3.079 0 0 1 2.207-.924zm20.718 21.528c-10.139 0-18.387-8.249-18.387-18.388a1.526 1.526 0 0 0-1.524-1.562h-.807c-.41 0-.795.162-1.084.454a1.52 1.52 0 0 0-.44 1.096c0 10.151-8.249 18.4-18.388 18.4-9.561 0-15.858-4.94-18.208-14.288-1.257-4.994-2.548-8.894-3.29-9.937-.08-.112-.174-.231-.272-.356-.696-.888-1.861-2.374-.74-4.401.393-.71.933-1.651 1.633-2.644.64-.909 1.705-1.375 3.168-1.387.692-.006 1.717-.09 3.014-.196 6.207-.508 17.763-1.454 27.252 3.211 5.12 2.518 10.397 2.517 15.516 0 9.49-4.665 21.045-3.72 27.252-3.211 1.298.106 2.322.19 3.015.196 1.462.012 2.528.478 3.168 1.386a28.573 28.573 0 0 1 1.632 2.645c1.122 2.027-.043 3.513-.739 4.4-.098.126-.191.245-.272.357-.742 1.043-2.034 4.943-3.29 9.937-2.35 9.348-8.647 14.288-18.209 14.288z" fill="#282733"/><path d="M123.464 68.81a4.36 4.36 0 1 1-8.72 0 4.36 4.36 0 0 1 8.72 0" fill="#333"/><path d="M121.746 66.949a1.488 1.488 0 1 1-2.977 0 1.488 1.488 0 0 1 2.977 0" fill="#E5E5E4"/><path d="M86.551 68.81a4.36 4.36 0 1 1-8.72 0 4.36 4.36 0 0 1 8.72 0" fill="#333"/><path d="M84.833 66.949a1.488 1.488 0 1 1-2.977 0 1.488 1.488 0 0 1 2.977 0" fill="#E5E5E4"/><path d="M79.174 78.985a.79.79 0 0 1-.11-1.57 25.837 25.837 0 0 1 6.223-.142.789.789 0 1 1-.158 1.57 24.333 24.333 0 0 0-5.843.134.773.773 0 0 1-.112.008M117.369 78.985a.79.79 0 0 1-.11-1.57 25.88 25.88 0 0 1 6.222-.142.789.789 0 1 1-.159 1.57 24.306 24.306 0 0 0-5.841.134.773.773 0 0 1-.112.008" fill="#FCBC85"/><path d="M144.567 49.893c-2.904-28.809-18.578-40.506-27.9-44.952l.03-.015c-.503-.232-1.011-.451-1.523-.662-2.244-.963-3.98-1.467-4.857-1.684-.178-.045-.35-.079-.527-.12a40.1 40.1 0 0 0-17.5-.585c-.138.026-.276.051-.413.078l-.238.049c-9.737 1.94-16.34 7.024-19.193 9.502-4.589 3.986-7.89 8.332-10.4 12.846a53.16 53.16 0 0 0-4.532 10.38c-.2.582-.394 1.163-.582 1.744l.073-.038a56.352 56.352 0 0 0-2.076 15.224c0 3.188.262 6.307.764 9.33a3.338 3.338 0 0 1 2.002-.04c-.448-.726-.723-1.62-.101-2.744.33-.595.874-1.56 1.587-2.572.568-.807 1.542-1.044 2.53-1.052.85-.007 2.163-.126 3.801-.258l.274-.93c2.18-11.839 10.397-17.211 18.114-19.74 8.961 14.088 21.771 10.159 32.597 11.565 15.233 1.978 16.797 15.26 17.994 21.093 2.168 10.556.341 25.974-5.484 42.419-.243.686.688 1.156 1.095.552 12.76-18.922 17.024-34.01 14.465-59.39" fill="#9C6344"/><path d="M83.899 33.655c-9.382-1.143-24.694 11.397-25.617 23.358.258-.426.559-.896.898-1.379.569-.807 1.543-1.044 2.53-1.052.851-.007 2.164-.126 3.802-.258l.274-.93c1.418-7.703 5.393-12.666 10.122-15.892-.584-.61 8.564-3.13 7.99-3.847M144.567 49.893c-2.904-28.809-18.578-40.506-27.9-44.952l.03-.015c-.503-.232-1.011-.451-1.522-.662-2.245-.963-3.98-1.467-4.858-1.684-.178-.045-.351-.079-.527-.12a40.095 40.095 0 0 0-15.1-.96c.63.063 1.259.135 1.884.227.18.022.355.038.536.062.896.123 2.676.438 5.01 1.154.531.156 1.06.32 1.584.496l-.027.018c9.745 3.423 26.58 13.375 32.552 41.707 4.426 20.998 3.27 35.271-3.556 51.288a124.746 124.746 0 0 1-3.665 12.279c-.244.686.687 1.156 1.094.552 12.76-18.922 17.023-34.01 14.465-59.39" fill="#7C442D"/><g transform="translate(54.05 .062)"><mask id="b" fill="#fff"><use xlink:href="#a"/></mask><path d="M29.848 32.803a.79.79 0 0 1 .666.366c6.683 10.504 15.623 10.65 24.268 10.791 2.578.043 5.243.086 7.766.414 14.83 1.925 17.172 14.027 18.431 20.53.082.422.159.819.234 1.187 2.195 10.688.346 25.778-5.071 41.573C88.716 88.656 92.15 73.905 89.731 49.91 86.854 21.37 71.296 9.892 62.277 5.59a.777.777 0 0 1-.159-.1c-.39-.177-.816-.361-1.296-.56-2.256-.968-3.941-1.447-4.746-1.647-.094-.023-.187-.043-.279-.064l-.24-.054a39.462 39.462 0 0 0-17.172-.576c-.14.025-.276.05-.41.076l-.228.047C29.06 4.443 22.71 8.739 18.913 12.037c-4.168 3.62-7.514 7.754-10.228 12.635a52.453 52.453 0 0 0-4.47 10.234 96.3 96.3 0 0 0-.474 1.414.789.789 0 0 1-.027.267 55.603 55.603 0 0 0-2.047 15.011c0 2.814.21 5.632.625 8.388a3.58 3.58 0 0 1 .146-.012c-.135-.737.004-1.469.415-2.212.393-.71.933-1.653 1.632-2.644.64-.909 1.705-1.375 3.168-1.388.694-.005 1.724-.09 3.027-.196l.178-.015.11-.37c1.86-10.033 8.13-16.864 18.635-20.306a.779.779 0 0 1 .245-.04m45.697 77.484c-.215 0-.433-.05-.64-.154a1.394 1.394 0 0 1-.693-1.728c5.665-15.99 7.653-31.297 5.455-41.997-.076-.373-.154-.776-.237-1.205-1.183-6.11-3.385-17.485-17.086-19.265-2.433-.316-4.937-.356-7.587-.4-8.922-.146-18.142-.297-25.237-11.003-9.583 3.311-15.304 9.68-17.008 18.94a.99.99 0 0 1-.02.08l-.274.93a.789.789 0 0 1-.693.563l-.716.059c-1.336.109-2.39.195-3.143.202-.938.007-1.556.242-1.891.717a26.888 26.888 0 0 0-1.541 2.5c-.376.68-.353 1.244.082 1.947a.789.789 0 0 1-.895 1.172 2.546 2.546 0 0 0-1.53.032.788.788 0 0 1-1.027-.62 57.962 57.962 0 0 1-.775-9.459c0-5.14.676-10.216 2.01-15.091a.786.786 0 0 1 .032-.338c.19-.586.385-1.172.586-1.757A53.939 53.939 0 0 1 7.31 23.896c2.8-5.036 6.26-9.307 10.568-13.05 3.94-3.424 10.533-7.883 19.557-9.68l.237-.05.427-.08a41.107 41.107 0 0 1 17.837.597l.2.045c.105.023.212.047.32.073.851.212 2.63.717 4.979 1.725.572.237 1.08.458 1.541.67.066.031.127.07.18.116 9.346 4.518 25.212 16.39 28.145 45.49 2.478 24.575-1.342 40.253-14.595 59.91a1.397 1.397 0 0 1-1.161.625" fill="#333" mask="url(#b)"/></g><path d="M100.277 103.981c-6.79 0-11.928-4.9-12.004-4.974a.79.79 0 0 1 1.102-1.13c.437.425 10.589 10.046 20.884 0a.79.79 0 0 1 1.102 1.13c-3.824 3.73-7.664 4.974-11.084 4.974M100.065 91.72c-3.345 0-5.839-2.532-5.944-2.64-.283-.292-.243-.731.088-.98.331-.249.829-.214 1.112.077.02.022 2.136 2.154 4.744 2.154h.063c1.48-.02 2.883-.74 4.17-2.14.275-.298.772-.344 1.11-.103.339.242.39.68.117.977-1.6 1.74-3.41 2.632-5.385 2.655h-.075" fill="#333"/><path d="M100.337 110.178a18.85 18.85 0 0 1-3.262-.288.79.79 0 0 1 .273-1.555c1.685.296 3.359.344 4.976.142a.79.79 0 0 1 .195 1.566c-.719.09-1.448.135-2.182.135M99.865 133.89c-.804 0-1.617-.069-2.433-.206a.79.79 0 0 1 .263-1.556 12.62 12.62 0 0 0 3.609.1.79.79 0 0 1 .188 1.566c-.536.064-1.079.097-1.627.097" fill="#FCBC85"/></g></svg>