<svg width="78" height="80" viewBox="0 0 78 80" xmlns="http://www.w3.org/2000/svg" xmlns:xlink="http://www.w3.org/1999/xlink"><title>305E940D-6702-414F-84DC-AC8FED71F34F</title><defs><path id="a" d="M.04.148h40.853v48.869H.04V.147z"/></defs><g fill="none" fill-rule="evenodd"><path d="M74.761 44.547c0 19.382-15.925 35.095-35.568 35.095-19.644 0-35.569-15.713-35.569-35.095 0-19.381 15.925-35.094 35.569-35.094 19.643 0 35.568 15.713 35.568 35.094" fill="#FFC878"/><path d="M39.193 9.804c-19.42 0-35.218 15.586-35.218 34.743 0 19.158 15.799 34.744 35.218 34.744 19.419 0 35.217-15.586 35.217-34.744 0-19.157-15.798-34.743-35.217-34.743m0 70.188c-19.806 0-35.92-15.9-35.92-35.445 0-19.544 16.114-35.444 35.92-35.444s35.919 15.9 35.919 35.444c0 19.545-16.113 35.445-35.92 35.445" fill="#333"/><path fill="#282733" d="M62.21 17.834l-.496-.496L73.997 5.056l.496.496z"/><path fill="#282733" d="M74.595 13.506h-.701V5.655h-7.5v-.702h8.201zM4.378 75.666l-.496-.495 8.046-8.046.495.496z"/><path fill="#282733" d="M10.918 77.184h-.702v-7.852h-7.5v-.701h8.202z"/><path fill="#282733" d="M8.51 79.592h-.702V71.74h-7.5v-.701H8.51zM15.85 17.834L3.566 5.552l.496-.496 12.282 12.282z"/><path fill="#282733" d="M4.165 13.506h-.701V4.953h8.202v.702h-7.5zM73.681 75.666l-8.045-8.045.495-.496 8.046 8.046z"/><path fill="#282733" d="M67.843 77.184h-.702V68.63h8.202v.701h-7.5z"/><path fill="#282733" d="M70.25 79.592h-.7v-8.553h8.201v.701h-7.5z"/><path d="M65.955 67.105v-2.02c0-5.478-4.461-9.934-9.945-9.934h-9.859c0-.31.002-.514.004-.716.002-.28.004-.558.004-1.117l.001-1.113v-.085c2.185-1.498 5.716-4.455 7.477-9.475.639-1.823 1.433-4.579 1.94-6.392l.061-.074c-.258 3.74-1.187 8.001-2.738 12.38a.63.63 0 0 0 .592.837.62.62 0 0 0 .516-.28c5.89-8.736 7.588-15.703 6.487-26.626-.245-2.435-.697-4.595-1.292-6.516a35.346 35.346 0 0 0-19.868-6.168 35.357 35.357 0 0 0-17.9 4.954c-.11.302-.214.606-.31.912-.09.26-.177.52-.261.781-.016.05-.021.101-.015.15a25.433 25.433 0 0 0-.893 6.708c0 1.32.103 2.64.302 3.931-.032.017-.064.033-.095.051a1.995 1.995 0 0 0-.904 2.33c.19.608.545 1.279.956 2.055.625 1.18 1.333 2.518 1.618 3.969.151.768.349 1.355.57 1.803-.211.247-.34.567-.34.917 0 .78.634 1.414 1.413 1.414.679 0 1.246-.48 1.382-1.119.147-.067.292-.155.434-.263.519 2.071 1.178 4.432 1.79 5.803a18.624 18.624 0 0 0 2.18 3.688 2.52 2.52 0 0 0-.329 1.133c-.05.931.09 1.906.717 2.523.244.239.546.498.882.769-1.048.162-1.781 1.557-1.437 2.836h-4.567c-5.487 0-9.95 4.456-9.95 9.934v3.943a35.346 35.346 0 0 0 24.791 10.26 35.346 35.346 0 0 0 26.586-12.183" fill="#EBAF6C"/><path d="M30.065 56.203c-1.426-.636-2.825 1.176-2.184 2.9.114.306.288.594.542.843 1.516 1.493 5.306 3.73 5.4 5.037.095 1.305.948-3.98.095-5.223-.419-.611-1.31-2.42-3.853-3.557" fill="#9C6344"/><path d="M29.47 56.422c-.366 0-.647.201-.806.35-.455.427-.792 1.3-.454 2.208.103.277.257.518.46.717.504.497 1.275 1.084 2.092 1.705 1.244.947 2.438 1.856 3.03 2.671.174-1.274.293-3.45-.163-4.115a9.382 9.382 0 0 1-.18-.28c-.485-.768-1.386-2.198-3.527-3.155a1.1 1.1 0 0 0-.452-.1zm4.408 9.117a.362.362 0 0 1-.1-.013c-.272-.077-.294-.375-.304-.518-.05-.699-1.762-2.001-3.137-3.047-.835-.636-1.623-1.236-2.16-1.765a2.647 2.647 0 0 1-.624-.971c-.452-1.214-.009-2.364.631-2.965.58-.543 1.336-.684 2.024-.377 2.335 1.043 3.347 2.65 3.834 3.422.063.1.117.186.166.257.82 1.195.284 5.39-.02 5.812a.384.384 0 0 1-.31.165z" fill="#333"/><path d="M37.813 57.322c1.426-.636 2.825 1.176 2.184 2.9a2.288 2.288 0 0 1-.542.844c-1.516 1.492-5.306 3.73-5.4 5.036-.095 1.306-.948-3.98-.095-5.223.419-.61 1.31-2.42 3.853-3.557" fill="#9C6344"/><path d="M37.956 57.643c-2.141.956-3.043 2.387-3.527 3.155a9.258 9.258 0 0 1-.18.28c-.456.664-.336 2.84-.162 4.114.59-.815 1.785-1.724 3.029-2.67.816-.622 1.588-1.209 2.093-1.706.202-.199.356-.44.46-.717.337-.907 0-1.78-.455-2.208-.219-.205-.672-.51-1.258-.248zM34 66.658a.384.384 0 0 1-.31-.165c-.304-.423-.84-4.616-.02-5.812.048-.07.103-.157.166-.257.486-.772 1.499-2.378 3.834-3.422.688-.307 1.444-.166 2.024.377.64.601 1.083 1.75.631 2.965-.139.374-.349.7-.624.971-.537.53-1.326 1.13-2.16 1.765-1.375 1.046-3.086 2.348-3.137 3.047-.01.143-.032.44-.305.518a.362.362 0 0 1-.099.013z" fill="#333"/><path d="M30.037 52.052c-1.596-.626-2.915 1.71-1.9 3.38.084.137.179.274.286.41 2.54 3.24 5.495 4.042 5.78 5.348.281 1.294.568-4.29-.285-5.534-.434-.634-.75-2.375-3.88-3.604" fill="#9C6344"/><path d="M29.504 52.298c-.424 0-.73.274-.893.469-.486.577-.701 1.616-.174 2.483.078.127.166.254.262.377 1.325 1.69 2.744 2.685 3.883 3.484.644.451 1.178.825 1.531 1.22.07-1.342-.001-3.773-.484-4.476-.092-.134-.171-.295-.264-.48-.378-.762-1.012-2.037-3.455-2.996a1.107 1.107 0 0 0-.406-.081m4.785 9.436a.366.366 0 0 1-.067-.006c-.272-.05-.335-.34-.362-.463-.103-.474-.8-.962-1.68-1.58-1.116-.782-2.643-1.853-4.033-3.626a4.62 4.62 0 0 1-.309-.445c-.7-1.15-.41-2.53.236-3.299.558-.664 1.34-.885 2.092-.59 2.695 1.059 3.404 2.485 3.828 3.338.08.162.15.302.213.395.77 1.122.748 5.564.405 6.094a.384.384 0 0 1-.323.182" fill="#333"/><path d="M37.84 53.171c1.597-.626 2.916 1.71 1.9 3.38a4.25 4.25 0 0 1-.285.411c-2.54 3.24-5.495 4.041-5.78 5.347-.281 1.294-.568-4.29.285-5.534.434-.634.75-2.375 3.88-3.604" fill="#9C6344"/><path d="M38.374 53.417c-.125 0-.26.024-.406.08-2.443.96-3.077 2.235-3.455 2.997-.093.186-.172.346-.264.48-.483.704-.554 3.134-.484 4.476.353-.394.887-.769 1.53-1.22 1.14-.799 2.559-1.793 3.884-3.484a3.85 3.85 0 0 0 .262-.377c.527-.867.312-1.906-.174-2.483-.163-.195-.47-.469-.893-.469m-4.785 9.436a.384.384 0 0 1-.323-.182c-.343-.53-.365-4.972.405-6.094a3.68 3.68 0 0 0 .213-.395c.424-.853 1.133-2.28 3.828-3.337.751-.295 1.534-.075 2.092.59.647.768.935 2.149.236 3.299-.092.15-.196.3-.309.444-1.39 1.773-2.917 2.845-4.033 3.626-.88.618-1.577 1.106-1.68 1.58-.027.124-.09.414-.362.463a.366.366 0 0 1-.067.006" fill="#333"/><path d="M30.116 46.812c-1.103-.578-2.33.362-2.41 1.86-.05.932.09 1.906.717 2.523 1.516 1.492 5.306 3.73 5.4 5.036.095 1.306.948-3.98.095-5.223-.416-.607-1.298-2.884-3.802-4.196" fill="#9C6344"/><path d="M29.437 46.991c-.185 0-.369.05-.543.148-.48.273-.801.868-.838 1.553-.056 1.039.15 1.797.613 2.253.505.497 1.276 1.084 2.093 1.706 1.242.945 2.434 1.853 3.026 2.667.057-.402.108-.9.136-1.43.067-1.312-.043-2.314-.295-2.681a6.507 6.507 0 0 1-.285-.488c-.496-.896-1.419-2.563-3.39-3.597a1.108 1.108 0 0 0-.517-.131m4.44 9.797a.36.36 0 0 1-.098-.014c-.273-.077-.295-.375-.305-.518-.051-.699-1.762-2-3.137-3.047-.835-.636-1.623-1.236-2.16-1.764-.613-.603-.89-1.542-.822-2.791.051-.934.497-1.728 1.193-2.124a1.775 1.775 0 0 1 1.73-.029c2.159 1.131 3.148 2.919 3.68 3.879.1.181.186.338.25.43.82 1.196.284 5.39-.02 5.812a.384.384 0 0 1-.31.166" fill="#333"/><path d="M37.8 48.078c1.094-.548 2.316.392 2.377 1.872.036.867-.117 1.768-.722 2.364-1.516 1.492-5.732 3.887-5.827 5.193-.095 1.306-.521-4.136.332-5.38.418-.61 1.307-2.783 3.84-4.05" fill="#9C6344"/><path d="M37.956 48.391c-2.023 1.011-2.947 2.627-3.443 3.496a6.706 6.706 0 0 1-.264.439c-.44.642-.488 2.765-.44 4.112.605-.707 1.69-1.529 3.088-2.55.92-.673 1.788-1.308 2.312-1.824.449-.442.657-1.148.618-2.1-.028-.666-.339-1.254-.811-1.532a1.077 1.077 0 0 0-1.06-.04zm-4.507 9.72l-.154-.205c-.253-.353-.42-4.816.376-5.977.06-.088.14-.228.233-.39.533-.933 1.526-2.67 3.738-3.775a1.781 1.781 0 0 1 1.73.064c.686.404 1.117 1.192 1.155 2.108.048 1.157-.23 2.042-.826 2.628-.56.552-1.45 1.202-2.39 1.89-1.386 1.013-3.284 2.402-3.333 3.078-.013.175-.032.44-.293.513l-.236.067z" fill="#333"/><path d="M30.037 42.607c-1.596-.626-2.915 1.71-1.9 3.38.084.137.179.274.286.411 2.54 3.24 5.495 4.041 5.78 5.347.281 1.294.568-4.29-.285-5.534-.434-.634-.75-2.375-3.88-3.604" fill="#9C6344"/><path d="M29.504 42.853c-.424 0-.73.274-.893.469-.486.577-.701 1.616-.174 2.483.078.127.166.254.262.377 1.325 1.69 2.744 2.685 3.883 3.484.644.451 1.178.826 1.531 1.22.07-1.342-.001-3.772-.484-4.476-.092-.134-.171-.294-.264-.48-.378-.762-1.012-2.037-3.455-2.996a1.107 1.107 0 0 0-.406-.081m4.785 9.436a.366.366 0 0 1-.067-.006c-.272-.05-.335-.34-.362-.463-.103-.474-.8-.962-1.68-1.58-1.116-.781-2.643-1.853-4.033-3.626a4.594 4.594 0 0 1-.309-.444c-.7-1.15-.41-2.53.236-3.3.558-.663 1.34-.884 2.092-.589 2.695 1.058 3.404 2.485 3.828 3.337.08.162.15.302.213.395.77 1.122.748 5.564.405 6.094a.384.384 0 0 1-.323.182" fill="#333"/><path d="M37.84 43.727c1.597-.627 2.916 1.709 1.9 3.38a4.25 4.25 0 0 1-.285.41c-2.54 3.24-5.495 4.042-5.78 5.347-.281 1.294-.568-4.29.285-5.533.434-.634.75-2.376 3.88-3.604" fill="#9C6344"/><path d="M37.969 44.053c-2.444.959-3.078 2.234-3.456 2.996-.093.186-.172.346-.264.48-.483.704-.554 3.134-.484 4.476.353-.394.887-.768 1.53-1.22 1.14-.799 2.559-1.793 3.884-3.484.096-.123.184-.25.262-.377.527-.867.312-1.906-.174-2.483-.212-.252-.663-.638-1.298-.388zm-4.38 9.355a.384.384 0 0 1-.323-.182c-.343-.53-.365-4.972.404-6.094.064-.093.134-.233.215-.395.423-.852 1.132-2.28 3.827-3.337.751-.295 1.533-.074 2.092.59.647.768.935 2.149.236 3.299-.092.15-.196.3-.309.444-1.39 1.774-2.917 2.845-4.033 3.627-.88.617-1.577 1.105-1.68 1.579-.027.124-.09.414-.362.463a.366.366 0 0 1-.067.006z" fill="#333"/><path d="M64.377 64.734a9.56 9.56 0 0 0-9.594-9.583H23.3a9.564 9.564 0 0 0-9.599 9.583v3.978l-.001.305c6.462 6.553 15.495 10.625 25.493 10.625 9.808 0 18.689-3.918 25.123-10.253l.06-.123v-4.532z" fill="#3BD2F4"/><path d="M54.783 55.151H23.3a9.58 9.58 0 0 0-7.69 3.83 9.6 9.6 0 0 1 4.973-1.375h31.483a9.56 9.56 0 0 1 9.593 9.582v4.533l-.025.053c.934-.751 1.83-1.546 2.682-2.385l.06-.122v-4.533a9.56 9.56 0 0 0-9.593-9.583" fill="#31C0EC"/><path d="M14.051 68.873c6.679 6.72 15.602 10.418 25.142 10.418 9.372 0 18.189-3.59 24.833-10.109v-4.448c0-5.09-4.146-9.232-9.243-9.232H23.3c-5.1 0-9.248 4.141-9.248 9.232v4.14zm25.142 11.12c-9.778 0-18.92-3.81-25.743-10.73l-.102-.103.003-.45v-3.976c0-5.477 4.463-9.934 9.95-9.934h31.482c5.483 0 9.944 4.457 9.944 9.934v4.614l-.123.25-.042.04c-6.78 6.677-15.79 10.354-25.37 10.354z" fill="#333"/><path d="M30.87 55.151c.046 4.966 3.56 8.976 7.89 8.976s7.844-4.01 7.89-8.976H30.87z" fill="#FFF"/><path d="M45.54 55.151c-.337 4.654-3.725 8.311-7.86 8.311a6.997 6.997 0 0 1-3.162-.76c1.225.9 2.68 1.425 4.242 1.425 4.33 0 7.844-4.01 7.89-8.976h-1.11z" fill="#F3F3F3"/><path d="M31.23 55.502c.203 4.594 3.52 8.274 7.53 8.274 4.011 0 7.327-3.68 7.53-8.274H31.23zm7.53 8.975c-4.496 0-8.193-4.182-8.241-9.323l-.004-.354h16.49l-.004.354c-.048 5.14-3.745 9.323-8.24 9.323z" fill="#282733"/><path d="M44.584 50.74c0 1.114-.003 1.114-.003 2.228 0 1.113-.009 1.113-.009 2.227 0 .783-.14 1.542-.425 2.224-.294.706-.763 1.318-1.296 1.85a5.767 5.767 0 0 1-1.878 1.231 5.658 5.658 0 0 1-4.39-.01c-.705-.294-1.36-.677-1.892-1.21a5.817 5.817 0 0 1-1.262-1.871 5.737 5.737 0 0 1-.436-2.214c0-1.142-.055-1.142-.055-2.285 0-1.142.068-1.142.068-2.285" fill="#FED5AA"/><path d="M33.068 53.418s4.867 2.566 11.573 1.973v-3.236H33.068v1.263z" fill="#FCC08D"/><path d="M38.776 61.289c-.788 0-1.571-.16-2.328-.476-.83-.346-1.486-.766-2.005-1.285a6.135 6.135 0 0 1-1.338-1.984 6.072 6.072 0 0 1-.463-2.349c0-.563-.013-.836-.027-1.126-.013-.285-.028-.58-.028-1.159 0-.581.018-.877.035-1.163.017-.288.033-.56.033-1.122h.702c0 .582-.018.878-.035 1.164-.017.288-.033.56-.033 1.121 0 .563.013.836.027 1.126.013.285.028.58.028 1.159 0 .73.137 1.429.408 2.079.271.65.67 1.242 1.187 1.758.453.453 1.035.824 1.78 1.134.68.284 1.352.421 2.057.421.715 0 1.408-.138 2.062-.41a5.426 5.426 0 0 0 1.765-1.156c.572-.571.971-1.14 1.22-1.737a5.402 5.402 0 0 0 .399-2.089c0-.558.002-.837.004-1.116.002-.278.004-.556.004-1.111 0-.558.001-.836.002-1.115l.001-1.113h.701l-.001 1.115-.001 1.113c0 .558-.002.837-.005 1.116-.002.278-.004.556-.004 1.111 0 .845-.152 1.639-.452 2.359-.285.684-.734 1.326-1.372 1.963a6.126 6.126 0 0 1-1.991 1.307 6.032 6.032 0 0 1-2.332.465" fill="#333"/><path fill="#282733" d="M40.957 74.965l-4.029-5.687-3.306 2.339-.405-.573 3.879-2.743 3.91 5.52 3.365-3.98.536.453z"/><path d="M33.42 72.35a1.017 1.017 0 1 1 0-2.035c.549 0 .998.425 1.023.968a1.023 1.023 0 0 1-1.023 1.067" fill="#FFF"/><path d="M33.421 69.965l-.064.001a1.368 1.368 0 0 0 .126 2.733 1.368 1.368 0 1 0-.062-2.735m0 .702a.67.67 0 0 1 .672.633.674.674 0 0 1-.673.7.668.668 0 0 1 .001-1.333" fill="#282733"/><path d="M37.012 69.81a1.02 1.02 0 0 1-1.02-.973 1.024 1.024 0 0 1 1.02-1.07c.543 0 .99.429 1.015.976a1.02 1.02 0 0 1-1.015 1.067" fill="#FFF"/><path d="M37.012 67.416c-.021 0-.043 0-.064.002a1.374 1.374 0 0 0-1.307 1.435 1.37 1.37 0 1 0 2.736-.127 1.368 1.368 0 0 0-1.365-1.31m0 .702a.67.67 0 0 1 .664.64.667.667 0 1 1-1.334.063.674.674 0 0 1 .67-.703" fill="#282733"/><path d="M40.982 75.417c-.543 0-.988-.43-1.014-.977a1.022 1.022 0 0 1 1.013-1.07 1.024 1.024 0 1 1 0 2.048" fill="#FFF"/><path d="M40.981 73.019l-.063.001a1.372 1.372 0 0 0-1.3 1.436 1.368 1.368 0 0 0 1.427 1.31 1.375 1.375 0 0 0-.064-2.747m0 .701a.674.674 0 0 1 .001 1.346.67.67 0 0 1-.663-.642.669.669 0 0 1 .662-.704" fill="#282733"/><path d="M44.638 71.081c-.545 0-.991-.424-1.017-.966a1.022 1.022 0 0 1 2.04-.094 1.023 1.023 0 0 1-1.024 1.06" fill="#FFF"/><path d="M44.64 68.696l-.064.001a1.372 1.372 0 0 0-1.305 1.435 1.364 1.364 0 0 0 1.431 1.299 1.37 1.37 0 0 0 1.31-1.427 1.371 1.371 0 0 0-1.373-1.308m0 .701c.355 0 .655.282.672.64a.667.667 0 0 1-.673.694.663.663 0 0 1-.666-.632.67.67 0 0 1 .667-.702" fill="#282733"/><path d="M24.38 37.859l.002.008c0-.003 0-.006-.002-.008" fill="#FFE2B7"/><path fill="#282733" d="M24.04 38.012l.232-.078-.234.07.684-.227-.098.035.098-.032-.069.025.07-.023-.195.066.077-.026z"/><path d="M24.706 36.788c-1.236 1.992-3.063 1.966-3.756-1.56-.481-2.448-2.118-4.568-2.584-6.06-.499-1.598 1.462-2.912 2.68-1.61l3.66 9.23z" fill="#FECE9C"/><path d="M19.898 27.38c-.226 0-.437.068-.61.169-.446.26-.801.829-.587 1.514.17.546.511 1.19.906 1.936.648 1.223 1.382 2.61 1.687 4.162.3 1.53.848 2.477 1.5 2.596.474.087 1.034-.288 1.519-1.008l-3.567-8.997c-.272-.269-.57-.371-.848-.371m3.037 11.09c-.09 0-.178-.008-.267-.024-.683-.125-1.595-.772-2.062-3.15-.285-1.452-.993-2.79-1.618-3.97-.412-.776-.767-1.447-.957-2.055a1.994 1.994 0 0 1 .904-2.33c.793-.461 1.722-.313 2.367.376l.046.049.024.062 3.724 9.394-.092.15c-.6.966-1.34 1.498-2.069 1.498" fill="#333"/><path d="M23.312 38.017a1.063 1.063 0 1 1-2.126 0 1.063 1.063 0 0 1 2.126 0" fill="#EFED86"/><path d="M22.249 37.305a.713.713 0 1 0 .001 1.425.713.713 0 0 0-.001-1.425m0 2.125c-.78 0-1.413-.634-1.413-1.413 0-.78.634-1.414 1.413-1.414.78 0 1.413.634 1.413 1.414 0 .779-.634 1.413-1.413 1.413" fill="#333"/><path d="M54.65 30.924l-.21-1.452v-.006c-.502-2.445-1.153-7.816-6.882-9.165l-4.574-.335-.489-.059c-2.662-.05-5.377-.202-7.778-1.933l-.062-.024-.055-.061c-.938-.7-1.827-1.647-2.645-2.931l-2.553 1.096c-.557.307-1.1.661-1.617 1.067l-1.13 1.027a10.14 10.14 0 0 0-.422.47L24.836 20.8c-.146.308-.281.631-.403.969l-.395 2.002-.21.017-1.518 1.142c.21 3.236.933 6.275 2.059 8.97l-.903-.002s1.473 7.04 2.71 9.81c2.848 6.384 8.174 9.046 10.813 9.657 2.64.611 5.113-.152 5.992-.763.88-.611 6.684-3.545 9.097-10.425 1.026-2.926 2.437-8.207 2.437-8.207l-.931-.002c.409-.972.766-1.99 1.065-3.045" fill="#FCD9AC"/><path d="M54.65 30.924l-.21-1.452v-.006c-.502-2.445-1.153-7.816-6.882-9.165l-1.98-.145c2.717 3.973 4.323 8.872 4.323 14.174 0 7.725-3.408 14.598-8.701 18.992.793-.196 1.422-.47 1.781-.72.88-.61 6.684-3.544 9.097-10.424 1.026-2.926 2.437-8.207 2.437-8.207l-.931-.002c.409-.972.766-1.99 1.065-3.045" fill="#FCC08D"/><path d="M23.9 34.25c.34 1.56 1.562 7 2.596 9.315 2.754 6.173 7.941 8.85 10.572 9.46 2.658.615 4.997-.213 5.713-.71.1-.07.242-.156.439-.277 1.584-.97 6.405-3.925 8.527-9.976.839-2.39 1.95-6.413 2.31-7.741l-1.001-.003.204-.485c.397-.941.743-1.928 1.031-2.933l-.196-1.368c-.034-.165-.068-.339-.103-.523-.518-2.673-1.384-7.144-6.488-8.36l-4.545-.333-.488-.059c-2.796-.053-5.506-.247-7.924-1.973l-.097-.04-.086-.094c-.954-.716-1.787-1.62-2.542-2.754l-2.265.974c-.551.304-1.07.647-1.546 1.02L26.9 18.398c-.14.148-.267.288-.384.426l-1.372 2.146c-.136.287-.26.587-.372.893l-.441 2.237-.374.03-1.284.966c.218 3.067.897 5.982 2.02 8.669l.203.487-.996-.002zm15.105 19.695a9.29 9.29 0 0 1-2.095-.237c-2.757-.638-8.188-3.432-11.055-9.857-1.237-2.772-2.672-9.591-2.733-9.88l-.088-.424.813.002c-1.056-2.677-1.69-5.566-1.887-8.595l-.012-.189 1.75-1.318.048-.003.357-1.793c.124-.343.264-.68.416-1l.022-.04 1.423-2.22c.133-.158.276-.317.437-.485l.018-.018 1.149-1.043a12.335 12.335 0 0 1 1.665-1.098l.03-.015 2.703-1.16.233.115.052.083c.758 1.19 1.595 2.119 2.559 2.838l.113.082c2.27 1.637 4.775 1.814 7.579 1.866l.035.003.489.059 4.612.341c5.57 1.312 6.528 6.259 7.042 8.917l.103.52.005.026.219 1.526-.02.071c-.251.886-.547 1.759-.881 2.6l.865.002-.117.44c-.014.054-1.426 5.328-2.445 8.233-2.204 6.287-7.186 9.339-8.823 10.342-.18.11-.322.197-.405.255-.701.487-2.276 1.054-4.176 1.054z" fill="#333"/><path d="M54.208 31.709c-.842 3.349-2.912 4.977-6.328 4.977-3.49 0-6.35-2.838-6.338-6.328l.01-1.613a1.695 1.695 0 0 1 1.083-1.57c1.45-.564 4.105-1.306 6.287-1.478 1.527-.12 5.174-.126 5.81.761.533.743.21 2.33-.524 5.25m-24.123 4.978c-3.415 0-5.485-1.628-6.327-4.977-.735-2.92-1.058-4.508-.525-5.25.636-.888 4.283-.883 5.811-.762 2.182.172 4.836.914 6.287 1.478.65.252 1.078.874 1.083 1.57l.01 1.613c.011 3.49-2.847 6.328-6.339 6.328m27.632-10.817a12.375 12.375 0 0 0-.705-1.143c-.253-.358-.686-.464-1.125-.467-1.812-.016-8.275-1.164-13.294 1.304-1.125.553-2.349.879-3.603.879s-2.477-.326-3.602-.88c-5.019-2.467-11.482-1.319-13.294-1.303-.44.003-.872.109-1.125.467-.317.45-.559.879-.705 1.143-.448.81.15 1.35.428 1.741.449.63 1.104 2.892 1.517 4.535 1.076 4.279 3.986 6.085 7.753 6.085 4.297 0 7.821-3.51 7.821-7.822a1.03 1.03 0 0 1 1.028-1.045h.359c.573 0 1.036.47 1.028 1.045 0 4.313 3.523 7.822 7.821 7.822 3.766 0 6.677-1.806 7.753-6.085.413-1.643 1.068-3.905 1.517-4.535.278-.39.876-.931.428-1.74" fill="#676868"/><path d="M24.039 31.668c-.68-2.703-1.284-4.19-.79-4.878.38-.532 1.552-1.018 2.98-1.052-1.612-.04-3.276.398-3.758 1.07-.493.687-.194 2.157.486 4.86.78 3.1 2.39 4.941 5.552 4.941.152 0 .727.012.876 0-2.786-.192-4.62-2.053-5.346-4.94M34.306 25.563c1.125.553 2.348.879 3.603.879.18 0 .36-.009.54-.022a8.349 8.349 0 0 1-3.061-.857c-2.785-1.37-6.014-1.625-8.647-1.579 2.404.043 5.151.392 7.565 1.579M38.088 29.363h-.359c-.574 0-.945 1.587-.945 1.587-.243 4.346-3.337 7.002-7.404 7.262.192.01.385.018.582.018 4.297 0 7.821-3.51 7.821-7.822a1.027 1.027 0 0 1 .666-.975 1.016 1.016 0 0 0-.361-.07M57.717 25.87a12.328 12.328 0 0 0-.705-1.144c-.253-.358-.686-.464-1.125-.467-.94-.008-3.135-.32-5.73-.275 2.113.037 3.842.268 4.648.275.44.003.872.109 1.125.467.317.45.559.879.705 1.143.448.81-.15 1.35-.428 1.742-.449.63-1.104 2.891-1.517 4.534-1.02 4.055-3.689 5.886-7.171 6.067.166.01.332.018.5.018 3.766 0 6.677-1.806 7.753-6.085.413-1.643 1.068-3.905 1.517-4.534.278-.392.876-.932.428-1.742" fill="#515151"/><path d="M27.462 25.99c-1.749 0-3.607.203-3.944.672-.459.64-.05 2.46.58 4.961.808 3.215 2.71 4.712 5.987 4.712a5.96 5.96 0 0 0 4.25-1.767 5.898 5.898 0 0 0 1.738-4.21l-.01-1.61a1.338 1.338 0 0 0-.859-1.246c-1.551-.603-4.175-1.296-6.188-1.455a20.084 20.084 0 0 0-1.554-.058zm2.623 11.046c-3.6 0-5.78-1.714-6.667-5.242-.785-3.118-1.087-4.68-.47-5.54.933-1.302 6.072-.91 6.124-.907 2.177.172 4.836.899 6.386 1.5.788.307 1.301 1.05 1.306 1.896l.01 1.614a6.594 6.594 0 0 1-1.942 4.706 6.658 6.658 0 0 1-4.747 1.973zm24.123-5.327h.002-.002zm-3.705-5.72c-.545 0-1.079.02-1.553.058-2.013.159-4.637.852-6.189 1.455-.517.2-.854.69-.858 1.245l-.01 1.612a5.898 5.898 0 0 0 1.738 4.209 5.961 5.961 0 0 0 4.25 1.767c3.276 0 5.178-1.497 5.987-4.712.63-2.5 1.039-4.32.58-4.96-.337-.47-2.195-.674-3.945-.674zM47.88 37.036c-1.792 0-3.478-.7-4.746-1.973a6.594 6.594 0 0 1-1.942-4.706l.01-1.614a2.036 2.036 0 0 1 1.305-1.895c1.55-.602 4.21-1.329 6.387-1.5.052-.005 5.19-.395 6.124.906.616.86.314 2.422-.47 5.54-.887 3.528-3.068 5.242-6.668 5.242zm-9.069-8.023h.359c.371 0 .72.145.98.41.263.266.404.617.398.99 0 4.114 3.352 7.466 7.471 7.466 3.892 0 6.456-2.012 7.413-5.82.223-.887.996-3.844 1.571-4.652.041-.058.09-.12.14-.184.326-.417.521-.724.267-1.184-.167-.301-.395-.7-.685-1.11-.149-.212-.424-.316-.84-.32-.334-.003-.801-.04-1.392-.089-2.691-.22-7.701-.63-11.745 1.358-2.47 1.214-5.045 1.214-7.515 0C31.19 23.89 26.18 24.3 23.488 24.52c-.591.048-1.058.086-1.392.09-.416.003-.691.107-.84.318-.292.414-.52.811-.685 1.111-.255.46-.06.767.267 1.184.05.064.098.126.14.184.575.808 1.348 3.765 1.57 4.652.958 3.808 3.521 5.82 7.414 5.82 4.119 0 7.47-3.351 7.47-7.471a1.37 1.37 0 0 1 .398-.985c.261-.265.61-.41.981-.41zm9.208 9.567c-4.506 0-8.172-3.666-8.172-8.172a.678.678 0 0 0-.677-.694h-.359a.676.676 0 0 0-.678.689c0 4.511-3.665 8.177-8.171 8.177-4.25 0-7.049-2.195-8.093-6.35-.559-2.22-1.132-3.953-1.462-4.416-.036-.05-.078-.103-.121-.159-.31-.394-.827-1.055-.329-1.955.174-.316.415-.734.725-1.176.285-.403.759-.61 1.409-.616.307-.003.763-.04 1.34-.087 2.758-.226 7.894-.646 12.111 1.427 2.276 1.119 4.621 1.119 6.896 0 4.218-2.073 9.354-1.653 12.112-1.427.577.047 1.032.084 1.34.087.65.005 1.124.213 1.408.616.31.44.55.859.726 1.176.498.9-.02 1.56-.329 1.955-.044.056-.085.109-.12.159-.33.463-.905 2.197-1.463 4.416-1.044 4.155-3.843 6.35-8.093 6.35z" fill="#282733"/><path d="M49.54 30.582a1.938 1.938 0 1 1-3.876 0 1.938 1.938 0 0 1 3.876 0" fill="#333"/><path d="M48.776 29.755a.662.662 0 1 1-1.323 0 .662.662 0 0 1 1.323 0" fill="#E5E5E4"/><path d="M33.134 30.582a1.938 1.938 0 1 1-3.876 0 1.938 1.938 0 0 1 3.876 0" fill="#333"/><path d="M32.37 29.755a.662.662 0 1 1-1.323 0 .662.662 0 0 1 1.323 0" fill="#E5E5E4"/><path d="M29.855 35.104a.351.351 0 0 1-.049-.697 11.483 11.483 0 0 1 2.766-.064.35.35 0 1 1-.07.698 10.815 10.815 0 0 0-2.597.06.344.344 0 0 1-.05.003M46.83 35.104a.351.351 0 0 1-.048-.697 11.502 11.502 0 0 1 2.765-.064.35.35 0 1 1-.07.698 10.802 10.802 0 0 0-2.597.06.344.344 0 0 1-.05.003" fill="#FCBC85"/><path d="M58.919 22.175c-1.291-12.804-8.257-18.003-12.4-19.98l.013-.006c-.224-.103-.45-.2-.677-.294a14.529 14.529 0 0 0-2.159-.748c-.079-.02-.155-.035-.234-.054a17.822 17.822 0 0 0-7.961-.225l-.106.022c-4.327.862-7.262 3.122-8.53 4.223a20.916 20.916 0 0 0-4.622 5.71 23.627 23.627 0 0 0-2.015 4.613c-.088.258-.175.516-.258.775l.032-.017a25.045 25.045 0 0 0-.922 6.766c0 1.417.116 2.803.34 4.147.28-.093.588-.107.889-.018-.2-.323-.322-.72-.045-1.22.146-.264.388-.693.705-1.143.253-.358.686-.464 1.124-.467.379-.004.962-.056 1.69-.115l.122-.413c.969-5.262 4.62-7.65 8.05-8.773 3.983 6.26 9.677 4.514 14.488 5.14 6.77.878 7.465 6.782 7.998 9.374.963 4.692.151 11.544-2.438 18.853-.108.305.306.514.487.245 5.67-8.41 7.566-15.115 6.429-26.395" fill="#9C6344"/><path d="M31.955 14.958c-4.17-.508-10.975 5.065-11.385 10.381.115-.19.248-.398.399-.613.253-.358.686-.464 1.125-.467.378-.004.961-.056 1.69-.115l.121-.413c.63-3.424 2.397-5.63 4.499-7.063-.26-.272 3.806-1.391 3.551-1.71M58.919 22.175c-1.291-12.804-8.257-18.003-12.4-19.98l.013-.006c-.224-.103-.45-.2-.677-.294a14.529 14.529 0 0 0-2.159-.748c-.079-.02-.156-.035-.234-.054a17.82 17.82 0 0 0-6.71-.426c.28.027.559.06.836.1.08.01.158.017.239.028.398.055 1.19.195 2.226.513.236.07.471.142.704.22l-.011.008c4.33 1.522 11.813 5.945 14.467 18.537 1.967 9.332 1.453 15.676-1.58 22.795a55.442 55.442 0 0 1-1.63 5.457c-.108.305.306.514.487.245 5.67-8.41 7.566-15.115 6.429-26.395" fill="#7C442D"/><g transform="translate(18.69 .028)"><mask id="b" fill="#fff"><use xlink:href="#a"/></mask><path d="M13.266 14.58c.117 0 .23.058.296.162 2.97 4.668 6.943 4.733 10.786 4.796 1.145.019 2.33.038 3.451.184 6.591.856 7.632 6.234 8.192 9.124.036.188.07.364.104.528.975 4.75.154 11.456-2.254 18.477 5.588-8.448 7.115-15.004 6.04-25.669C38.6 9.498 31.686 4.396 27.678 2.485a.345.345 0 0 1-.07-.045 19.17 19.17 0 0 0-.577-.249 14.127 14.127 0 0 0-2.11-.732c-.041-.01-.082-.02-.123-.028l-.107-.024a17.539 17.539 0 0 0-7.814-.223l-.101.021c-3.862.77-6.684 2.679-8.371 4.145a20.523 20.523 0 0 0-4.546 5.615 23.312 23.312 0 0 0-1.986 4.549 42.8 42.8 0 0 0-.211.628.35.35 0 0 1-.013.119 24.712 24.712 0 0 0-.909 6.671c0 1.251.093 2.504.278 3.728a1.59 1.59 0 0 1 .065-.005c-.06-.327.001-.653.184-.983.174-.316.415-.735.725-1.175.284-.404.758-.611 1.408-.617.309-.002.766-.04 1.346-.087l.079-.007.048-.164c.827-4.46 3.614-7.495 8.283-9.025a.346.346 0 0 1 .109-.018m20.31 34.438a.63.63 0 0 1-.593-.837c2.518-7.107 3.401-13.91 2.425-18.665a48.954 48.954 0 0 1-.106-.536c-.525-2.716-1.504-7.771-7.593-8.562-1.082-.14-2.195-.158-3.373-.178-3.965-.065-8.063-.132-11.216-4.89-4.26 1.472-6.802 4.302-7.56 8.418a.44.44 0 0 1-.008.036l-.122.413a.35.35 0 0 1-.308.25l-.318.026c-.594.048-1.063.087-1.397.09-.417.003-.692.107-.84.319-.291.413-.52.81-.685 1.11-.168.302-.157.553.036.866a.35.35 0 0 1-.397.52 1.132 1.132 0 0 0-.68.015.35.35 0 0 1-.457-.275 25.76 25.76 0 0 1 .549-10.912.35.35 0 0 1 .014-.15c.084-.26.171-.52.26-.78A23.973 23.973 0 0 1 3.25 10.62a21.2 21.2 0 0 1 4.697-5.8c1.751-1.522 4.681-3.504 8.692-4.303l.105-.022a18.27 18.27 0 0 1 8.118.23l.088.02c.047.01.094.02.142.032.379.094 1.17.319 2.213.767.255.105.48.203.685.298.03.014.057.031.08.051 4.154 2.008 11.206 7.285 12.51 20.218 1.1 10.922-.597 17.89-6.488 26.626a.62.62 0 0 1-.515.279" fill="#333" mask="url(#b)"/></g><path d="M39.234 46.214c-3.018 0-5.3-2.178-5.335-2.21a.351.351 0 0 1 .49-.503c.194.189 4.706 4.465 9.281 0a.351.351 0 0 1 .49.502c-1.7 1.658-3.406 2.21-4.926 2.21M39.14 40.765c-1.487 0-2.595-1.126-2.642-1.174a.284.284 0 0 1 .04-.435.385.385 0 0 1 .493.034c.01.01.95.957 2.11.957h.027c.658-.009 1.281-.328 1.853-.95a.384.384 0 0 1 .494-.047c.15.108.173.302.052.435-.711.772-1.516 1.17-2.393 1.18h-.034" fill="#333"/><path d="M39.26 48.968c-.478 0-.963-.043-1.449-.128a.35.35 0 0 1 .122-.691 7.455 7.455 0 0 0 2.211.063.35.35 0 0 1 .087.696c-.32.04-.644.06-.97.06M39.051 59.507c-.357 0-.718-.03-1.081-.092a.35.35 0 0 1 .117-.692 5.609 5.609 0 0 0 1.604.045.35.35 0 0 1 .083.696c-.238.029-.48.043-.723.043" fill="#FCBC85"/></g></svg>