<svg width="60" height="60" viewBox="0 0 60 60" xmlns="http://www.w3.org/2000/svg"><title>5D6E965D-AD92-44B6-BF1D-97131DB48B8F</title><g fill="none" fill-rule="evenodd"><rect fill-opacity=".2" fill="#FFF" width="60" height="60" rx="5"/><path d="M0 4.99A4.998 4.998 0 0 1 5 0h50a5 5 0 0 1 5 4.99V18H0V4.99z" fill="#F5364E"/><path d="M26.755 4.228V14h-1.96V7.826L22.135 14h-1.414l-2.646-6.146V14h-1.974V4.228h2.198l3.136 7.238 3.136-7.238h2.184zm7.658 5.894c0-.71-.205-1.267-.616-1.673-.41-.406-.891-.609-1.442-.609-.55 0-1.029.2-1.435.602-.406.401-.609.957-.609 1.666 0 .71.205 1.27.616 1.68.41.41.889.616 1.435.616s1.024-.203 1.435-.609c.41-.406.616-.964.616-1.673zm-6.104-.014c0-1.167.345-2.121 1.036-2.863.69-.742 1.568-1.113 2.632-1.113s1.876.439 2.436 1.316V6.244h1.96V14h-1.96v-1.302c-.588.943-1.405 1.414-2.45 1.414-1.045 0-1.916-.376-2.611-1.127-.695-.751-1.043-1.71-1.043-2.877zm12.25 3.752l-3.038-7.616h2.212l1.974 5.516 2.086-5.516h2.058l-4.844 11.424h-2.058l1.61-3.808zM21.864 24.684h15.372v2.16H24.204v9.216c.552-.888 1.416-1.632 2.592-2.232 1.176-.6 2.472-.9 3.888-.9s2.694.258 3.834.774c1.14.516 2.022 1.218 2.646 2.106 1.176 1.728 1.764 3.828 1.764 6.3s-.738 4.572-2.214 6.3C35.238 50.136 33.162 51 30.486 51c-2.676 0-4.776-.618-6.3-1.854-1.524-1.236-2.49-2.898-2.898-4.986h2.34c.408 1.464 1.182 2.61 2.322 3.438 1.14.828 2.55 1.242 4.23 1.242 2.112 0 3.708-.642 4.788-1.926 1.08-1.284 1.62-2.97 1.62-5.058 0-4.488-2.136-6.732-6.408-6.732-1.416 0-2.646.372-3.69 1.116-1.044.744-1.842 1.764-2.394 3.06h-2.232V24.684z" fill="#FFF"/></g></svg>