<svg width="60" height="60" viewBox="0 0 60 60" xmlns="http://www.w3.org/2000/svg"><title>14595CFF-58E0-487C-83E1-95AE08AB8867</title><g fill="none" fill-rule="evenodd"><rect fill-opacity=".2" fill="#FFF" width="60" height="60" rx="5"/><path d="M0 4.99A4.998 4.998 0 0 1 5 0h50a5 5 0 0 1 5 4.99V18H0V4.99z" fill="#F5364E"/><path d="M26.755 4.228V14h-1.96V7.826L22.135 14h-1.414l-2.646-6.146V14h-1.974V4.228h2.198l3.136 7.238 3.136-7.238h2.184zm7.658 5.894c0-.71-.205-1.267-.616-1.673-.41-.406-.891-.609-1.442-.609-.55 0-1.029.2-1.435.602-.406.401-.609.957-.609 1.666 0 .71.205 1.27.616 1.68.41.41.889.616 1.435.616s1.024-.203 1.435-.609c.41-.406.616-.964.616-1.673zm-6.104-.014c0-1.167.345-2.121 1.036-2.863.69-.742 1.568-1.113 2.632-1.113s1.876.439 2.436 1.316V6.244h1.96V14h-1.96v-1.302c-.588.943-1.405 1.414-2.45 1.414-1.045 0-1.916-.376-2.611-1.127-.695-.751-1.043-1.71-1.043-2.877zm12.25 3.752l-3.038-7.616h2.212l1.974 5.516 2.086-5.516h2.058l-4.844 11.424h-2.058l1.61-3.808zM21.36 24.72h17.352v1.908L28.164 51h-2.808l11.016-24.12H21.36z" fill="#FFF"/></g></svg>