<svg width="60" height="60" viewBox="0 0 60 60" xmlns="http://www.w3.org/2000/svg"><title>197A92A1-80F0-4A21-BD71-8C6ECC47EC7B</title><g fill="none" fill-rule="evenodd"><rect fill-opacity=".2" fill="#FFF" width="60" height="60" rx="5"/><path d="M0 4.99A4.998 4.998 0 0 1 5 0h50a5 5 0 0 1 5 4.99V18H0V4.99z" fill="#F5364E"/><path d="M26.755 4.228V14h-1.96V7.826L22.135 14h-1.414l-2.646-6.146V14h-1.974V4.228h2.198l3.136 7.238 3.136-7.238h2.184zm7.658 5.894c0-.71-.205-1.267-.616-1.673-.41-.406-.891-.609-1.442-.609-.55 0-1.029.2-1.435.602-.406.401-.609.957-.609 1.666 0 .71.205 1.27.616 1.68.41.41.889.616 1.435.616s1.024-.203 1.435-.609c.41-.406.616-.964.616-1.673zm-6.104-.014c0-1.167.345-2.121 1.036-2.863.69-.742 1.568-1.113 2.632-1.113s1.876.439 2.436 1.316V6.244h1.96V14h-1.96v-1.302c-.588.943-1.405 1.414-2.45 1.414-1.045 0-1.916-.376-2.611-1.127-.695-.751-1.043-1.71-1.043-2.877zm12.25 3.752l-3.038-7.616h2.212l1.974 5.516 2.086-5.516h2.058l-4.844 11.424h-2.058l1.61-3.808zM35.238 37.482c-1.044-1.164-2.52-1.746-4.428-1.746s-3.528.54-4.86 1.62c-1.332 1.08-1.998 2.652-1.998 4.716s.558 3.708 1.674 4.932c1.116 1.224 2.706 1.836 4.77 1.836 2.064 0 3.648-.576 4.752-1.728 1.104-1.152 1.656-2.754 1.656-4.806s-.522-3.66-1.566-4.824zM30.54 26.268c-2.376 0-4.128.852-5.256 2.556-1.128 1.704-1.728 4.668-1.8 8.892.648-1.296 1.638-2.316 2.97-3.06 1.332-.744 2.862-1.116 4.59-1.116 2.4 0 4.344.786 5.832 2.358 1.488 1.572 2.232 3.66 2.232 6.264s-.708 4.728-2.124 6.372C35.568 50.178 33.48 51 30.72 51c-1.584 0-2.946-.252-4.086-.756-1.14-.504-2.04-1.152-2.7-1.944-.66-.792-1.182-1.824-1.566-3.096a19.532 19.532 0 0 1-.756-3.78c-.12-1.248-.18-2.724-.18-4.428 0-4.032.738-7.188 2.214-9.468 1.476-2.28 3.774-3.42 6.894-3.42 2.208 0 3.978.594 5.31 1.782 1.332 1.188 2.106 2.646 2.322 4.374H35.94c-.336-1.392-.93-2.406-1.782-3.042-.852-.636-2.058-.954-3.618-.954z" fill="#FFF"/></g></svg>