<svg width="110" height="65" viewBox="0 0 110 65" xmlns="http://www.w3.org/2000/svg"><title>49E98E75-EF68-4025-80B1-5D662380654E</title><g fill="none" fill-rule="evenodd"><path d="M10 48.976V5.263A5.263 5.263 0 0 1 15.263 0h89.474A5.263 5.263 0 0 1 110 5.263v43.713a5.263 5.263 0 0 1-5.263 5.263H15.263A5.263 5.263 0 0 1 10 48.976" fill="#FDF3FC"/><path d="M102.105 48.977h-84.21a2.632 2.632 0 0 1-2.632-2.632V7.895a2.632 2.632 0 0 1 2.632-2.632h84.21a2.632 2.632 0 0 1 2.632 2.632v38.45a2.632 2.632 0 0 1-2.632 2.632" fill="#E2B5E5"/><path fill="#ECCBEF" d="M83.04 39.2h16.391V13.663H83.04zM20.952 26.432c0 7.052 5.716 12.769 12.769 12.769 7.052 0 12.769-5.717 12.769-12.77 0-7.052-5.717-12.768-12.77-12.768-7.052 0-12.768 5.716-12.768 12.769"/><path d="M69.015 16.866H54.806a1.368 1.368 0 1 0 0 2.737h4.904a3.54 3.54 0 0 1 3.26 2.167h-6.533a1.368 1.368 0 1 0 0 2.737h6.533a3.54 3.54 0 0 1-3.26 2.168h-3.804a1.368 1.368 0 1 0 0 2.737 4.91 4.91 0 0 1 4.36 2.636l3.137 5.981a1.369 1.369 0 1 0 2.424-1.271l-3.138-5.98a7.666 7.666 0 0 0-1.155-1.638 6.292 6.292 0 0 0 4.294-4.633h1.556a1.368 1.368 0 1 0 0-2.737h-1.556a6.246 6.246 0 0 0-.94-2.167h4.127a1.368 1.368 0 1 0 0-2.737" fill="#AE79BA"/><g><path d="M0 58.976V15.263A5.263 5.263 0 0 1 5.263 10h89.474A5.263 5.263 0 0 1 100 15.263v43.713a5.263 5.263 0 0 1-5.263 5.263H5.263A5.263 5.263 0 0 1 0 58.976" fill="#FDF3FC"/><path d="M92.105 58.977H7.895a2.632 2.632 0 0 1-2.632-2.632v-38.45a2.632 2.632 0 0 1 2.632-2.632h84.21a2.632 2.632 0 0 1 2.632 2.632v38.45a2.632 2.632 0 0 1-2.632 2.632" fill="#E2B5E5"/><path fill="#ECCBEF" d="M73.04 49.2h16.391V23.663H73.04zM10.952 36.432c0 7.052 5.716 12.769 12.769 12.769 7.052 0 12.769-5.717 12.769-12.77 0-7.052-5.717-12.768-12.77-12.768-7.052 0-12.768 5.716-12.768 12.769"/><path d="M59.015 26.866H44.806a1.368 1.368 0 1 0 0 2.737h4.904a3.54 3.54 0 0 1 3.26 2.167h-6.533a1.368 1.368 0 1 0 0 2.737h6.533a3.54 3.54 0 0 1-3.26 2.168h-3.804a1.368 1.368 0 1 0 0 2.737 4.91 4.91 0 0 1 4.36 2.636l3.137 5.981a1.369 1.369 0 1 0 2.424-1.271l-3.138-5.98a7.666 7.666 0 0 0-1.155-1.638 6.292 6.292 0 0 0 4.294-4.633h1.556a1.368 1.368 0 1 0 0-2.737h-1.556a6.246 6.246 0 0 0-.94-2.167h4.127a1.368 1.368 0 1 0 0-2.737" fill="#AE79BA"/></g></g></svg>