<svg width="110" height="65" viewBox="0 0 110 65" xmlns="http://www.w3.org/2000/svg"><title>86588D92-74A6-477A-ACA6-903B79159290</title><g fill="none" fill-rule="evenodd"><path d="M10 48.976V5.263A5.263 5.263 0 0 1 15.263 0h89.474A5.263 5.263 0 0 1 110 5.263v43.713a5.263 5.263 0 0 1-5.263 5.263H15.263A5.263 5.263 0 0 1 10 48.976" fill="#FAFCF6"/><path d="M102.105 49.665h-84.21a2.632 2.632 0 0 1-2.632-2.632V8.583a2.632 2.632 0 0 1 2.632-2.631h84.21a2.632 2.632 0 0 1 2.632 2.631v38.45a2.632 2.632 0 0 1-2.632 2.632" fill="#C7D6AA"/><path fill="#E4EDCC" d="M83.04 43.749h16.391V10.49H83.04zM20.952 27.12c0 7.052 5.716 12.769 12.769 12.769 7.052 0 12.769-5.717 12.769-12.77 0-7.051-5.717-12.768-12.77-12.768-7.052 0-12.768 5.717-12.768 12.769"/><path d="M69.015 17.555H54.806a1.368 1.368 0 1 0 0 2.736h4.904a3.54 3.54 0 0 1 3.26 2.168h-6.533a1.368 1.368 0 1 0 0 2.737h6.533a3.54 3.54 0 0 1-3.26 2.167h-3.804a1.368 1.368 0 1 0 0 2.737 4.91 4.91 0 0 1 4.36 2.637l3.137 5.98a1.369 1.369 0 1 0 2.424-1.27l-3.138-5.981a7.666 7.666 0 0 0-1.155-1.638 6.292 6.292 0 0 0 4.294-4.632h1.556a1.368 1.368 0 1 0 0-2.737h-1.556a6.246 6.246 0 0 0-.94-2.168h4.127a1.368 1.368 0 1 0 0-2.736" fill="#96A567"/><g><path d="M0 58.976V15.263A5.263 5.263 0 0 1 5.263 10h89.474A5.263 5.263 0 0 1 100 15.263v43.713a5.263 5.263 0 0 1-5.263 5.263H5.263A5.263 5.263 0 0 1 0 58.976" fill="#FAFCF6"/><path d="M92.105 59.665H7.895a2.632 2.632 0 0 1-2.632-2.632v-38.45a2.632 2.632 0 0 1 2.632-2.631h84.21a2.632 2.632 0 0 1 2.632 2.631v38.45a2.632 2.632 0 0 1-2.632 2.632" fill="#C7D6AA"/><path fill="#E4EDCC" d="M73.04 53.749h16.391V20.49H73.04zM10.952 37.12c0 7.052 5.716 12.769 12.769 12.769 7.052 0 12.769-5.717 12.769-12.77 0-7.051-5.717-12.768-12.77-12.768-7.052 0-12.768 5.717-12.768 12.769"/><path d="M59.015 27.555H44.806a1.368 1.368 0 1 0 0 2.736h4.904a3.54 3.54 0 0 1 3.26 2.168h-6.533a1.368 1.368 0 1 0 0 2.737h6.533a3.54 3.54 0 0 1-3.26 2.167h-3.804a1.368 1.368 0 1 0 0 2.737 4.91 4.91 0 0 1 4.36 2.637l3.137 5.98a1.369 1.369 0 1 0 2.424-1.27l-3.138-5.981a7.666 7.666 0 0 0-1.155-1.638 6.292 6.292 0 0 0 4.294-4.632h1.556a1.368 1.368 0 1 0 0-2.737h-1.556a6.246 6.246 0 0 0-.94-2.168h4.127a1.368 1.368 0 1 0 0-2.736" fill="#96A567"/></g></g></svg>