<svg width="365" height="300" viewBox="0 0 365 300" xmlns="http://www.w3.org/2000/svg"><title>263DFBEC-E320-4408-B035-A6E8FF2B9EBF</title><g fill="none" fill-rule="evenodd"><path fill="#FFF6EC" d="M301.662 273.16l-1.098.009-1.097.089-1.097.002-1.097-.16-1.096-.116-1.097.078-1.097.067-1.098-.053-1.098.092-1.097-.168-1.097.184-1.097-.05-1.098.152-1.098-.411-1.098.48-1.097-.117-1.097-.36-1.098.442-1.1-.408-1.097.434-1.097.005-1.099-.425-1.098.105-1.098-.055-1.098.036-1.099.205-1.098-.291-1.098-.019-1.099.445-1.098-.241-1.098.183-1.1-.355-1.097.302-1.098-.162-1.097.27-1.1-.012-1.097-.34-1.1-.159-1.098.141-1.099.374-1.099.01-1.1.012-1.099-.393-1.099.342-1.099-.32-1.1.221-1.101.006-1.101-.048-.833-.654-.612-.832.3-1.097-.497-1.098.018-1.096.341-1.098-.33-1.097.339-1.098-.402-1.098.123-1.098.137-1.098-.254-1.099.299-1.098.114-1.099-.168-1.098.099-1.099-.256-1.1-.089-1.1.794-.877.877-.648 1.098-.12 1.097.06 1.097.222 1.097-.002 1.096-.098 1.097.011 1.097.094 1.098-.135 1.098.331 1.097-.212 1.097-.262 1.097.011 1.098-.032 1.098.14 1.098.25 1.097-.403 1.098.259 1.098-.118 1.098.397 1.098-.404 1.097-.1 1.099.184 1.098.006 1.098-.203 1.098.315 1.099.074 1.098-.083 1.098-.171 1.099-.14 1.098.163 1.099.294 1.098-.452 1.098.142 1.098-.088 1.098.124 1.098.245 1.098.088 1.1-.06 1.098-.376 1.099.346 1.099.055 1.1-.3 1.099.09 1.099-.139 1.1-.064 1.099.296 1.1.147 1.102-.533 1.032.644.365 1.032-.101 1.096-.13 1.098.04 1.096.146 1.098-.087 1.097.26 1.098-.087 1.098-.115 1.098.22 1.098-.406 1.099.153 1.098-.048 1.099.2 1.098-.141 1.099.174 1.1-.343 1.1-.224.908zM241.218 273.216l-1.099-.279-1.097-.086-1.097.065-1.096.337-1.097-.24-1.096-.007-1.098-.12-1.098.183-1.097.052-1.098-.25-1.097-.002-1.097.139-1.097.02-1.098.118-1.099.216-1.097-.444-1.097.218-1.098-.208-1.099-.076-1.098.372-1.097-.338-1.098.34-1.099-.315-1.098.217-1.098.11-1.098-.004-1.098-.133-1.1.003-1.097.002-1.099.247-1.098-.43-1.099.126-1.097.171-1.099-.127-1.097.246-1.099-.115-1.098-.347-1.099-.043-1.098.044-1.1.369-1.099-.205-1.099.108-1.1-.087-1.098-.12-1.1-.014-1.1-.05-1.1.301-1.102-.097-.899-.488-.395-.898-.034-1.097-.131-1.097.215-1.097-.045-1.098-.077-1.097-.025-1.098-.137-1.098.247-1.098.085-1.098-.392-1.099.393-1.098-.329-1.099.225-1.098-.239-1.099.064-1.1.08-1.1.569-.826.825-.537 1.098-.315 1.098.407 1.097-.323 1.096.06 1.097-.08 1.096.069 1.097.11 1.098.154 1.098-.23 1.098-.139 1.096.032 1.098.169 1.097.211 1.098-.43 1.098.505 1.098-.04 1.097-.314 1.098-.108 1.098.314 1.098-.287 1.098.463 1.098-.475 1.099.185 1.097-.073 1.098.33 1.099-.51 1.098.026 1.099.012 1.098.268 1.099-.003 1.098-.168 1.099.32 1.097-.166 1.099.226 1.097-.152 1.099.165 1.098-.218 1.099.227 1.098-.464 1.099-.03 1.1.297 1.099-.223 1.1.393 1.098-.472 1.1.5 1.099-.503 1.101.476 1.102-.006.958.214.242.958.41 1.097-.454 1.098.36 1.096.045 1.098-.207 1.097-.024 1.098.22 1.098-.123 1.098.242 1.098-.226 1.099.205 1.098-.283 1.099.115 1.098-.26 1.099.325 1.1-.083 1.1-.421 1.042zM180.773 273.025l-1.098.24-1.098.011-1.096-.405-1.097.125-1.097.315-1.096-.355-1.097-.115-1.098.468-1.098-.205-1.098-.091-1.097-.056-1.097-.002-1.097.355-1.098-.425-1.098.104-1.098.32-1.097-.004-1.098-.265-1.098.323-1.098-.213-1.098-.099-1.098-.2-1.098.098-1.098.249-1.098.165-1.099-.203-1.098-.17-1.099.08-1.098-.156-1.098.275-1.099-.31-1.098.335-1.098.163-1.099-.505-1.097.346-1.098-.181-1.099.258-1.099-.253-1.098-.047-1.099.355-1.1-.18-1.099-.294-1.099.072-1.099.293-1.1-.312-1.099.223-1.101-.06-1.101-.267-1.023-.106-.321-1.022-.102-1.097.045-1.097.271-1.097-.06-1.098-.347-1.097.002-1.098.262-1.098.044-1.098-.199-1.098-.068-1.099.125-1.098-.092-1.099.304-1.098-.298-1.099.005-1.1-.075-1.1.58-.946.947-.476 1.098.123 1.097-.049 1.097-.223 1.096.142 1.097-.163 1.097.193 1.097.053 1.097.042 1.099-.145 1.097.305 1.097-.163 1.097-.15 1.097-.079 1.099.381 1.098-.317 1.097.031 1.097-.215 1.098.31 1.099-.192 1.098-.141 1.097.225 1.098.051 1.099-.088 1.098.3 1.098-.268 1.098.06 1.098-.17 1.099.427 1.098-.306 1.099.024 1.098-.03 1.099-.078 1.097-.15 1.099.09 1.097-.024 1.099.249 1.098.148 1.099-.013 1.098.068 1.1-.146 1.099-.328 1.099.238 1.1.195 1.098-.18 1.1-.094 1.1.275 1.1-.199 1.102-.2.998.605.506.997.039 1.097-.106 1.098.103 1.096-.043 1.098-.176 1.097.227 1.098-.126 1.098-.251 1.098.11 1.098.201 1.099-.065 1.098-.15 1.099.199 1.098-.28 1.099.322 1.1.011 1.1-.642.878z"/><path fill="#FAECD1" d="M120.328 273.32l-1.098-.434-1.097.39-1.097-.38-1.097.265-1.096-.296-1.097.373-1.097-.364-1.098.352-1.098-.17-1.097.157-1.097-.3-1.097.234-1.098-.1-1.098-.113-1.098-.103-1.097.016-1.097.081-1.098.103-1.1-.195-1.097.381-1.097-.083-1.098.058-1.1-.089-1.097-.127-1.098.176-1.099-.313-1.098.292-1.098-.097-1.098.135-1.1-.173-1.098.358-1.098-.023-1.098-.365-1.098.383-1.097-.402-1.1-.044-1.097.31-1.1-.041-1.098-.182-1.099.165-1.099-.212-1.1-.056-1.099.469-1.099-.483-1.099.478-1.1-.061-1.1-.243-1.102.226-1.176-.4-.202-1.176.176-1.097-.409-1.097.096-1.097-.148-1.098.2-1.097.212-1.098-.247-1.098-.006-1.098.008-1.098.173-1.099-.193-1.098.116-1.099.06-1.098-.149-1.099.11-1.1-.198-1.1.692-.885.885-.73 1.098.199 1.097-.085 1.097.298 1.097-.27 1.096-.143 1.097.344 1.097-.186 1.098.243 1.098.074 1.097-.24 1.097.203 1.097-.283 1.098.07 1.098-.061 1.098.244 1.097-.363 1.098.43 1.098-.004 1.098-.17 1.098-.263 1.097.2 1.099-.219 1.098.237 1.098-.015 1.098.236 1.099.002 1.098-.544 1.098.167 1.099.103 1.098-.046 1.099-.152 1.098.179 1.098.253 1.098-.087 1.098-.138 1.098-.278 1.098.116 1.1.164 1.098-.108 1.099-.036 1.099-.069 1.1.376 1.099-.435 1.099.288 1.1-.248 1.099.205 1.1-.144 1.102-.073 1.084.56.073 1.083.45 1.097-.378 1.098.012 1.096.415 1.098-.003 1.097-.07 1.098.084 1.098-.336 1.098.051 1.098.048 1.099-.3 1.098.351 1.099.154 1.098-.347 1.099-.026 1.1.067 1.1-.22 1.11zM331.885 247.74l-1.099.147-1.097.02-1.097.103-1.096.052-1.097-.413-1.096.334-1.098-.285-1.098.247-1.097-.172-1.098.21-1.097-.207-1.097.124-1.097-.034-1.098-.205-1.099.136-1.097-.135-1.097.022-1.098.215-1.099-.279-1.098.055-1.097.18-1.098-.207-1.099.116-1.098-.016-1.098.166-1.098-.093-1.098.244-1.1-.247-1.097-.204-1.099.199-1.098.204-1.099-.284-1.097.072-1.099-.05-1.097.19-1.099-.307-1.098.34-1.099-.244-1.098.002-1.1-.171-1.099.262-1.099-.18-1.1.18-1.098-.032-1.1-.045-1.1.05-1.1.246-1.102-.007-1.029-.616-.402-1.029-.118-1.096.37-1.098.018-1.096-.333-1.098-.15-1.097.352-1.099-.008-1.097.123-1.098-.301-1.099-.176-1.098.399-1.099-.396-1.098.51-1.098-.243-1.099.009-1.1-.156-1.101.436-1.095 1.095-.34 1.098-.203 1.098.167 1.097.163 1.096.011 1.097.154 1.096-.084 1.097-.307 1.098-.103 1.098-.032 1.098.2 1.096.028 1.098.007 1.097-.12 1.098.259 1.098-.36 1.098.445 1.097-.219 1.098-.056 1.098.1 1.098-.119 1.098.063 1.098.3 1.099-.268 1.097-.084 1.098.022 1.099-.17 1.098.407 1.099-.13 1.098.165 1.099-.426 1.098.363 1.099-.418 1.097.134 1.099.106 1.097-.233 1.099.016 1.098.117 1.099.267 1.098-.352 1.099.332 1.1-.314 1.099.185 1.1-.173 1.098.137 1.1.259 1.099.039 1.101-.186 1.102.004.864.478.418.864.068 1.096-.078 1.098.114 1.096-.12 1.099.001 1.097.115 1.098-.103 1.097.393 1.098-.05 1.099-.24 1.098.026 1.099.203 1.098-.414 1.098.168 1.1-.05 1.1.03 1.1-.454.891z"/><path fill="#FFF6EC" d="M271.44 248.066l-1.098-.3-1.098.056-1.096-.055-1.097.18-1.097-.15-1.096-.272-1.097.347-1.098.124-1.098-.181-1.098-.278-1.096.346-1.098-.097-1.097.196-1.098-.096-1.098-.088-1.098-.097-1.097.343-1.098-.265-1.098.015-1.098.064-1.098.144-1.098-.245-1.098.123-1.098.1-1.098-.075-1.099-.238-1.098.366-1.099-.257-1.098.106-1.098.045-1.099-.064-1.099-.258-1.097.002-1.099.287-1.097-.003-1.098-.017-1.099.112-1.099-.299-1.098-.07-1.099.452-1.1-.488-1.098.277-1.1.164-1.099-.282-1.1-.055-1.099-.003-1.101-.131-1.101.026-1.142-.042-.046-1.141.015-1.096-.315-1.098-.099-1.097.415-1.097-.426-1.097.395-1.099-.277-1.097.116-1.098-.249-1.099.169-1.098.31-1.099-.357-1.098.362-1.099-.022-1.098-.425-1.1.049-1.1.642-.885.885-.705 1.098.357 1.097-.24 1.097-.183 1.096.461 1.097-.267 1.097.115 1.097-.085 1.098.044 1.098-.042 1.097-.177 1.097.28 1.097-.19 1.097.012 1.099.341 1.098.006 1.097-.176 1.097.016 1.098-.252 1.099.151 1.098.042 1.097-.268 1.098.45 1.099-.031 1.098-.12 1.098.07 1.098-.01 1.098-.314 1.1.318 1.097-.062 1.099-.311 1.098.443 1.099.032 1.097-.445 1.099.423 1.097-.206 1.099-.23 1.098.362 1.099-.275 1.098.038 1.1.332 1.099-.113 1.099.024 1.1.056 1.098.043 1.1-.018 1.1.034 1.1-.434 1.102.415 1.099.074.268 1.1.232 1.096-.334 1.097-.085 1.097.315 1.097.091 1.098-.236 1.098.138 1.097.03 1.098-.372 1.099.055 1.098.163 1.099.057 1.098-.146 1.099.023 1.098.01 1.1.039 1.101-.292 1.056zM210.995 247.926l-1.098-.272-1.097.33-1.097.075-1.097-.5-1.096.313-1.097-.3-1.097.31-1.098.01-1.098-.072-1.097-.073-1.097.06-1.097-.166-1.098.387-1.098-.423-1.098.432-1.097-.368-1.097.317-1.098.022-1.099-.274-1.098-.189-1.097.51-1.099-.267-1.098-.121-1.098.079-1.098.193-1.099-.17-1.098.033-1.098-.064-1.098.23-1.1.008-1.098-.088-1.098-.21-1.098-.136-1.098.014-1.098.183-1.098.092-1.098-.308-1.1.248-1.098.271-1.099-.172-1.099-.266-1.1.007-1.099.244-1.099.13-1.099-.315-1.1.26-1.1.002-1.102-.125-1.165-.248.025-1.165-.178-1.096-.164-1.098.23-1.096-.048-1.098-.218-1.097-.074-1.099.21-1.097-.172-1.098.315-1.099-.05-1.098v-1.099l-.323-1.098.066-1.098.21-1.099-.305-1.1-.023-1.101.486-1.178 1.178-.176 1.098-.15 1.097.038 1.097.063 1.097-.011 1.096-.139 1.097-.06 1.097.129 1.098-.152 1.098.222 1.097.149 1.097-.29 1.097.105 1.098-.133 1.098.29 1.098-.112 1.097-.11 1.098.323 1.098-.345 1.098.25 1.098-.273 1.097.07 1.098.315 1.1-.137 1.097-.3 1.098.294 1.099-.11 1.098.057 1.098-.194 1.099-.112 1.098.416 1.099-.305 1.099.062 1.097.308 1.098-.248 1.097.207 1.1-.43 1.097.373 1.1-.197 1.098-.113 1.099-.075 1.099.512 1.1-.363 1.099.322 1.099-.033 1.099-.148h1.1l1.101.011 1.101-.017.893.502.28.893.312 1.096-.179 1.098.174 1.096-.306 1.099.027 1.097.133 1.098-.198 1.097.372 1.098-.32 1.099.06 1.098-.062 1.099.35 1.098.129 1.098-.076 1.1-.41 1.1.493 1.1-.702.97zM150.55 247.87l-1.098-.008-1.097-.203-1.097.207-1.096-.066-1.097.01-1.096.191-1.098-.223-1.098-.126-1.097.013-1.098.32-1.097-.114-1.097.074-1.097-.193-1.098-.185-1.098.114-1.098-.01-1.097.12-1.098.254-1.099.023-1.098-.337-1.097.313-1.098-.325-1.099-.186-1.098.31-1.098.005-1.098-.135-1.098.267-1.099-.128-1.098.104-1.099-.062-1.098-.297-1.099.379-1.097-.164-1.099-.25-1.097.103-1.099.11-1.098.273-1.099-.52-1.098.096-1.1.223-1.098-.175-1.1.02-1.1.305-1.098-.069-1.1-.025-1.1-.06-1.1-.125-1.102-.112-.912-.3-.719-.912.347-1.096-.103-1.098-.028-1.097-.051-1.097.25-1.097-.365-1.099.375-1.097-.225-1.098.275-1.099-.06-1.098-.128-1.099-.254-1.098.319-1.099-.354-1.098.408-1.1-.175-1.101.443-.957.957-.48 1.098-.232 1.098.201 1.097.092 1.096.028 1.097-.01 1.096-.315 1.097.366 1.098.13 1.098.013 1.098-.25 1.097-.045 1.097.265 1.097-.21 1.098.128 1.098-.202 1.098-.155 1.097.44 1.098-.371 1.098-.105 1.098.178 1.098-.082 1.098.312 1.099-.023 1.097-.169 1.098-.18 1.1.375 1.097-.151 1.099-.17 1.098.092 1.099-.034 1.098-.004 1.099.185 1.097.026 1.098-.274 1.098.34 1.099-.289 1.098.049 1.099.2 1.098-.046 1.099.096 1.1-.053 1.099-.34 1.1.058 1.098.08 1.1.255 1.099-.407 1.101.341 1.102.112 1.089.103.592 1.089-.375 1.097-.046 1.097-.106 1.097.006 1.097.52 1.098-.234 1.098.156 1.097-.31 1.098-.157 1.1.316 1.097-.3 1.099.162 1.098-.124 1.099.033 1.098.07 1.1.24 1.101-.642.89zM90.106 248.046l-1.098-.288-1.098-.12-1.096.304-1.097-.406-1.097.225-1.096-.093-1.097.38-1.098-.51-1.098-.002-1.098.248-1.097.087-1.096-.185-1.098-.16-1.098.268-1.098-.023-1.098.057-1.097-.265-1.098.119-1.098-.106-1.098.475-1.098-.294-1.098-.009-1.098.065-1.098-.23-1.098.121-1.099.003-1.098.051-1.099.303-1.098-.297-1.098-.172-1.099-.04-1.099.516-1.097-.505-1.099.496-1.097-.059-1.098-.236-1.098-.031-1.1.216-1.098-.41-1.099.201-1.1.054-1.099.025-1.099-.068-1.099-.163-1.1.266-1.099-.011-1.101.177-1.101-.274-.86-.492-.434-.86-.258-1.096.038-1.098.38-1.097-.357-1.097.35-1.097-.232-1.099-.145-1.097-.154-1.098.375-1.099-.144-1.098-.136-1.099.27-1.098.014-1.099-.078-1.098-.045-1.1-.234-1.1.736-.915.914-.39 1.098.03 1.097.08 1.097-.413 1.097.148 1.096-.046 1.097-.168 1.097.457 1.098-.363 1.098.074 1.097.15 1.097-.302 1.097.087 1.097-.07 1.099.082 1.098-.052 1.097-.01 1.097.244 1.098-.092 1.099-.14 1.098.147 1.097-.099 1.098-.069 1.099.22 1.098-.097 1.098.242 1.098.088 1.099.014 1.098-.47 1.098.038 1.099.165 1.098-.208 1.099.174 1.097.138 1.099-.132 1.097.11 1.099.097 1.098.055 1.099-.358 1.098.159 1.1-.24 1.099.455 1.099-.186 1.1-.013 1.099-.047 1.099-.023 1.1.064 1.1.236 1.102-.489.951.686.259.951-.071 1.096.472 1.098-.081 1.097.09 1.097.018 1.098-.06 1.098-.184 1.097.259 1.098-.137 1.099-.163 1.098-.007 1.099.254 1.098-.413 1.099.018 1.098.312 1.1-.04 1.101-.44 1.038zM261.542 279.124l-1.098.114-1.1.196-1.097-.374-1.099.431-1.097-.206-1.099.247-1.097-.308-1.099-.062-1.098.305-1.099-.416-1.098.112-1.099.194-1.098-.057-1.098.11-1.098-.294-1.098.3-1.099.137-1.098-.314-1.098-.07-1.097.273-1.099-.25-1.098.344-1.097-.323-1.097.11-1.098.112-1.099-.29-1.097.133-1.097-.104-1.097.289-1.097-.148-1.098-.223-1.098.152-1.097-.128-1.097.06-1.096.138-1.097.01-1.097-.062-1.098-.037-1.098.15-1.177.175-.487 1.178.024 1.1.305 1.101-.21 1.099-.067 1.098.323 1.099v1.098l.05 1.099-.315 1.098.173 1.098-.21 1.098.073 1.098.219 1.097.047 1.098-.23 1.096.164 1.098.178 1.096-.024 1.165 1.164.249 1.102.124 1.101-.002 1.1-.26 1.099.314 1.099-.129 1.1-.244 1.099-.007 1.1.266 1.098.172 1.099-.271 1.099-.248 1.098.308 1.098-.093 1.097-.182 1.1-.013 1.096.136 1.1.21 1.098.087 1.098-.007 1.098-.231 1.099.064 1.098-.033 1.098.17 1.099-.193 1.098-.079 1.098.12 1.098.268 1.098-.51 1.098.19 1.098.273 1.098-.022 1.097-.317 1.098.369 1.098-.433 1.098.423 1.098-.387 1.097.166 1.097-.06 1.097.073 1.098.073 1.097-.01 1.098-.31 1.096.299 1.097-.313 1.096.5 1.097-.076 1.098-.33 1.098.273.97-.562.701-.97-.492-1.1.41-1.1.075-1.1-.128-1.098-.35-1.098.062-1.098-.06-1.099.32-1.098-.372-1.099.197-1.097-.132-1.098-.027-1.098.306-1.097-.174-1.097.178-1.097-.311-1.097-.28-.892-.893-.503-1.101.017-1.102-.011h-1.1l-1.098.149-1.1.032-1.1-.321-1.098.362-1.1-.512zM163.767 279.37l-1.096.01-1.097-.028-1.096-.092-1.098-.2-1.098.232-.958.479-.442.957.174 1.1-.407 1.101.353 1.099-.319 1.098.254 1.099.13 1.098.058 1.099-.275 1.098.226 1.098-.375 1.098.364 1.098-.25 1.097.052 1.098.028 1.096.103 1.098-.347 1.096.719.913.912.299 1.101.112 1.101.125 1.1.06 1.1.026 1.098.068 1.1-.305 1.1-.02 1.099.176 1.099-.223 1.098-.097 1.099.52 1.098-.273 1.098-.11 1.098-.103 1.098.25 1.098.164 1.098-.379 1.099.297 1.098.062 1.099-.104 1.098.128 1.098-.267 1.099.135 1.098-.005 1.098-.31 1.098.186 1.099.326 1.097-.313 1.098.336 1.099-.023 1.097-.253 1.098-.12 1.097.009 1.098-.114 1.099.186 1.097.192 1.097-.074 1.097.113 1.097-.318 1.098-.014 1.098.126 1.097.223 1.097-.191 1.096-.01 1.097.066 1.097-.207 1.097.203 1.098.009.89-.586.642-.89-.239-1.101-.07-1.1-.034-1.1.125-1.098-.162-1.098.3-1.098-.316-1.1.156-1.097.31-1.098-.155-1.098.233-1.098-.52-1.097-.006-1.098.107-1.096.046-1.098.374-1.097-.592-1.089-1.089-.103-1.101-.112-1.101-.34-1.1.407-1.099-.255-1.1-.08-1.099-.058-1.099.34-1.1.053-1.098-.097-1.099.046-1.099-.2-1.098-.049-1.098.289-1.098-.34-1.098.274-1.098-.025-1.098-.185-1.099.003-1.098.034-1.099-.091-1.098.17-1.098.15-1.1-.376-1.097.182-1.098.169-1.098.022-1.099-.312-1.097.082-1.098-.178-1.099.105-1.098.372-1.097-.44-1.097.154-1.098.202-1.098-.128-1.098.21-1.097-.265-1.097.046-1.097.25-1.098-.013-1.098-.13-1.097-.367zM103.323 279.223l-1.097.046-1.096-.148-1.097.414-1.098-.081-1.098-.03-.914.39-.735.914.233 1.1.046 1.101.077 1.099-.013 1.098-.27 1.099.136 1.098.144 1.099-.375 1.098.154 1.098.144 1.098.233 1.098-.35 1.097.356 1.098-.379 1.096-.038 1.098.258 1.096.433.86.86.492 1.101.274 1.102-.177 1.1.011 1.099-.266 1.099.163 1.099.069 1.1-.026 1.099-.054 1.099-.2 1.098.41 1.1-.217 1.097.031 1.099.236 1.097.06 1.099-.497 1.097.505 1.099-.516 1.098.04 1.099.172 1.098.298 1.099-.303 1.098-.051 1.098-.003 1.098-.122 1.098.23 1.099-.065 1.098.009 1.098.294 1.097-.475 1.099.106 1.098-.12 1.097.266 1.098-.057 1.098.023 1.098-.267 1.097.159 1.097.186 1.097-.088 1.098-.248 1.097.002 1.098.51 1.098-.38 1.096.093 1.096-.224 1.097.405 1.097-.304 1.097.12 1.099.288 1.037-.614.439-1.038.04-1.1-.311-1.1-.019-1.1.414-1.098-.254-1.098.006-1.098.163-1.099.137-1.098-.259-1.099.186-1.097.058-1.098-.017-1.098-.09-1.097.08-1.097-.472-1.097.071-1.097-.259-.951-.95-.686-1.102.49-1.101-.237-1.1-.064-1.099.024-1.099.046-1.1.014-1.099.185-1.099-.455-1.099.24-1.098-.159-1.1.358-1.097-.054-1.1-.099-1.097-.11-1.098.134-1.097-.139-1.1-.174-1.097.208-1.099-.165-1.098-.038-1.099.47-1.098-.014-1.099-.088-1.098-.241-1.097.095-1.099-.218-1.098.068-1.098.099-1.097-.147-1.1.14-1.097.092-1.097-.243-1.098.009-1.098.053-1.098-.082-1.097.07-1.098-.088-1.097.303-1.097-.15-1.098-.075-1.098.364-1.096-.457zM301.662 222.255l-1.098.119-1.097.02-1.097.195-1.097.07-1.096-.073-1.097-.257-1.097.062-1.098.344-1.098-.334-1.097-.146-1.097.33-1.097.038-1.098-.082-1.098.084-1.098.075-1.097-.43-1.097-.032-1.098.5-1.1-.434-1.097.326-1.097-.026-1.099-.018-1.098-.247-1.098-.014-1.098.25-1.099.092-1.098-.18-1.098-.158-1.099.395-1.098-.451-1.098.47-1.1-.05-1.097-.188-1.098.068-1.097.162-1.1.028-1.097-.413-1.1-.11-1.098.26-1.099.235-1.099-.449-1.1.203-1.099.21-1.099-.178-1.099-.133-1.1.217-1.101-.15-1.101-.05-.843-.47-.363-.843-.466-1.097.213-1.097.306-1.097-.224-1.098-.088-1.097.018-1.098-.003-1.097.096-1.099-.156-1.098.165-1.099-.039-1.098.013-1.098-.189-1.099-.027-1.098.26-1.101-.353-1.1.641-1.04 1.039-.455 1.098.067 1.097-.119 1.097.387 1.097-.356 1.096.093 1.097.279 1.097-.111 1.098.038 1.098-.076 1.097.004 1.097-.196 1.097.037 1.098.311 1.098-.11 1.098-.215 1.097-.136 1.098-.042 1.098.411 1.098-.25 1.098.004 1.097.186 1.099-.163 1.098.17 1.098-.224 1.098.336 1.099-.457 1.098-.035 1.098.314 1.099.088 1.098-.371 1.099.344 1.098.13 1.098-.134 1.098-.366 1.098.268 1.098.224 1.098-.03 1.1-.322 1.098.242 1.099-.313 1.099.167 1.1.17 1.099.07 1.099-.115 1.1-.207 1.099-.117 1.1.092 1.102.381 1.112.035.523 1.111-.402 1.097.309 1.098-.223 1.096-.17 1.098.198 1.097-.139 1.098.468 1.098-.468 1.098.452 1.099-.46 1.098.267 1.099-.169 1.098.266 1.098-.423 1.099.396 1.1-.326 1.1-.403.81z"/><path fill="#FAECD1" d="M241.218 222.336l-1.099.235-1.097.05-1.097.145-1.096-.269-1.097-.05-1.096.287-1.098.005-1.098-.483-1.097.2-1.098.14-1.097-.362-1.097.088-1.097.093-1.098.117-1.099-.2-1.097.349-1.097-.384-1.098.12-1.099.097-1.098.113-1.097-.367-1.098.342-1.099-.329-1.098.202-1.098.051-1.098-.089-1.098.077-1.1-.054-1.097.014-1.099.112-1.098-.292-1.099.082-1.097.023-1.099.208-1.097-.287-1.099.142-1.098-.169-1.099.48-1.098-.332-1.1-.009-1.099-.211-1.099.498-1.1-.403-1.098.16-1.1.042-1.1.05-1.1-.065-1.102.07-.858-.624-.482-.857.063-1.097.075-1.097.01-1.097-.35-1.098.014-1.097.21-1.098-.151-1.097-.194-1.098.006-1.1.012-1.098.168-1.098.175-1.099.098-1.098-.202-1.098-.205-1.1.37-1.101.355-.887.886-.675 1.098.101 1.098.245 1.097.049 1.096-.347 1.097.074 1.096.131 1.097-.105 1.098.147 1.098-.348 1.098.09 1.096.117 1.098-.068 1.097.288 1.098-.36 1.098.029 1.098.173 1.097.033 1.098-.035 1.098-.17 1.098.252 1.098-.123 1.098.08 1.099.016 1.097.057 1.098-.263 1.099.052 1.098-.19 1.099.208 1.098.292 1.099-.016 1.098-.364 1.099.02 1.097.166 1.099.093 1.097-.03 1.099-.362 1.098.2 1.099.002 1.098-.054 1.099.058 1.1-.12 1.099.4 1.1-.329 1.098.248 1.1-.12 1.099.155 1.101-.317 1.102.048.864.594.542.865.196 1.096-.322 1.098.233 1.096-.167 1.098.289 1.097-.143 1.098-.172 1.098-.07 1.098.39 1.098-.246 1.1.17 1.098-.064 1.098.023 1.098-.328 1.099.362 1.1-.394 1.1-.257.907z"/><path fill="#FFF6EC" d="M180.773 222.325l-1.098-.088-1.098.333-1.096-.136-1.097-.164-1.097.025-1.096.005-1.097.153-1.098-.178-1.098.309-1.098.165-1.097-.474-1.097.092-1.097-.04-1.098.44-1.098-.52-1.098.515-1.097-.434-1.098.049-1.098.334-1.098.044-1.098-.413-1.098-.05-1.098.311-1.098-.3-1.098.036-1.099.32-1.098.113-1.099-.27-1.098.2-1.098-.322-1.099.121-1.098.057-1.098-.026-1.099-.251-1.097.169-1.098.3-1.099-.009-1.099-.39-1.098.139-1.099.188-1.1-.102-1.099-.116-1.099.214-1.099-.05-1.1-.277-1.099-.022-1.101.14-1.101-.155-1.123-.096-.119-1.122-.236-1.097-.113-1.097.177-1.097-.181-1.097.388-1.098-.44-1.098.517-1.097-.252-1.098.136-1.1-.294-1.098.06-1.098-.201-1.099.243-1.098.268-1.098-.078-1.1-.31-1.101.689-.869.869-.742 1.098.077 1.097-.062 1.097.327 1.096-.107 1.097-.01 1.097-.221 1.097.003 1.097.093 1.099.063 1.097-.154 1.097-.016 1.097.07 1.097.08 1.099-.089 1.098-.029 1.097.193 1.097.23 1.098-.128 1.099-.29 1.098.386 1.097-.164 1.098-.165 1.099.053 1.098-.025 1.098-.073 1.098.233 1.098-.292 1.099.375 1.098-.257 1.099.091 1.098-.015 1.099-.154 1.097.014 1.099.437 1.097-.177 1.099.111 1.098-.25 1.099-.09 1.098.054 1.1.185 1.099-.05 1.099.086 1.1-.236 1.098-.024 1.1.392 1.1-.184 1.1-.207 1.102.135.868.524.392.868.405 1.096-.145 1.098-.296 1.096-.087 1.098.288 1.097-.013 1.098-.262 1.098.478 1.098.047 1.098-.355 1.099-.079 1.099-.018 1.098-.002 1.098.455 1.099-.279 1.1-.153 1.1-.199 1.046zM120.328 222.606l-1.098-.351-1.097.046-1.097.393-1.097-.172-1.096-.052-1.097-.13-1.097.297-1.098-.301-1.098.293-1.097-.088-1.097.227-1.097-.43-1.098.233-1.098-.02-1.098-.002-1.097-.244-1.097-.041-1.098.303-1.1.018-1.097-.091-1.097.016-1.098.26-1.1-.258-1.097.077-1.098-.01-1.099-.257-1.098.167-1.098.22-1.098-.049-1.1.06-1.098-.226-1.098.042-1.098.162-1.098-.426-1.097.482-1.1-.067-1.097.088-1.1-.173-1.098-.299-1.099.395-1.099-.024-1.1-.384-1.099.023-1.099.235-1.099-.075-1.1-.045-1.1-.125-1.102.338-.89-.66-.568-.89-.013-1.096.076-1.097.136-1.097.095-1.098-.271-1.097.065-1.098-.045-1.097-.042-1.098.197-1.1.122-1.098-.163-1.098-.38-1.099.35-1.098.016-1.099-.338-1.1.045-1.1.627-.98.98-.434 1.099-.154 1.097.315 1.097.017 1.097.027 1.096-.474 1.097.397 1.097-.102 1.098.062 1.098.02 1.097-.327 1.097.484 1.097-.177 1.098-.24 1.098-.102 1.098.27 1.097-.224 1.098.185 1.098.169 1.098.033 1.098-.165 1.097-.078 1.099.332 1.098-.157 1.098-.354 1.098.068 1.099.437 1.098-.137 1.098-.352 1.099.106 1.098-.105 1.099.012 1.098.494 1.098-.48 1.098.022 1.098.213 1.098.062 1.098.18 1.1-.23 1.098.207 1.099-.485 1.099.12 1.1-.019 1.099.09 1.099-.133 1.1.433 1.099-.139 1.1-.01 1.102-.032 1.061.273.562 1.061-.06 1.097-.124 1.098-.246 1.096.187 1.098.25 1.097-.05 1.098-.182 1.098-.04 1.098.25 1.098-.391 1.1.145 1.098.254 1.098-.024 1.098-.363 1.099.22 1.1-.216 1.1-.423.81zM331.885 197.244l-1.099.039-1.097-.196-1.097-.147-1.096.17-1.097-.073-1.096-.098-1.098.074-1.098.362-1.097-.17-1.098-.19-1.097.301-1.097-.046-1.097-.046-1.098.016-1.099.23-1.097-.446-1.097.443-1.098-.536-1.099.16-1.098.048-1.097.207-1.098.07-1.099-.096-1.098-.165-1.098-.085-1.098-.072-1.098.302-1.1-.115-1.097.201-1.099-.135-1.098.027-1.099.175-1.097-.008-1.099-.338-1.097-.128-1.099.472-1.098-.093-1.099-.298-1.098-.032-1.1.127-1.099.092-1.099-.069-1.1-.113-1.098.405-1.1-.342-1.1.207-1.1-.114-1.102.143-1.008-.567-.466-1.008.108-1.096.088-1.098-.356-1.096.357-1.098-.034-1.097.078-1.098-.307-1.098-.103-1.098.1-1.099.37-1.098-.065-1.099-.4-1.098.234-1.098.167-1.099-.345-1.1-.083-1.1.61-1.057 1.055-.103 1.098-.308 1.098-.196 1.097.376 1.096-.382 1.097.469 1.096-.394 1.097.239 1.098-.027 1.098.105 1.098-.233 1.096.205 1.098-.292 1.097.428 1.098-.417 1.098.052 1.098.313 1.097-.11 1.098-.288 1.098.039 1.098.132 1.098.078 1.098-.141 1.099.04 1.097.198 1.098-.19 1.099-.202 1.098.008 1.099.372 1.098-.35 1.099.163 1.098.212 1.099.019 1.097-.31 1.099.03 1.097.205 1.099-.33 1.098.113 1.099-.016 1.098-.114 1.099.149 1.1.169 1.099-.119 1.1.004 1.098.048 1.1.062 1.099.007 1.101-.088 1.102.234 1.042.155.568 1.042-.425 1.097.368 1.097-.092 1.097.074 1.098-.195 1.097.146 1.098-.293 1.097-.049 1.099.44 1.098-.113 1.099-.245 1.098.116 1.098.306 1.099-.027 1.098-.421 1.1.032 1.101-.32.912zM271.44 197.127l-1.098.325-1.098-.258-1.096-.023-1.097.176-1.097-.069-1.096-.351-1.097.51-1.098-.296-1.098.318-1.098-.044-1.096-.129-1.098-.03-1.097.026-1.098.005-1.098-.016-1.098-.188-1.097.276-1.098-.23-1.098.271-1.098-.016-1.098-.28-1.098-.008-1.098.167-1.098-.126-1.098.265-1.099-.286-1.098.314-1.099-.057-1.098.007-1.098-.23-1.099.14-1.099.065-1.097-.121-1.099.212-1.097-.474-1.098.117-1.099.05-1.099.206-1.098.058-1.099-.335-1.1-.103-1.098.075-1.1.236-1.099-.244-1.1.367-1.099-.443-1.101.106-1.101.344-.986-.631-.688-.986.27-1.096-.233-1.098.367-1.096.11-1.098-.273-1.097.265-1.098-.425-1.098.314-1.098.113-1.099-.15-1.098-.08-1.099.114-1.098.137-1.098-.275-1.099-.017-1.1.072-1.1.483-.882.882-.51 1.098.147 1.097-.144 1.097-.058 1.096.005 1.097-.107 1.097-.017 1.097.278 1.098-.213 1.098-.09 1.097.129 1.097-.084 1.097.299 1.097-.332 1.099.428 1.098-.16 1.097-.086 1.097-.042 1.098.033 1.099.227 1.098-.432 1.097.476 1.098-.085 1.099-.122 1.098.122 1.098-.266 1.098.285 1.098-.182 1.1-.08 1.097.142 1.099.183 1.098-.523 1.099.102 1.097.024 1.099.138 1.097-.045 1.099.264 1.098-.184 1.099-.069 1.098-.007 1.1-.203 1.099.33 1.099.126 1.1-.268 1.098.244 1.1-.189 1.1-.066 1.1.11 1.102.156.957.24.292.957.39 1.097.001 1.097-.183 1.097-.087 1.098-.11 1.097.312 1.098-.38 1.098.23 1.098-.253 1.098.347 1.099.109 1.098-.09 1.098-.261 1.099.341 1.098-.13 1.101-.03 1.1-.4 1.056zM210.995 197.338h-1.098l-1.097-.244-1.097.194-1.097-.171-1.096.08-1.097.032-1.097-.063-1.098.094-1.098.178-1.097-.372-1.097.105-1.097-.072-1.098.372-1.098-.013-1.098-.486-1.097.339-1.097-.275-1.098.406-1.099-.05-1.098-.127-1.097-.283-1.099.223-1.098-.083-1.098-.09-1.098.374-1.099-.383-1.098.082-1.098-.067-1.098.144-1.1-.187-1.098.347-1.098-.358-1.098.015-1.098.093-1.098.145-1.098-.192-1.098.112-1.1.172-1.098-.328-1.099.392-1.099-.154-1.1-.196-1.099.313-1.099.034-1.099-.148-1.1-.268-1.1.309-1.102-.115-1.059-.32-.157-1.059-.035-1.096-.35-1.098.241-1.096-.011-1.098-.158-1.097.188-1.099-.064-1.097.257-1.098-.381-1.098v-1.1l.38-1.097-.296-1.099.185-1.098.112-1.099-.32-1.1.08-1.1.397-.992.99-.387 1.099.217 1.097-.373 1.097-.066 1.097.037 1.096-.063 1.097.304 1.097-.314 1.098.002 1.098.162 1.097-.203 1.097.344 1.097-.183 1.098.001 1.098.32 1.098-.232 1.097-.195 1.098.22 1.098.115 1.098.002 1.098-.326 1.097-.052 1.098.203 1.1.245 1.097-.309 1.098.208 1.099.109 1.098-.168 1.098.036 1.099-.127 1.098.063 1.099.243 1.099-.27 1.097.244 1.098-.458 1.097.045 1.1-.015 1.097-.027 1.1.223 1.098.094 1.099.056 1.099-.144 1.1-.165 1.099.156 1.099-.135 1.099.343 1.1.019 1.101-.186 1.101-.276 1.067.588.216 1.066.181 1.097-.286 1.097.053 1.097.354 1.098-.085 1.097-.302 1.098.442 1.097-.313 1.098.053 1.1.26 1.097-.306 1.1-.058 1.098.371 1.098-.286 1.098.071 1.1-.095 1.101-.16 1.177zM150.55 197.445l-1.098.02-1.097-.422-1.097.048-1.097-.105-1.096-.043-1.097.035-1.097.011-1.098-.072-1.098.236-1.097-.086-1.097.09-1.097-.21-1.097.085-1.099.307-1.097.1-1.098-.02-1.097-.13-1.098.152-1.099-.066-1.097-.283-1.098.252-1.098.104-1.099-.2-1.098-.28-1.098.436-1.098-.137-1.098-.104-1.1.104-1.097-.186-1.099.273-1.098.018-1.099-.357-1.097.24-1.1-.17-1.096.13-1.099.011-1.098-.115-1.099.283-1.098-.38-1.099.141-1.1-.2-1.099.395-1.1-.41-1.098.42-1.1-.28-1.1.32-1.1-.193-1.102.21-.97-.658-.509-.97.314-1.096-.034-1.098-.035-1.096-.351-1.098.135-1.097.233-1.098-.116-1.098-.182-1.098.083-1.099-.217-1.098.047-1.099-.007-1.098.137-1.098-.02-1.099.056-1.1.186-1.1.066-1.185 1.184-.175 1.098-.318 1.098.143 1.097.254 1.096-.238 1.097.128 1.096-.09 1.098.176 1.098-.015 1.097-.08 1.098-.19 1.097.192 1.097.216 1.097-.07 1.098-.402 1.098.003 1.098.229 1.097-.175 1.098-.062 1.098.215 1.098.12 1.098-.085 1.098-.138 1.098-.043 1.098-.01 1.098.098 1.1.034 1.097.114 1.099-.09 1.098-.08 1.099-.103 1.098.057 1.098-.077 1.098.304 1.099-.33 1.097.12 1.098-.085 1.098.421 1.1-.317 1.098-.066 1.1.218 1.098-.287 1.1.266 1.1-.13 1.098-.01 1.1.181 1.099.232 1.101-.405 1.101.366 1.154.014v1.154l.128 1.097.034 1.097.264 1.097-.232 1.098.068 1.097.244 1.098-.428 1.098.353 1.098.08 1.098-.398 1.098.413 1.1-.188 1.097-.147 1.099.335 1.098-.283 1.1.152 1.101-.454 1.095zM90.106 197.353l-1.098-.259-1.098-.1-1.096.014-1.097.31-1.097-.136-1.096-.003-1.097-.115h-1.098l-1.098.225-1.098-.346-1.097.252-1.096-.193-1.098.04-1.098.075-1.098-.025-1.098-.135-1.097.41-1.098-.093-1.098-.302-1.098.277-1.098.053-1.098-.257-1.098.372-1.098-.343-1.098.066-1.099.179-1.098-.208-1.099.256-1.098-.147-1.098-.248-1.099.406-1.099-.128-1.097-.279-1.099.185-1.097.003-1.098.197-1.098.071-1.1-.317-1.098.227-1.099.134-1.1-.117-1.099.085-1.099.024-1.099-.133-1.1-.003-1.099-.294-1.101.114-1.101.32-1.182-.496-.368-1.182-.05-1.096.107-1.098.276-1.096-.4-1.098-.04-1.097.233-1.098.128-1.098-.193-1.098.337-1.099-.26-1.098.21-1.099-.071-1.098-.09-1.098-.057-1.099.215-1.1-.023-1.1.141-1.087 1.087-.102 1.098.007 1.097-.127 1.097-.022 1.097-.338 1.096.332 1.097-.294 1.097.251 1.098-.045 1.098-.143 1.097.388 1.097-.245 1.097-.121 1.097.26 1.099.068 1.098-.095 1.097.053 1.097.016 1.098-.029 1.099-.27 1.098-.138 1.097.264 1.098.015 1.099-.032 1.098-.102 1.098.051 1.098.121 1.099-.239 1.098.405 1.098-.076 1.099-.247 1.098-.078 1.099-.054 1.097.027 1.099-.033 1.097.06 1.099.201 1.098.019 1.099-.053 1.098.193 1.1.029 1.099-.248 1.099.062 1.1.232 1.099-.309 1.099.24 1.1-.446 1.1.223 1.102.016 1.038.4.093 1.04.302 1.096-.213 1.097.028 1.097-.018 1.098.414 1.097-.208 1.098.063 1.097-.02 1.099-.059 1.098-.088 1.099.111 1.098.229 1.098-.497 1.099.217 1.098.284 1.1-.02 1.101-.47 1.186zM301.662 171.673l-1.098.432-1.097-.14-1.097-.283-1.097-.008-1.096.018-1.097.3-1.097-.028-1.098-.198-1.098.325-1.097-.285-1.097.068-1.097-.251-1.098.32-1.098-.16-1.098.162-1.097-.058-1.097-.236-1.098.477-1.1-.168-1.097-.11-1.097-.199-1.099.37-1.098-.34-1.098.173-1.098.244-1.099-.265-1.098-.104-1.098.182-1.099.147-1.098-.361-1.098.022-1.1.435-1.097-.052-1.098-.457-1.097.252-1.1.271-1.097-.458-1.1-.093-1.098.456-1.099-.003-1.099-.016-1.1.046-1.099-.217-1.099-.09-1.099-.104-1.1.332-1.101-.327-1.101.333-.945-.595-.468-.945-.207-1.096-.03-1.098.114-1.097.372-1.097-.263-1.098.057-1.098-.072-1.097-.22-1.098.243-1.099-.191-1.099.046-1.098.432-1.098v-1.099l-.001-1.098-.374-1.1-.075-1.101.537-1.045 1.045-.096 1.098-.34 1.097.126 1.097-.1 1.097.271 1.096-.374 1.097.334 1.097-.114 1.098.133 1.098.023 1.097-.041 1.097-.424 1.097.179 1.098.28 1.098-.015 1.098-.205 1.097.105 1.098-.086 1.098.213 1.098-.501 1.098.504 1.097-.368 1.099-.13 1.098.51 1.098-.08 1.098-.276 1.099.23 1.098-.295 1.098.09 1.099.21 1.098-.35 1.099.342 1.098-.28 1.098.065 1.098.192 1.098-.116 1.098-.097 1.098.022 1.1.126 1.098-.113 1.099-.116 1.099.128 1.1-.157 1.099.28 1.099.162 1.1-.077 1.099-.123 1.1-.245 1.102-.04 1.063.616.17 1.063.44 1.096-.52 1.098.41 1.096.043 1.098-.225 1.097-.103 1.098.107 1.098.15 1.098-.157 1.099.029 1.098.098 1.099.021 1.098-.075 1.098.003 1.1.213 1.1-.468 1.1-.368.83zM241.218 171.712l-1.099-.008-1.097.073-1.097.346-1.096-.276-1.097.05-1.096-.235-1.098.194-1.098.233-1.097-.101-1.098-.032-1.097-.289-1.097-.034-1.097.216-1.098.256-1.099-.253-1.097.252-1.097-.473-1.098.43-1.099-.338-1.098.185-1.097-.106-1.098.29-1.099-.383-1.098.094-1.098-.177-1.098.048-1.098.192-1.1-.216-1.097.429-1.099-.073-1.098-.19-1.099.084-1.097-.2-1.099.245-1.097-.104-1.099.147-1.098-.087-1.099-.004-1.098-.063-1.1.139-1.099-.057-1.099.234-1.1-.429-1.098.085-1.1.331-1.1-.314-1.1-.106-1.102.084-1.154-.16-.512-1.154.016-1.096.116-1.098.013-1.097.03-1.098.28-1.097-.227-1.098-.081-1.097.132-1.098.079-1.099-.088-1.098-.083-1.099-.1-1.098.272-1.099.003-1.098-.033-1.1.158-1.101.297-.883.882-.358 1.098.074 1.098-.472 1.097.208 1.096-.195 1.097.087 1.096.099 1.097.054 1.098.243 1.098-.182 1.098-.225 1.096-.045 1.098.039 1.097.164 1.098-.069 1.098-.12 1.098-.009 1.097.259 1.098-.114 1.098-.168 1.098.418 1.098-.362 1.098.159 1.099-.253 1.097.484 1.098-.085 1.099-.102 1.098-.08 1.099-.233 1.098.5 1.099-.092 1.098-.203 1.099.208 1.097.072 1.099-.018 1.097-.342 1.099-.124 1.098.013 1.099.306 1.098-.298 1.099.019 1.1.41 1.099.08 1.1-.07 1.098-.353 1.1.37 1.099-.2 1.101-.21 1.102.195 1.044.36.084 1.044.116 1.096-.07 1.098.256 1.096.242 1.098-.22 1.097.005 1.098.223 1.098-.251 1.098-.132 1.099-.023 1.098.269 1.099-.344 1.098.125 1.098.284 1.1-.31 1.1-.113 1.1-.041 1.144z"/><path fill="#FAECD1" d="M180.773 171.94l-1.098-.048-1.098.232-1.096-.003-1.097-.217-1.097.166-1.096-.445-1.097.366-1.098-.345-1.098.248-1.098.034-1.097.124-1.097-.166-1.097-.025-1.098-.073-1.098.226-1.098.104-1.097-.118-1.098.092-1.098-.089-1.098.058-1.098-.05-1.098-.198-1.098.225-1.098-.302-1.098.21-1.099-.324-1.098.411-1.099-.095-1.098-.168-1.098.295-1.099-.15-1.098.207-1.098-.332-1.099.018-1.097-.084-1.098.187-1.099-.194-1.099.013-1.098.14-1.099.261-1.1-.125-1.099.024-1.099-.284-1.099.401-1.1-.203-1.099.08-1.101-.159-1.101-.24-1.05-.088-.489-1.05-.134-1.097.348-1.097-.159-1.097.006-1.097.347-1.098-.091-1.098-.158-1.097.142-1.098-.174-1.099-.082-1.099.14-1.098.126-1.098-.053-1.099-.219-1.098.135-1.1-.145-1.101.688-.821.822-.367 1.098.058 1.097-.215 1.097.025 1.096-.235 1.097.152 1.097.05 1.097.035 1.097-.216 1.099-.045 1.097.314 1.097-.198 1.097-.213 1.097.542 1.099-.428 1.098-.113 1.097.293 1.097-.2 1.098.121 1.099.194 1.098.117 1.097-.338 1.098-.01 1.099.313 1.098-.42 1.098.426 1.098-.337 1.098-.124 1.099.3 1.098-.043 1.099.16 1.098-.451 1.099.26 1.097.074 1.099.031 1.097-.068 1.099.029 1.098.214 1.099-.067 1.098-.43 1.1-.048 1.099.085 1.099.149 1.1-.09 1.098.307 1.1-.28 1.1.28 1.1.055 1.102-.213 1.137.248.117 1.138.29 1.096.129 1.098-.498 1.096.207 1.098.146 1.097.13 1.098-.482 1.098.397 1.098-.069 1.099-.24 1.098.181 1.099.208 1.098-.4 1.098-.022 1.1.145 1.1-.15 1.1-.365.86zM59.847 222.548l-1.098-.047-1.097.232-1.097-.003-1.097-.217-1.096.166-1.097-.445-1.097.367-1.098-.345-1.098.248-1.097.034-1.097.123-1.097-.166-1.098-.024-1.098-.074-1.098.227-1.097.104-1.097-.118-1.098.09-1.099-.087-1.098.058-1.097-.05-1.098-.199-1.1.225-1.097-.301-1.098.21-1.099-.325-1.098.411-1.098-.095-1.098-.168-1.1.295-1.097-.15-1.1.208-1.097-.332-1.098.018-1.097-.085-1.1.188-1.097-.195-1.1.014-1.098.138-1.099.262-1.099-.124-1.1.024-1.099-.285-1.099.401-1.099-.203-1.1.08-1.1-.158-1.102-.241-1.05-.087-.488-1.05L5.46 220l.348-1.098-.159-1.096.006-1.098.347-1.097-.09-1.098-.158-1.098.141-1.098-.174-1.099-.081-1.098.14-1.099.125-1.098-.053-1.098-.218-1.1.134-1.1-.144-1.1.688-.821.82-.367 1.099.058 1.097-.215 1.097.026 1.097-.235 1.096.15 1.097.05 1.097.036 1.098-.215 1.098-.046 1.097.314 1.097-.198 1.097-.213 1.098.543 1.098-.429 1.098-.113 1.097.293 1.098-.2 1.098.121 1.098.194 1.098.117 1.097-.338 1.099-.009 1.098.312 1.098-.42 1.098.426 1.099-.336 1.098-.125 1.098.3 1.099-.043 1.098.16 1.099-.45 1.099.259 1.097.074 1.098.032 1.098-.07 1.098.03 1.098.214 1.1-.066 1.098-.43 1.099-.048 1.099.084 1.1.15 1.099-.09 1.099.306 1.1-.28 1.099.28 1.101.055 1.101-.213 1.138.249.116 1.137.29 1.097.13 1.097-.498 1.097.206 1.097.147 1.098.129 1.098-.482 1.097.398 1.099-.07 1.098-.24 1.099.181 1.098.208 1.098-.398 1.099-.024 1.098.145 1.1-.15 1.101-.365.861z"/><path fill="#FFF6EC" d="M120.328 171.731l-1.098.14-1.097-.114-1.097-.114-1.097.12-1.096.08-1.097.211-1.097-.313-1.098-.027-1.098.056-1.097-.103-1.097-.035-1.097.1-1.097.04-1.099.242-1.098-.134h-1.097l-1.098.222-1.097-.286-1.1-.19-1.097.5-1.097-.096-1.099.02-1.098.009-1.098.016-1.098-.074-1.098-.062-1.098-.142-1.1-.074-1.098.25-1.098-.049-1.098-.225-1.1.431-1.096-.195-1.1.073-1.097-.112-1.098-.138-1.098.228-1.099-.015-1.098-.07-1.1-.144-1.099.1-1.1.016-1.099.264-1.099-.022-1.1-.442-1.099.408-1.1-.439-1.102.276-.831-.6-.5-.831-.119-1.096.18-1.098-.258-1.097-.13-1.097.316-1.098-.264-1.098.376-1.097-.068-1.099-.258-1.098.327-1.098-.32-1.099.3-1.098.105-1.099-.152-1.098.008-1.1-.286-1.101.679-.895.895-.398 1.098.12 1.097-.145 1.097-.309 1.097.307 1.096.16 1.097-.45 1.097.36 1.098-.215 1.098.11 1.097.119 1.097-.437 1.097.107 1.097.127 1.099.04 1.098-.057 1.097-.11 1.097.046 1.099.338 1.098-.018 1.098-.12 1.097-.207 1.098-.012 1.099.235 1.098.132 1.098-.337 1.099-.037 1.098-.113 1.098.063 1.099-.021 1.098.195 1.099-.19 1.098.044 1.098.197 1.098-.201 1.097-.046 1.1.458 1.097-.248 1.1-.249 1.098.06 1.099.21 1.099.16 1.1-.446 1.099.386 1.099.064 1.099-.446 1.1.38 1.101-.21 1.101.018.851.63.805.85-.084 1.097.03 1.098-.17 1.096.036 1.098-.085 1.097-.131 1.098.182 1.098.08 1.098.008 1.099.146 1.098-.307 1.099-.22 1.098.54 1.098-.244 1.099.139 1.1-.124 1.1-.458.995zM59.884 171.72l-1.098.277-1.098-.082-1.097.026-1.096.176-1.097-.196-1.097-.115-1.097.128-1.098.069-1.097-.19-1.098.277-1.097.07-1.097-.176-1.097-.027-1.098-.117-1.098.09-1.098-.063-1.097.132-1.098-.284-1.099.434-1.098-.215-1.097-.21-1.098.071-1.099.104-1.098.134-1.098-.267-1.098.187-1.098-.205-1.099-.113-1.098.129-1.099.193-1.098.017-1.099.067-1.097.06-1.099-.032-1.097-.083-1.099-.308-1.098.059-1.099.126-1.098.053-1.1-.145-1.098.375-1.1-.196-1.1.159-1.098-.446-1.1.455-1.1-.247-1.1.179-1.102-.41-.893-.26-.241-.893-.038-1.096-.3-1.098-.1-1.097.312-1.098-.31-1.097.009-1.098.175-1.097.193-1.098-.396-1.099.145-1.098.162-1.099-.057-1.098-.221-1.099.002-1.098.328-1.1-.127-1.101.5-.858.857-.498 1.098.212 1.098-.104 1.097-.31 1.096.355 1.097-.364 1.096-.023 1.097.124 1.098.181 1.098-.175 1.098.26 1.097-.404 1.097.12 1.097.034 1.098.107 1.098-.092 1.098-.063 1.097.35 1.098-.27 1.098.037 1.098.12 1.098-.418 1.098.302 1.099-.045 1.097-.088 1.098.002 1.1.163 1.097-.22 1.099.351 1.098-.44 1.099.175 1.098-.074 1.099.403 1.097-.033 1.098-.244 1.098.058 1.099-.105 1.098.167h1.099l1.098-.265 1.099.146 1.1.26 1.099-.187 1.1.215 1.098-.137 1.1-.158 1.099-.148 1.101.32 1.102-.028 1.107.182.309 1.107-.268 1.096.018 1.098.15 1.096-.141 1.098.308 1.097-.077 1.098-.204 1.098.254 1.098.111 1.099-.437 1.098.291 1.099-.19 1.098.175 1.098.222 1.1-.457 1.1.073 1.1-.267.978zM331.885 146.77l-1.099.037-1.097-.419-1.097.423-1.096.024-1.097-.216-1.096.088-1.098-.094-1.098.09-1.097.049-1.098.115-1.097-.285-1.097.033-1.097-.025-1.098-.055-1.099-.21-1.097.124-1.097.417-1.098-.553-1.099.29-1.098-.142-1.097-.142-1.098.075-1.099.147-1.098-.036-1.098.196-1.098.123-1.098-.498-1.1.143-1.097.081-1.099.156-1.098-.221-1.099-.01-1.097.215-1.099-.118-1.097.274-1.099-.038-1.098-.06-1.099.067-1.098.035-1.1-.179-1.099.092-1.099-.346-1.1-.015-1.098.322-1.1-.2-1.1-.017-1.1.218-1.102.014-1.066-.488-.087-1.066-.17-1.097-.155-1.098.084-1.096-.19-1.098.065-1.097-.143-1.098.331-1.098-.11-1.098.138-1.098-.377-1.099.494-1.099-.079-1.098-.062-1.098.062-1.099-.013-1.1-.218-1.1.63-.868.866-.8 1.098.537 1.098-.17 1.097-.1 1.096-.14 1.097.315 1.096.071 1.097-.425 1.098.39 1.098-.329h1.098l1.096.314 1.098-.315 1.097.203 1.098.029 1.098-.056 1.098-.181 1.097.011 1.098-.156 1.098.156 1.098.302 1.098-.34 1.098.157 1.099.26 1.097-.426 1.098.008 1.099.406 1.098-.05 1.099-.011 1.098-.232 1.099.003 1.098.013 1.099-.032 1.097.09 1.099.1 1.097-.038 1.099-.202 1.098.113 1.099.157 1.098-.133 1.099-.272 1.1.238 1.099.17 1.1-.201 1.098.187 1.1-.158 1.099.06 1.101-.273h1.102l1.096.52.032 1.097.057 1.097.383 1.098-.095 1.096-.004 1.098.145 1.097-.294 1.098.269 1.098-.251 1.098.326 1.098-.07 1.099-.061 1.098-.055 1.098-.047 1.099-.268 1.099-.008 1.1.077 1.1-.165 1.068z"/><path fill="#FAECD1" d="M271.44 146.596l-1.098-.145-1.098-.066-1.096.23-1.097.126-1.097-.142-1.096.247-1.097-.198-1.098.116-1.098-.425-1.098.472-1.096-.201-1.098-.232-1.097.325-1.098-.333-1.098-.004-1.098.213-1.097-.132-1.098.413-1.098-.01-1.098-.313-1.098-.134-1.098.108-1.098.325-1.098-.192-1.098.116-1.099-.206-1.098.228-1.099-.07-1.098.043-1.098-.37-1.099.192-1.099-.232-1.097.142-1.099.114-1.097-.089-1.098-.047-1.099-.017-1.099.363-1.098-.19-1.099.174-1.1-.073-1.098-.226-1.1.008-1.099.108-1.1-.18-1.099-.062-1.101-.023-1.101.008-.93-.241-.743-.93.081-1.096-.07-1.098-.006-1.096.164-1.098.075-1.097.126-1.098-.22-1.098.15-1.098-.175-1.098.23-1.099-.326-1.098.417-1.099-.428-1.098-.016-1.099.012-1.1-.02-1.1.588-1.091 1.09-.488 1.099.245 1.097-.11 1.097.025 1.096.275 1.097-.51 1.097.356 1.097.117 1.098-.201 1.098.089 1.097-.168 1.097-.116 1.097.214 1.097-.176 1.099.32 1.098-.358 1.097.144 1.097.081 1.098-.244 1.099.045 1.098.337 1.097.016 1.098-.358 1.099-.018 1.098.216 1.098.135 1.098-.084 1.098.166 1.1-.507 1.097.366 1.099-.252 1.098.282 1.099-.383 1.097.453 1.099-.39 1.097.286 1.099-.118 1.098-.022 1.099-.042 1.098-.145 1.1.172 1.099.294 1.099-.34 1.1-.086 1.098.16 1.1.106 1.1.084 1.1-.349 1.102.292 1.06.219.281 1.06-.206 1.097.078 1.097.013 1.097-.007 1.098.446 1.097-.146 1.098-.324 1.098.39 1.098-.286 1.098-.028 1.099.362 1.098-.046 1.099-.41 1.098.097 1.099.218 1.1.094 1.1-.439 1.147z"/><path fill="#FFF6EC" d="M210.995 146.77l-1.098-.065-1.097-.276-1.097.423-1.097-.136-1.096-.11-1.097.081-1.097-.235-1.098.1-1.098.279-1.097.008-1.097-.16-1.097-.274-1.098.107-1.098.055-1.098.22-1.097-.138-1.097-.206-1.098.401-1.099-.099-1.098-.346-1.097.185-1.099.088-1.098-.259-1.098.365-1.098-.068-1.099.025-1.098.067-1.098-.426-1.098.106-1.1-.03-1.098.042-1.098.142-1.098-.156-1.098.23-1.098-.142-1.098.274-1.098-.373-1.1-.002-1.098.085-1.099-.123-1.099-.094-1.1.254-1.099-.176-1.099.09-1.099.002-1.1-.17-1.1.23-1.102.08-1.018-.442-.233-1.019-.001-1.096-.214-1.098.114-1.096.182-1.098-.015-1.097-.132-1.098-.162-1.098.26-1.098-.328-1.098.281-1.099-.386-1.098.14-1.099-.084-1.098.156-1.099-.158-1.1.386-1.1.207-1.006 1.005-.165 1.098-.407 1.097.367 1.097.037 1.097-.174 1.096-.031 1.097-.04 1.097-.048 1.098-.215 1.098.514 1.097-.219 1.097.013 1.097.216 1.098-.127 1.098-.267 1.098.305 1.097-.102 1.098.202 1.098-.445 1.098.37 1.098-.205 1.097-.16 1.098.056 1.1.018 1.097.295 1.098-.108 1.099-.18 1.098.005 1.098-.166 1.099.306 1.098-.048 1.099-.063 1.099.164 1.097.005 1.098-.007 1.097.079 1.1-.201 1.097-.008 1.1-.203 1.098.504 1.099-.174 1.099.084 1.1-.072 1.099-.133 1.099.233 1.099-.126 1.1-.164 1.101-.032 1.101-.132 1.081.573.21 1.081-.095 1.097.18 1.097-.203 1.097.468 1.098-.076 1.097-.015 1.098.04 1.097-.114 1.099.104 1.098.059 1.099-.027 1.098.03 1.099-.4 1.098.068 1.099-.026 1.1.128 1.1-.516.896zM150.55 146.375l-1.098.19-1.097.194-1.097-.273-1.097.32-1.096-.185-1.097-.006-1.097.092-1.098-.337-1.098-.043-1.097.232-1.097-.23-1.097.008-1.097.13-1.099.343-1.097.052-1.098-.082-1.097-.36-1.098.097-1.099.148-1.097.13-1.098-.383-1.098.309-1.099.082-1.098-.06-1.098-.219-1.098-.053-1.098.37-1.1-.087-1.097-.074-1.099-.215-1.098.113-1.099.021-1.097-.125-1.1.081-1.096.073-1.099.105-1.098.104-1.099-.313-1.098.13-1.099.04-1.1-.376-1.099.127-1.1-.08-1.098.437-1.1-.085-1.1-.113-1.1-.178-1.102.124-.89-.477-.545-.889.006-1.096-.133-1.098-.107-1.096.334-1.098-.165-1.097.098-1.098-.062-1.098.01-1.098-.129-1.098.188-1.099-.188-1.099-.094-1.098.267-1.098.28-1.098-.109-1.101-.114-1.1.41-.945.943-.723 1.098.203 1.098-.032 1.097-.179 1.096.105 1.097.38 1.096.017 1.098-.474 1.098.31 1.097.18 1.098-.183 1.097-.32 1.097.295 1.097.135 1.098-.153 1.098.033 1.098-.205 1.097.137 1.098-.203 1.098.05 1.098.014 1.098-.043 1.098.161 1.098-.154 1.098.143 1.098.069 1.1.026 1.097-.043 1.099.119 1.098.086 1.099-.26 1.098-.012 1.098-.029 1.098-.124 1.099-.055 1.097.116 1.098-.013 1.098.082 1.1.042 1.098-.03 1.1-.18 1.098.475 1.1-.17 1.1-.063 1.098.218 1.1-.486 1.099.182 1.101-.038 1.101-.029.97.599.613.968-.39 1.097-.03 1.097.496 1.097-.524 1.098.12 1.097.337 1.098-.356 1.098.408 1.098-.473 1.098.062 1.099-.098 1.098.137 1.099.099 1.098.094 1.099.027 1.1.094 1.1-.51 1.076zM90.106 146.374l-1.098.451-1.098-.302-1.096.117-1.097-.22-1.097-.03-1.096.335-1.097-.288-1.098.053-1.098.347-1.098-.375-1.097.06-1.096.211-1.098-.358-1.098.024-1.098.456-1.098-.043-1.097-.07-1.098.08-1.098-.129-1.098.01-1.098-.142-1.098.028-1.098-.149-1.098.142-1.098.241-1.099-.041-1.098.018-1.099.045-1.098-.135-1.098-.33-1.099-.002-1.099.443-1.097-.247-1.099-.138-1.097-.1-1.098.235-1.098.289-1.1-.15-1.098-.12-1.099-.14-1.1-.017-1.099.387-1.099-.219-1.099-.01-1.1-.267-1.099.088-1.101-.069-1.101.196-1.153-.201-.066-1.153-.227-1.097-.035-1.098.026-1.096.267-1.098-.222-1.097.033-1.098-.097-1.098-.145-1.098.404-1.098-.093-1.099-.321-1.098-.002-1.099-.036-1.098.284-1.099.091-1.1-.165-1.1.326-1.13 1.13-.054 1.099-.054 1.097-.182 1.097.06 1.097.192 1.096-.136 1.097-.354 1.097.051 1.098.243 1.098.008 1.097-.231 1.097.298 1.097-.181 1.097.17 1.099-.363 1.098.41 1.097.057 1.097-.487 1.098.237 1.099.203 1.098-.374 1.097-.065 1.098.144 1.099.38 1.098-.238 1.098-.225 1.098.472 1.099-.435 1.098.171 1.098.17 1.099-.416 1.098-.006 1.099.007 1.097.235 1.099.158 1.097-.302 1.099.418 1.098.02 1.099-.495 1.098.15 1.1.077 1.099.21 1.099-.405 1.1-.02 1.099.207 1.099-.245 1.1.462 1.1-.148 1.102-.053 1.12.268.311 1.12-.22 1.097.324 1.097-.162 1.097.164 1.098-.379 1.097.162 1.098.02 1.098-.026 1.098.023 1.098-.065 1.099.023 1.098.072 1.099.259 1.098-.06 1.099-.15 1.1-.226 1.1-.214.977z"/><path fill="#FAECD1" d="M331.745 151.678l-1.098-.4-1.099.455-1.098-.316-1.097-.065-1.097.241-1.098-.087-1.098.023-1.098.018-1.097.098-1.097.05-1.097-.194-1.098-.144-1.098.189-1.097-.228-1.097.167-1.096-.088-1.097-.06-1.097.093-1.097-.156-1.098.511-.992.139-.203.992-.41 1.1.395 1.1.04 1.1-.486 1.098.464 1.098-.262 1.098-.186 1.1.115 1.097.222 1.099-.059 1.097-.152 1.098-.104 1.097.375 1.098-.295 1.097-.008 1.097.076 1.097.315 1.155 1.155.26 1.1.12 1.102-.146 1.1.082 1.1-.117 1.098.315 1.1-.217 1.099.055 1.1-.255 1.098-.107 1.099.242 1.099.073 1.098-.032 1.098.236 1.097-.009 1.1-.076 1.097-.352 1.098.288 1.099-.143 1.098.242 1.098.05 1.1-.513 1.097-.013 1.099.455 1.098-.137 1.098.084 1.098-.126 1.098-.044 1.098.263 1.098-.421 1.098-.01 1.098.47 1.098-.24 1.097.15 1.098-.051 1.098-.164 1.098-.168 1.097.305 1.097-.197 1.097.172 1.098.192 1.098-.497 1.097.502 1.097-.443 1.096.266 1.097-.163 1.096.13 1.098.174 1.098-.394 1.16-.086.03-1.16.263-1.1-.312-1.1.203-1.1-.001-1.098-.069-1.098.38-1.099-.098-1.098-.183-1.099.075-1.098-.184-1.098-.017-1.098.39-1.097-.303-1.098-.157-1.096.085-1.098.153-1.096-.267-1.148-1.148-.072-1.101-.265-1.102.278-1.1-.336-1.098.318-1.1.084-1.099-.23-1.099-.209-1.1.071h-1.099l-1.098.194-1.099.155-1.098-.11-1.099.074-1.097-.307-1.098-.029-1.098.348-1.099-.374-1.098.15-1.098-.213-1.099.4-1.098-.097-1.098.093-1.1-.337-1.097.432-1.098-.168-1.098-.267-1.099-.096z"/><path fill="#FFF6EC" d="M301.662 121.228l-1.098.255-1.097-.272-1.097.305-1.097.032-1.096-.374-1.097-.01-1.097-.018-1.098.12-1.098.088-1.097.025-1.097-.158-1.097-.15-1.098-.044-1.098.148-1.098-.047-1.097-.102-1.097-.002-1.098.269-1.1.244-1.097-.355-1.097-.06-1.099.124-1.098.006-1.098-.05-1.098.134-1.099.171-1.098-.376-1.098.425-1.099-.01-1.098-.504-1.098.006-1.1.36-1.097-.223-1.098.336-1.097-.348-1.1.128-1.097.155-1.1.039-1.098-.166-1.099-.031-1.099-.048-1.1.066-1.099.062-1.099-.305-1.099.396-1.1.049-1.101-.142-1.101.068-.886-.676-.25-.886-.105-1.096.035-1.098-.022-1.096-.062-1.098-.026-1.097-.064-1.098.243-1.098-.453-1.098.29-1.099.029-1.098-.175-1.099.03-1.098.213-1.098-.06-1.1-.009-1.1-.097-1.1.513-.856.856-.3 1.098-.499 1.097.269 1.097.043 1.097.144 1.096-.354 1.097.167 1.097.243 1.098-.175 1.098.045 1.097-.381 1.097.139 1.097.138 1.098.223 1.098-.336 1.098-.149 1.097.446 1.098-.15 1.098-.3 1.098.24 1.098-.09 1.097-.076 1.099.257 1.098.144 1.098-.003 1.098-.05 1.099-.098 1.098-.21 1.098.022 1.099.117 1.098-.073 1.099-.093 1.098-.023 1.098.144 1.098-.014 1.098-.05 1.098-.136 1.098.486 1.1-.026 1.098-.074 1.099-.21 1.099-.175 1.1.213 1.099-.2 1.099.042 1.1.01 1.099.266 1.1-.12 1.102-.165.96.627.343.961-.018 1.096-.07 1.098.114 1.097.23 1.097.06 1.098-.452 1.098.29 1.097.017 1.098-.186 1.099.34 1.098-.07 1.099-.137 1.098.12 1.099-.011 1.098.138 1.1-.18 1.101-.615.873zM241.217 121.55l-1.097-.504-1.098.367-1.097-.242-1.096.284-1.097-.122-1.097-.12-1.097-.109-1.098.448-1.098-.54-1.097.125-1.097.305-1.097.108-1.097-.361-1.098.225-1.098-.265-1.098-.04-1.097-.06-1.098.147-1.099-.077-1.098-.051-1.097.24-1.098.166-1.099-.201-1.098.29-1.098-.207-1.098.009-1.098-.104-1.099.162-1.098-.343-1.099.08-1.098.27-1.1-.14-1.096.118-1.099.009-1.097-.37-1.099.491-1.098-.295-1.099.247-1.098.049-1.1-.223-1.099.163-1.099-.26-1.1-.022-1.099.232-1.099.127-1.1-.159-1.1-.074-1.102-.008-1.12-.313-.178-1.12-.176-1.096.216-1.098-.186-1.096-.073-1.098.06-1.097-.148-1.098.04-1.098.076-1.098-.058-1.099.296-1.099.024-1.098-.402-1.098.215-1.098-.165-1.1.262-1.1-.359-1.1.657-1.02 1.02-.467 1.097.22 1.098-.02 1.097-.052 1.096.013 1.097-.235 1.097.424 1.096-.3 1.098.042 1.098-.28 1.098.39 1.097.143 1.096-.165 1.098-.098 1.098-.204 1.098.103 1.097.2 1.098-.252 1.098-.062 1.098.252 1.098.065 1.098-.09 1.098.258 1.099-.133 1.097-.197 1.098-.097 1.1.223 1.097.103 1.099-.03 1.098-.37 1.099.045 1.098-.08 1.099.299 1.097-.103 1.098-.05 1.098.333 1.099-.196 1.097-.287 1.1.112 1.098.361 1.099.046 1.099-.078 1.1-.164 1.1-.25 1.098.22 1.1-.099 1.099.293 1.101-.35 1.101-.028 1.028.585.409 1.027-.212 1.096.258 1.098.2 1.097-.17 1.098-.161 1.096-.083 1.099-.035 1.097.051 1.098-.099 1.099.25 1.098.077 1.099-.23 1.098-.138 1.099.422 1.098.04 1.1-.26 1.101-.214 1.132zM180.773 121.044l-1.098.404-1.097.055-1.098.004-1.096-.192-1.096-.264-1.097.485-1.097-.256-1.098-.156-1.098.016-1.097.054-1.097.196-1.098-.174-1.097-.021-1.098.258-1.098-.44-1.098.442-1.097-.012-1.098.073-1.099-.42-1.097.195-1.098.112-1.098.132-1.098-.076-1.098-.002-1.098-.308-1.099.296-1.098-.006-1.099.01-1.098-.02-1.098-.309-1.099.318-1.099.019-1.097-.177-1.099-.009-1.097.11-1.098-.295-1.099.369-1.098-.062-1.099-.165-1.099.096-1.1-.1-1.099.172-1.099-.197-1.1.313-1.098-.205-1.1-.28-1.101.293-1.102-.188-.817-.432-.774-.818.206-1.096-.228-1.098.074-1.096.37-1.098-.186-1.097.201-1.098-.026-1.098.05-1.098-.462-1.099-.023-1.099.41-1.098-.096-1.098-.02-1.098-.319-1.1.497-1.1-.41-1.1.583-.97.97-.174 1.098-.185 1.098-.296 1.097.399 1.097-.096 1.096-.256 1.096.195 1.098-.097 1.097.03 1.098.297 1.098-.126 1.097-.032 1.097.102 1.098-.199 1.098.196 1.098-.178 1.097.026 1.097.204 1.098-.23 1.099.108 1.098-.257 1.097.379 1.098-.096 1.099.045 1.098-.027 1.098-.36 1.099-.075 1.098.538 1.098-.048 1.098-.069 1.099-.214 1.098.029 1.1.297 1.097-.495 1.098.352 1.097-.228 1.099.23 1.098-.17 1.099.017 1.098-.238 1.1.064 1.098.258 1.1-.317 1.1.334 1.098-.125 1.1-.065 1.1.32 1.1-.435 1.102.214 1.122.302.319 1.122.19 1.096-.262 1.098.02 1.097-.076 1.098-.174 1.096.148 1.099.357 1.097-.04 1.098.05 1.099-.153 1.098-.147 1.1.174 1.097-.318 1.099-.046 1.098.319 1.1.184 1.101-.844.823zM120.328 121.175l-1.098-.141-1.097.472-1.097-.49-1.097.37-1.096-.242-1.097-.045-1.097.414-1.098.013-1.098-.427-1.097.347-1.097-.148-1.097-.065-1.098.021-1.098.042-1.098.114-1.097-.372-1.097.195-1.098.304-1.1.002-1.097-.394-1.097.366-1.098.044-1.1-.178-1.097-.221-1.098.121-1.099.199-1.098-.41-1.098.44-1.098-.45-1.1.131-1.098-.149-1.098-.026-1.098.085-1.098.156-1.097.024-1.1.03-1.097-.089-1.1-.15-1.098.313-1.099.06-1.099.012-1.1.108-1.099-.092-1.099-.25-1.099.196-1.1-.249-1.1.277-1.102.1-.825-.836-.514-.825-.162-1.096-.06-1.098.2-1.097.042-1.097.022-1.097.01-1.099-.26-1.097.366-1.098.01-1.099.018-1.098-.481-1.099.433-1.098.02-1.098-.45-1.1.117-1.1-.094-1.1.622-.986.986-.583 1.098-.044 1.097.344 1.097-.058 1.097.143 1.096-.418 1.097-.016 1.097.122 1.098-.184 1.098.384 1.097.088 1.097-.013 1.097-.254 1.098.062 1.098-.092 1.098-.1 1.097.142 1.098-.099 1.098.026 1.098.324 1.098-.276 1.097.035 1.099-.008 1.098-.205 1.098.072 1.098-.006 1.099.052 1.098.28 1.098-.052 1.099.16 1.098-.485 1.099.017 1.098.46 1.098-.247 1.098-.084 1.098.004 1.098.31 1.098-.25 1.1-.04 1.098.314 1.099-.162 1.099-.297 1.1.38 1.099-.349 1.099.269 1.1.177 1.099-.361 1.1-.142 1.102.222 1.155.27.273 1.154.06 1.096-.358 1.098.324 1.097-.27 1.097.4 1.098-.416 1.098.108 1.097-.08 1.098.335 1.099-.078 1.098-.088 1.099.068 1.098.068 1.099-.152 1.098-.017 1.1-.17 1.101-.055 1.107zM59.884 121.56l-1.098-.245-1.098-.176-1.097.114-1.096-.231-1.097.254-1.097-.186-1.097-.025-1.098.426-1.097-.174-1.098-.24-1.097.24-1.097-.161-1.097-.08-1.098-.059-1.098.372-1.098.074-1.097-.406-1.098.097-1.099.084-1.098.023-1.097.087-1.098.013-1.099.186-1.098-.177-1.098-.005-1.098.054-1.098-.034-1.099-.337-1.098.396-1.099-.324-1.098-.093-1.099.414-1.097-.134-1.099.224-1.097-.311-1.099.164-1.098-.12-1.099-.009-1.098.269-1.1-.332-1.098-.039-1.1.096-1.1-.004-1.098.228-1.1-.266-1.1.266-1.1-.324-1.102.351-1.169-.45-.228-1.168.15-1.096-.255-1.098.313-1.096-.172-1.098-.233-1.097-.001-1.098-.072-1.098.415-1.098-.105-1.099.2-1.098-.223-1.099.097-1.098-.17-1.098.099-1.1-.15-1.1.162-1.1.226-1.116 1.116-.21 1.098-.075 1.098-.06 1.097.124 1.096.095 1.097-.007 1.096-.284 1.097.215 1.098-.333 1.098.465 1.098-.16 1.097.131 1.097-.196 1.097-.011 1.098.274 1.098-.094 1.098.021 1.097-.183 1.098-.178 1.098.384 1.098.001 1.098-.174 1.098-.185 1.099.363 1.097.02 1.098-.43 1.1.394 1.097.05 1.099-.443 1.098-.007 1.099.29 1.098-.197 1.099-.01 1.097.329 1.098-.12 1.098-.216 1.099.055 1.098.24 1.099.104 1.098-.532 1.099.526 1.1-.502 1.099.368 1.1-.132 1.098.143 1.1-.277 1.099.2 1.101-.336 1.102.323 1.027.325.378 1.028.276 1.096-.163 1.098-.21 1.097.14 1.097.006 1.098.184 1.098-.34 1.097.29 1.098.057 1.099-.386 1.098-.118 1.099.535 1.098-.392 1.099-.128 1.098.217 1.1-.08 1.101-.48.814zM331.885 96.149l-1.099-.274-1.097-.077-1.097.029-1.096-.099-1.097.303-1.096-.1-1.098.057-1.098.126-1.097-.285-1.098.338-1.097-.073-1.097.055-1.097.02-1.098-.455-1.099.498-1.097-.421-1.097.076-1.098.211-1.099.068-1.098-.264-1.097-.067-1.098.276-1.099.104-1.098-.243-1.098.246-1.098-.04-1.098-.03-1.1-.005-1.097-.071-1.099-.335-1.098-.009-1.099.389-1.097-.217-1.099.026-1.097.078-1.099.22-1.098-.195-1.099-.1-1.098-.134-1.1-.065-1.099.095-1.099.271-1.1-.184-1.098.24-1.1-.252-1.1-.17-1.1.385-1.102-.219-1.15-.147-.14-1.15-.341-1.096.051-1.098.032-1.096-.054-1.098.326-1.097-.372-1.098.338-1.098-.118-1.098.168-1.098-.282-1.099-.077-1.098.027-1.098.44-1.099-.409-1.098.144-1.101-.064-1.1.344-1.137 1.137-.54 1.098.163 1.098-.092 1.097.114 1.096.353 1.097-.32 1.096.042 1.097.213 1.098-.349 1.098.36 1.098-.183 1.096-.288 1.098.238 1.097-.115 1.098.255 1.098-.19 1.098-.104 1.097.407 1.098-.486 1.098.491 1.098-.482 1.098.318 1.098.083 1.099-.245 1.097-.027h1.098l1.099.135 1.098.044 1.099.105 1.098-.071 1.099-.088 1.098-.276 1.099.09 1.097.109 1.099.214 1.097-.35 1.099-.025 1.098.334 1.099-.058 1.098-.067 1.099-.197 1.1.27 1.099-.246 1.1.271 1.098.078 1.1-.078 1.099-.053 1.101.043 1.102.064.851.421.786.852-.469 1.096.124 1.098.1 1.096.116 1.098.013 1.097-.014 1.098-.31 1.098.201 1.098-.167 1.098.187 1.099-.074 1.099-.201 1.098.008 1.098.411 1.099-.054 1.1.169 1.1-.664 1.014zM271.44 96.076l-1.098-.097-1.098.187-1.096-.016-1.097-.154-1.097.128-1.096.035-1.097-.282-1.098.176-1.098-.243-1.098.321-1.096-.225-1.098.092-1.097.265-1.098-.332-1.098-.164-1.098.088-1.097.382-1.098-.017-1.098-.248-1.098.224-1.098-.107-1.098-.279-1.098.135-1.098.135L244 95.86l-1.099-.15-1.098.236-1.099.015-1.098-.246-1.098.476-1.099-.292-1.099.028-1.097-.205-1.099.024-1.097.29-1.098.006-1.099.026-1.099-.05-1.098.13-1.099-.36-1.1.016-1.098.19-1.1.13-1.099-.056-1.1.18-1.099-.53-1.101.525-1.101-.485-1.006-.171-.483-1.006.056-1.097.296-1.097-.218-1.097-.095-1.098-.112-1.097.004-1.098.05-1.098-.115-1.098.465-1.098-.5-1.099.031-1.098.136-1.098.053-1.099-.068-1.099.366-1.1-.326-1.1.495-.971.97-.661 1.099.226 1.097-.207 1.097.08 1.096.185 1.097-.275 1.097.172 1.097-.13 1.098.177 1.098.211 1.097-.414 1.097.066 1.097.18 1.097-.262 1.099.456 1.098-.045 1.097.009 1.097-.11 1.098-.171 1.099.324 1.098-.288 1.097.164 1.098-.142 1.099.097 1.098.05 1.098-.07 1.098-.129 1.098.198 1.1.103 1.097-.234 1.099-.253 1.098.265 1.099.133 1.097-.036 1.099.005 1.097-.045 1.099.085 1.098-.36 1.099.03 1.098.451 1.1-.43 1.099.399 1.099-.217 1.1.164 1.098-.268 1.1.173 1.1-.179 1.1.194 1.102.105 1.182.012.01 1.182.304 1.097-.223 1.098.06 1.096-.057 1.098-.038 1.097.277 1.098-.298 1.098-.08 1.098.455 1.098.002 1.099-.435 1.099.284 1.098.044 1.098-.038 1.099-.252 1.1.372 1.1-.653.917zM210.995 96.26l-1.098-.26-1.097.13-1.097-.399-1.097.285-1.096-.244-1.097.465-1.097-.049-1.098-.408-1.098.375-1.097.03-1.097-.105-1.097-.372-1.098.214-1.098.175-1.098-.217-1.097-.099-1.097.34-1.098-.191-1.099-.142-1.098.014-1.097.234-1.099-.254-1.098-.012-1.098.049-1.098.035-1.099-.137-1.098.268-1.098.083-1.098.173-1.1-.216-1.098.199-1.098-.377-1.098-.072-1.098.02-1.098.241-1.098-.07-1.098-.107-1.1.4-1.098-.4-1.099-.004-1.099-.085-1.1.463-1.099-.421-1.099.298-1.099-.344-1.1.346-1.1-.314-1.102.043-.948-.313-.554-.948.266-1.097-.387-1.097.372-1.097-.29-1.098-.094-1.097.083-1.098-.06-1.097-.02-1.099-.05-1.098.178-1.099.342-1.098-.287-1.098.296-1.099-.104-1.099-.358-1.1.359-1.1.085-1.17 1.17-.268 1.099.094 1.097-.278 1.097.317 1.097-.2 1.096-.035 1.097.075 1.097-.19 1.098.014 1.098.499 1.097-.335 1.097-.147 1.097.367 1.098-.249 1.098.175 1.098.107 1.097-.372 1.098.054 1.098-.056 1.098.127 1.098.238 1.097-.29 1.098-.06 1.1-.06 1.097.258 1.098.106 1.099.087 1.098-.176 1.098-.168h1.099l1.098.131 1.099-.064 1.099.327 1.097-.212 1.098-.096 1.097-.184 1.1.358 1.097-.244 1.1.381 1.098-.45 1.099.176 1.099.127 1.1-.192 1.099-.16 1.099.313 1.099-.34 1.1.223 1.101-.015 1.101-.178 1.093.542.153 1.093.102 1.096-.04 1.098.2 1.096-.377 1.098.375 1.097-.31 1.098.417 1.098-.073 1.098-.262 1.098.103 1.099-.022 1.098.12 1.099-.288 1.098.193 1.099.052 1.1.06 1.1-.506.99zM150.55 96.143l-1.098-.023-1.097-.32-1.097.429-1.096-.016-1.097-.384-1.096-.088-1.098.112-1.098-.069-1.097-.046-1.098.092-1.097-.121-1.097.281-1.097-.256-1.098.057-1.098.423-1.098-.425-1.097.195-1.098.156-1.099-.14-1.098.095-1.097.141-1.098-.352-1.099.09-1.098-.222-1.098-.019-1.098.505-1.098-.446-1.099.043-1.098-.112-1.099.15-1.098.074-1.099.298-1.097-.008-1.099.006-1.097-.053-1.099-.115-1.098-.301-1.099.062-1.098-.125-1.1.464-1.098-.063-1.1-.321-1.1.004-1.098.139-1.1-.027-1.1-.192-1.1.227-1.102.1-.888-.574-.588-.888.219-1.097-.095-1.098-.236-1.096.329-1.098.03-1.097-.172-1.098-.225-1.098.19-1.098.067-1.098.005-1.099.047-1.098-.244-1.098.146-1.099.16-1.098.083-1.101.033-1.1.059-1.081 1.08-.602 1.098.36 1.098.187 1.097-.524 1.096.127 1.097.11 1.096-.023 1.097.15 1.098-.366 1.098-.016 1.098.198 1.097.34 1.097-.253 1.097-.288 1.098.357 1.098-.02 1.098-.133 1.097.22 1.098.066 1.098.05 1.098-.272 1.098-.232 1.098.03 1.099.441 1.097-.29 1.098.24 1.1-.344 1.097.42 1.099-.004 1.098-.175 1.099-.037 1.098.03 1.099.095 1.097-.13 1.098-.08 1.098-.196 1.099.136 1.098-.082 1.099.435 1.098-.113 1.099-.13 1.1-.13 1.099.245 1.1-.173 1.098.148 1.1-.123 1.099.167 1.101.133 1.102-.537.974.694.47.975-.197 1.096.217 1.098-.036 1.096-.194 1.098.2 1.097.197 1.098-.188 1.098-.008 1.098.117 1.098-.4 1.099.011 1.099.335 1.098.168 1.098-.431 1.099.132 1.1.313 1.1-.676 1.005z"/><path fill="#FAECD1" d="M90.106 96.216l-1.098-.1-1.098.074-1.096-.097-1.097-.16-1.097.315-1.096-.112-1.097-.247-1.098-.158-1.098.4-1.098-.317-1.097.441-1.096-.09-1.098-.258-1.098.249-1.098-.303-1.098.064-1.097.179-1.098-.32-1.098.426-1.098-.183-1.098-.118-1.098.321-1.098-.047-1.098-.15-1.098.08-1.099.106-1.098-.243-1.099.013-1.098-.108-1.098.172-1.099.116-1.099-.076-1.097-.224-1.099.04-1.097.119-1.098.18-1.098-.375-1.1.038-1.098.211-1.099-.06-1.1-.23-1.099.059-1.099-.023-1.099-.048-1.1.391-1.099-.145-1.101-.014-1.101.174-.987-.612-.382-.986.16-1.097-.465-1.097.127-1.097.356-1.098-.153-1.097-.167-1.098.293-1.098-.172-1.098-.033-1.098-.082-1.099-.11-1.098.405-1.098-.023-1.099-.41-1.099.464-1.1-.467-1.1.584-1.062 1.062-.273 1.098-.191 1.097.106 1.097.148 1.097.127 1.096-.397 1.097.226 1.097-.344 1.098.306 1.098.208 1.097-.258 1.097-.142 1.097.075 1.097-.091 1.099.047 1.098-.11 1.097.42 1.097-.208 1.098.248 1.099-.105 1.098-.183 1.097-.122 1.098.061 1.099.238 1.098-.072 1.098-.104 1.098-.223 1.099.267 1.098-.216 1.098.363 1.099-.137 1.098.04 1.099-.076 1.097.108h1.099l1.097.066 1.099-.394 1.098.34 1.099.117 1.098-.293 1.1.23 1.099-.25 1.099-.108 1.1.397 1.099-.255 1.099.183 1.1-.172 1.1-.107 1.102.067.948.557.577.947-.358 1.097.474 1.098-.216 1.096.013 1.098.157 1.097-.11 1.098-.082 1.098.26 1.098-.522 1.098.108 1.099-.092 1.099.263 1.098.105 1.098-.384 1.099.421 1.1v1.1l-.473 1.09z"/><path fill="#FFF6EC" d="M301.662 70.78l-1.098.07-1.097.04-1.097-.414-1.097.015-1.096.462-1.097-.235-1.097-.155-1.098-.136-1.098.22-1.097.06-1.097-.07-1.097-.095-1.098-.06-1.098.455-1.098-.193-1.097-.08-1.097.021-1.098-.145-1.1.272-1.097-.293-1.097.01-1.099.281-1.098.105-1.098-.12-1.098-.062-1.099-.24-1.098.034-1.098.093-1.099.218-1.098-.428-1.098.083-1.1-.065-1.097.054-1.098-.068-1.097.266-1.1-.107-1.097.385-1.1-.085-1.098.079-1.099-.163-1.099-.354-1.1.102-1.099.088-1.099.22-1.099.04-1.1-.115-1.101-.044-1.101.1-.965-.584-.555-.965-.088-1.096.027-1.098.193-1.096.076-1.098-.138-1.097-.156-1.099.267-1.097.12-1.098-.436-1.098.031-1.1.274-1.098-.283-1.098.414-1.098-.111-1.1.18-1.1-.103-1.1.09-1.163 1.163-.046 1.098-.076 1.097-.36 1.097.392 1.097-.015 1.096-.209 1.097.331 1.097-.307 1.098-.217 1.098.297 1.097.028 1.097-.169 1.097.048 1.098-.053 1.098.106 1.098-.021 1.097.101 1.098-.17 1.098.201 1.098-.374 1.098.14 1.097.138 1.099.114 1.098-.313 1.098.02 1.098.344 1.099-.432 1.098.226 1.098-.178 1.099.298 1.098.104 1.099-.177 1.098-.205 1.098.134 1.098-.051 1.098.047 1.098-.005 1.098.129 1.1.043 1.098.05 1.099-.02 1.099.068 1.1-.134 1.099-.285 1.099.033 1.1.353 1.099.094 1.1-.25 1.102-.21 1.138.463.262 1.138.082 1.097-.188 1.097.194 1.097-.303 1.097.1 1.098.35 1.098-.411 1.097.374 1.098-.1 1.099.175 1.099-.03 1.098-.028 1.098-.235 1.099-.133 1.098.014 1.1.37 1.101-.625 1.006zM241.218 70.82l-1.099-.063-1.097.065-1.097-.135-1.096.176-1.097-.137-1.096.019-1.098-.155-1.098-.167-1.097.217-1.098-.072-1.097.003-1.097.37-1.097-.472-1.098-.038-1.099.052-1.097.078-1.097.26-1.098-.144-1.099-.162-1.098.392-1.097-.47-1.098.021-1.099.118-1.098.295-1.098.085-1.098-.325-1.098-.154-1.1.19-1.097-.184-1.099.007-1.098.405-1.099-.064-1.097-.252-1.099.32-1.097-.454-1.099.113-1.098-.13-1.099.171-1.098-.075-1.1.081-1.099-.047-1.099-.081-1.1-.024-1.098.245-1.1-.245-1.1.458-1.1-.2-1.102-.14-1.037-.257-.55-1.037.196-1.096-.015-1.098.243-1.096-.05-1.098-.337-1.097.196-1.099.181-1.097-.508-1.098.515-1.098-.301-1.1.251-1.098.038-1.098-.053-1.098.071-1.099-.246-1.1.056-1.1.299-1.053 1.051-.147 1.098.055 1.098-.358 1.097.04 1.096.23 1.097-.37 1.096.148 1.097.073 1.098-.027 1.098-.268 1.098.183 1.096.181 1.098-.338 1.097.214 1.098-.01 1.098-.169 1.098.304 1.097.002 1.098.134 1.098-.204 1.098-.27 1.098.068 1.098.375 1.099-.04 1.097-.393 1.098.095 1.099.194 1.098.136 1.099-.013 1.098.006 1.099-.338 1.098.097 1.099.045 1.097-.24 1.099.421 1.097-.011 1.099-.184 1.098.262 1.099-.069 1.098.09 1.099-.054 1.1-.092 1.099-.143 1.1-.014 1.098-.213 1.1.151 1.099.079 1.101.004 1.102-.244 1.051.622.117 1.052.021 1.097.033 1.097.325 1.097-.306 1.098.14 1.097.077 1.098-.172 1.097.083 1.098-.015 1.099-.177 1.098.263 1.1-.22 1.097.371 1.099-.187 1.098-.274 1.1.373 1.101-.392 1.112z"/><path fill="#FAECD1" d="M180.773 70.424l-1.098.234-1.098-.24-1.096.167-1.097.222-1.097-.391-1.096.266-1.097-.01-1.098.264-1.098-.227-1.098-.303-1.097.064-1.097.4-1.097-.114-1.098-.2-1.098.305-1.098-.22-1.097-.216-1.098.416-1.098-.294-1.098.09-1.098-.06-1.098.104-1.098.165-1.098-.02-1.098-.273-1.099.262-1.098.114-1.099-.346-1.098-.01-1.098.228-1.099.08-1.098-.3-1.098-.084-1.099.176-1.097.124-1.098-.065-1.099-.257-1.099.408-1.098-.375-1.099.143-1.1-.166-1.099-.025-1.099.476-1.099-.428-1.1-.086-1.099.43-1.101-.286-1.101-.16-.851-.278-.811-.85.15-1.097.185-1.098-.14-1.096.072-1.098-.173-1.097.13-1.099-.11-1.097.314-1.098-.062-1.099-.183-1.098.067-1.099-.08-1.098.207-1.098.053-1.099-.221-1.1-.088-1.101.537-1.003 1.004-.356 1.098.07 1.097-.025h1.097l1.096-.304 1.097.166 1.097.263 1.097-.212 1.097.135 1.099-.073 1.097-.217 1.097.072 1.097.01h1.097l1.099-.018 1.098-.16 1.097.162 1.097.256 1.098.042 1.099-.072 1.098.114 1.097-.059 1.098-.237 1.099.026 1.098-.058 1.098.163 1.098-.192 1.098-.145 1.099.122 1.098-.127 1.099.271 1.098.125 1.099-.298 1.097-.108 1.099.067 1.097.04 1.099.353 1.098.016 1.099-.24 1.098.297h1.1l1.099-.145 1.099-.168 1.1-.048 1.098.257 1.1-.445 1.1.286 1.1.062 1.102-.319.81.843.615.811-.218 1.097.142 1.097.026 1.097.227 1.098-.312 1.097.326 1.098-.272 1.097.287 1.099-.349 1.098.215 1.098-.35 1.1.1 1.097-.062 1.099.162 1.098.148 1.1.048 1.101-.497 1.047z"/><path fill="#FFF6EC" d="M120.328 70.441l-1.098.063-1.097.1-1.097.059-1.097.2-1.096.09-1.097-.49-1.097.264-1.098.063-1.098-.285-1.097.439-1.097-.49-1.097.375-1.098-.378-1.098-.002-1.098.133-1.097-.065-1.097.085-1.098.024-1.1.23-1.097-.165-1.097.162-1.098-.254-1.1-.162-1.097.352-1.098.14-1.099-.136-1.098-.08-1.098.032-1.098-.04-1.1-.109-1.098.201-1.098-.039-1.098-.352-1.098.104-1.097.228-1.1.105-1.097.014-1.1-.046-1.098-.3-1.099.137-1.099.23-1.1-.165-1.099.207-1.099-.035-1.099-.025-1.1-.266-1.1.007-1.102.166-1.048-.441-.41-1.049-.057-1.096.235-1.098.14-1.096-.385-1.098.394-1.097-.45-1.099.436-1.097-.304-1.098-.145-1.098.351-1.1-.398-1.098.353-1.098.121-1.098-.46-1.099.483-1.1-.117-1.101.155-1.105 1.106-.231 1.098-.32 1.097.428 1.097-.386 1.097.266 1.096-.284 1.097.29 1.097.047 1.098-.063 1.098-.013 1.097-.109 1.097.036 1.097.302 1.098-.146 1.098.085 1.098-.191 1.097-.232 1.098.07 1.098.4 1.098-.33 1.098.325 1.097-.15 1.099-.252 1.098-.022 1.098-.086 1.098.186 1.099-.02 1.098.041 1.098.173 1.099.146 1.098-.147 1.099-.096 1.098-.11 1.098.137 1.098-.273 1.098.09 1.098.076 1.098-.044 1.1.157 1.098-.074 1.099-.1 1.099.036 1.1.251 1.099.068 1.099-.071 1.1-.143 1.099.05 1.1-.137 1.102.255 1.082.139.402 1.081-.16 1.097.036 1.097-.195 1.097.15 1.098.009 1.096.046 1.099.065 1.097-.255 1.098.058 1.099-.023 1.098.223 1.1-.148 1.097-.086 1.099.007 1.099.21 1.1-.274 1.1-.17.977zM59.884 70.576l-1.098-.155-1.098.498-1.097-.41-1.096.012-1.097.271-1.097.03-1.097.076-1.098-.423-1.097.196-1.098.208-1.097-.395-1.097.296-1.097-.226-1.098.348-1.098.008-1.098-.127-1.097-.112-1.098.27-1.099-.297-1.098-.006-1.097-.136-1.098.231-1.099-.312-1.098.173-1.098.352-1.098-.162-1.098.1h-1.099l-1.098-.356-1.099.077-1.098.027-1.099.016-1.097.024-1.099-.24-1.097.509-1.099-.232-1.098.183-1.099-.062-1.098.11-1.1-.121-1.098-.244-1.1.378-1.1-.357-1.098.057-1.1-.213-1.1-.033-1.1.447-1.102-.118-1.15-.308-.088-1.15V68.18l-.378-1.098.454-1.096-.023-1.098-.4-1.097.11-1.098.168-1.098-.202-1.098-.148-1.099.492-1.098-.27-1.099-.115-1.098.232-1.098.123-1.1-.405-1.1-.026-1.1.438-1.188 1.188-.111 1.098-.258 1.098-.015 1.097-.098 1.096.528 1.097-.37 1.096.113 1.097-.047 1.098-.114 1.098-.012 1.098.307 1.097-.166h1.097l1.097-.158 1.098.061 1.098-.038 1.098-.091 1.097-.006 1.098.508 1.098-.059 1.098-.125 1.098.204 1.098-.264 1.099-.136 1.097.036 1.098.16 1.1-.005 1.097.008 1.099-.126 1.098-.128 1.099-.066 1.098.123 1.099-.032 1.097.096 1.098-.026 1.098.05 1.099.247 1.098-.461 1.099.08 1.098.047 1.099.126 1.1.02 1.099.237 1.1-.167 1.098-.28 1.1.202 1.099.148 1.101-.322 1.102.295 1.14.133.371 1.14-.35 1.097.156 1.097.023 1.097-.078 1.097.278 1.098-.232 1.098.349 1.097-.191 1.098.002 1.099-.188 1.099-.07 1.098-.031 1.098.451 1.099.014 1.098-.426 1.1-.054 1.101-.297.868z"/><path fill="#FAECD1" d="M271.44 45.302l-1.098.214-1.098-.006-1.096.138-1.097-.386-1.097-.06-1.096.23-1.097-.106-1.098.213-1.098.034-1.098-.227-1.096.157-1.098.068-1.097-.2-1.098.18-1.098-.184-1.098-.112-1.097.355-1.098-.431-1.098.208-1.098.243-1.098-.523-1.098.362-1.098-.102-1.098.017-1.098.148-1.099-.108-1.098.188-1.099-.133-1.098-.008-1.098.112-1.099-.32-1.099.358-1.097-.19-1.099.026-1.097-.01-1.098-.033-1.099.078-1.099-.12-1.098-.196-1.099.391-1.1-.232-1.098.136-1.1-.026-1.099-.078-1.1.192-1.099-.138-1.101.127-1.101.104-1.13-.547-.23-1.13-.069-1.096.238-1.098-.154-1.097-.027-1.097.208-1.098-.501-1.098.096-1.097.07-1.099.316-1.098v-1.099l-.384-1.098.135-1.098.226-1.099.038-1.098-.188-1.1.01-1.101.3-1.046 1.046-.49 1.098-.087 1.097.474 1.097-.177 1.096-.29 1.097.42 1.097-.274 1.097-.112 1.098.257 1.098-.166 1.097-.118 1.097-.008 1.097.259 1.097-.21 1.099-.037 1.098.213 1.097.087 1.097-.29 1.098.147 1.099-.02 1.098-.195 1.097-.013 1.098.423 1.099-.165 1.098-.056 1.098-.14 1.098.1 1.098.284 1.1-.166 1.097.039 1.099.172 1.098.044 1.099-.063 1.097-.374 1.099.033 1.097.371 1.099-.322 1.098.129 1.099-.042 1.098.062 1.1-.045 1.099.03 1.099-.275 1.1.002 1.098.177 1.1-.073 1.1.388 1.1-.38 1.102.132.97.421.313.97.275 1.096-.388 1.098.01 1.096.177 1.098-.143 1.097.088 1.098.316 1.098-.078 1.098.011 1.099-.123 1.098-.11 1.099.243 1.098-.11 1.098-.185 1.099.168 1.1-.01 1.1-.392 1.033z"/><path fill="#FFF6EC" d="M210.995 45.635l-1.098-.217-1.097-.005-1.097-.277-1.097.42-1.096-.14-1.097-.115-1.097.024-1.098-.118-1.098.147-1.097-.191-1.097.3-1.097.098-1.098-.402-1.098.166-1.098-.202-1.097.186-1.097-.192-1.098.23-1.099-.092-1.098.238-1.097-.14-1.099.114-1.098-.189-1.098-.073-1.098.395-1.099-.44-1.098.355-1.098-.256-1.098.19-1.1-.147-1.098-.028-1.098.053-1.098.145-1.098-.337-1.098.343-1.098-.149-1.098.202-1.1-.038-1.098.092-1.099-.127-1.099-.354-1.1.516-1.099-.25-1.099.267-1.099-.361-1.1.323-1.1-.402-1.102.262-1.123-.362-.487-1.122.23-1.097-.028-1.097.179-1.097-.355-1.097.253-1.098.048-1.098-.193-1.097.338-1.098-.537-1.1.249-1.097.175-1.1-.08-1.097-.002-1.099.146-1.098-.44-1.1.136-1.101.33-1.162 1.16-.191 1.099-.146 1.097.195 1.097-.25 1.097.107 1.096-.084 1.097-.102 1.097.475 1.098-.424 1.098.011 1.097-.072 1.097.035 1.097-.003 1.098.235 1.098.17 1.098-.29 1.097-.18 1.098.178 1.098.318 1.098-.406 1.098.256 1.097-.074 1.098-.234 1.1.34 1.097-.051 1.098-.335 1.099.475 1.098-.458 1.098.154 1.099.202 1.098-.169 1.099.011 1.099.224 1.097.01 1.098-.052 1.097.055 1.1-.16L198.9 25l1.1-.136 1.098.248 1.099.015 1.099-.095 1.1-.106 1.099.092 1.099-.097 1.099-.109 1.1.116 1.101.224 1.101-.293 1.181.364.44 1.18-.19 1.097-.098 1.098.225 1.097-.383 1.097.314 1.097-.115 1.099.022 1.097.096 1.098.038 1.099-.012 1.098.051 1.099-.196 1.098.072 1.098.03 1.099-.032 1.1-.116 1.1-.237 1.09z"/><path fill="#FAECD1" d="M210.453.02l-1.097.195-1.1.02-1.097-.147-1.097.291-1.098-.088-1.098-.213-1.098.038-1.097.21-1.097-.26-1.097.008-1.098.119-1.098.165-1.098-.256-1.096.111-1.097.274-1.097-.418-1.096.289-1.097.177-1.098-.475-1.098.087-1.045.491-.3 1.045-.01 1.1.188 1.101-.039 1.099-.225 1.098-.135 1.099.383 1.098v1.099l-.315 1.098-.07 1.098-.097 1.098.502 1.098-.208 1.097.027 1.098.154 1.096-.238 1.098.07 1.097.228 1.13 1.13.547 1.101-.104 1.102-.127 1.1.138 1.099-.192 1.099.078 1.099.026 1.1-.136 1.099.232 1.099-.391 1.098.196 1.1.12 1.097-.078 1.099.032 1.097.011 1.099-.026 1.097.19 1.099-.358 1.098.32 1.099-.112 1.098.007 1.099.134 1.098-.189 1.098.109 1.098-.149 1.098-.016 1.099.102 1.098-.362 1.097.523 1.098-.243 1.099-.208 1.098.431 1.097-.355 1.098.112 1.097.184 1.099-.181 1.097.201 1.097-.069 1.097-.156 1.098.226 1.097-.033 1.098-.214 1.098.107 1.096-.23 1.096.06 1.097.386 1.097-.138 1.097.006 1.099-.214 1.032-.295.392-1.032.01-1.1-.168-1.101.184-1.099.11-1.098-.242-1.099.11-1.098.123-1.099-.01-1.098.077-1.098-.317-1.098-.087-1.098.142-1.097-.177-1.098-.01-1.096.389-1.098-.275-1.097-.314-.97-.97-.42-1.1-.132-1.102.38-1.1-.389-1.099.074-1.099-.177-1.1-.002-1.099.274-1.099-.03-1.099.046-1.098-.062-1.1.041-1.097-.128-1.1.323-1.097-.372-1.098-.034-1.097.375-1.099.062L221.436.5l-1.099-.172-1.098-.04-1.1.166-1.097-.284-1.099-.1-1.098.142-1.097.054-1.1.167-1.097-.425z"/><path fill="#FFF6EC" d="M155.499 0L154.4.335l-1.098.052-1.099-.341-1.098.234-1.097.074-1.098-.256-1.099.406-1.098-.318-1.097-.178-1.098.18-1.097.29-1.099-.17-1.097-.236-1.097.004-1.097-.035-1.097.072-1.098-.012-1.098.425-1.097-.475-1.097.102-1.096.083-1.097-.107-1.097.251-1.098-.195-1.097.146-1.162.191-.33 1.161-.136 1.101.44 1.1-.145 1.099.001 1.098.08 1.099-.174 1.098-.25 1.099.538 1.098-.338 1.098.192 1.098-.047 1.098-.254 1.097.355 1.098-.178 1.096.028 1.098-.23 1.096.487 1.123 1.123.362 1.1-.262 1.102.402 1.1-.324 1.1.362 1.098-.266 1.1.25 1.099-.517 1.1.353 1.098.128 1.099-.092 1.099.038 1.098-.202 1.098.149 1.097-.343 1.099.337 1.097-.145 1.099-.053 1.099.028 1.098.146 1.098-.19 1.1.257 1.097-.356 1.099.44 1.098-.395 1.098.074 1.098.189 1.098-.115 1.098.14 1.098-.237 1.098.092 1.098-.23 1.098.192 1.097-.186 1.098.202 1.098-.166 1.098.402 1.096-.098 1.097-.3 1.098.191 1.098-.147 1.098.118 1.097-.025 1.097.116 1.096.14 1.096-.42 1.097.276 1.098.006 1.098.217 1.09-.57.237-1.09.116-1.1.032-1.101-.03-1.099-.073-1.098.197-1.098-.051-1.1.011-1.098-.038-1.098-.095-1.098-.022-1.098.115-1.098-.315-1.097.384-1.098-.226-1.096.099-1.098.189-1.097-.44-1.18-1.18-.365-1.101.294-1.102-.224-1.1-.116-1.098.109-1.1.097-1.099-.092-1.1.106-1.099.095-1.099-.016-1.098-.247-1.1.135-1.097.012-1.099.16-1.097-.054-1.099.05-1.097-.008-1.099-.224-1.098-.01-1.099.167-1.098-.201-1.099-.154-1.098.457zM150.55 45.33l-1.098.086-1.097-.18-1.097.252-1.096-.175-1.097.296-1.096-.033-1.098-.08-1.098-.275-1.097.414-1.098-.124-1.097.002-1.097.052-1.097-.089-1.098-.198-1.098.23-1.098.018-1.097-.383-1.098.043-1.099.017-1.098.032-1.097.298-1.098.082-1.099-.314-1.098-.02-1.098.15-1.098-.073-1.098-.095-1.099.21-1.098.033-1.099-.018-1.098-.216-1.099-.09-1.097.255-1.099.189-1.097-.3-1.099.276-1.098-.03-1.099-.22-1.098-.125-1.1-.074-1.098.198-1.1.07-1.1.2-1.098-.032-1.1-.113-1.1-.085-1.1.134-1.102.063-1.068-.545-.089-1.068-.249-1.097-.125-1.097.123-1.097.242-1.097-.381-1.098-.084-1.098.389-1.097-.132-1.098.145-1.1L96.454 33l.227-1.1-.007-1.098-.273-1.098-.136-1.098.207-1.1-.01-1.101.228-1.147 1.147-.122 1.098.013 1.098-.342 1.097.219 1.096-.011 1.097-.11 1.096.215 1.097-.332 1.098.271 1.098.183 1.098-.156 1.097.048 1.097-.352 1.097.156 1.098.21 1.098-.08 1.098-.238 1.097.046 1.098-.101 1.098-.046 1.098.306 1.098-.253 1.098.073 1.099.242 1.097.04 1.098-.24 1.1-.034 1.097.039 1.099-.115 1.098.025 1.099.299 1.098.012 1.099.088 1.097.053 1.098-.012 1.098-.158 1.099.171 1.098-.157 1.099-.184 1.098.135 1.099-.251 1.1.02 1.099.09 1.1-.184 1.098.048 1.1.133 1.099-.158 1.101.208 1.102-.23 1.052.617.288 1.053.273 1.096-.126 1.098.107 1.097-.253 1.097.158 1.097.092 1.099-.268 1.097-.17 1.098.427 1.099-.427 1.098.339 1.099-.11 1.098.28 1.098-.077 1.099-.063 1.1.138 1.1-.64 1.021z"/><path fill="#FBDFB9" d="M0 174.581h76.825v-24.688H0zM92.226 193.077h23.014v-61.68H92.226c-8.505 0-15.4 6.896-15.4 15.401v30.878c0 8.505 6.895 15.4 15.4 15.4"/><path d="M244.209 219.95c.449 5.128-3.347 9.65-8.475 10.1L124.29 239.8c-5.128.448-9.65-3.346-10.099-8.475L103.226 105.99a9.323 9.323 0 0 1 8.474-10.1l111.444-9.749c5.128-.449 9.65 3.346 10.1 8.474l10.562 120.73.403 4.604" fill="#C98C5D"/><path fill="#FFEECF" d="M234.519 216.16l-111.444 9.75-10.156-116.088 111.443-9.75z"/><path d="M140.505 152.005l64.016-5.601a3.815 3.815 0 1 0-.665-7.6l-64.016 5.6a3.815 3.815 0 0 0 .665 7.6M142.366 173.287l64.017-5.601a3.815 3.815 0 1 0-.665-7.6l-64.017 5.6a3.815 3.815 0 0 0 .665 7.6M144.228 194.569l64.017-5.601a3.815 3.815 0 0 0-.665-7.6l-64.017 5.6a3.815 3.815 0 0 0 .665 7.6M234.113 211.516l-111.444 9.75.406 4.644 111.444-9.75z" fill="#F4D9B3"/><path fill="#BC7D51" d="M234.519 216.16l-111.444 9.75.406 4.643 111.444-9.75z"/><path d="M212.136 114.411l-84.686 7.41a3.896 3.896 0 1 1-.679-7.764l84.686-7.409a3.896 3.896 0 1 1 .679 7.763" fill="#F4D9B3"/><path d="M168.234 100.303a4.657 4.657 0 0 1-5.049-4.236 4.658 4.658 0 0 1 4.237-5.05 4.658 4.658 0 0 1 5.05 4.237 4.658 4.658 0 0 1-4.238 5.05m36.742-7.894l-23.217 2.031c-.674-7.695-7.454-13.384-15.15-12.711-7.695.673-13.385 7.454-12.711 15.149L130.68 98.91a4.658 4.658 0 0 0-4.237 5.05l1.22 13.93 83.582-7.312-1.219-13.93a4.659 4.659 0 0 0-5.05-4.238" fill="#FFC050"/><path fill="#DBC3A1" d="M127.322 114.009l.5 3.881-.5-3.881"/><path fill="#E5AC48" d="M210.905 106.696l-83.583 7.313.34 3.881 83.583-7.312z"/><path d="M92.226 134.144v15.401h11.062l-.018-.18 3.095-2.567H92.226v-12.654zm14.57 12.654h-.431l.24 2.747h.431l-.24-2.747z" fill="#F0CBA1"/><path fill="#C07F51" d="M116.154 146.798h-9.358l.24 2.747h9.358z"/><path d="M138.255 137.643a9.155 9.155 0 0 1-9.156 9.155h-12.945l.24 2.747H129.1c5.057 0 9.156-4.099 9.156-9.155v-2.747" fill="#F4D9B5"/><path d="M129.1 146.798H92.225v-15.4h43.06c1.64 0 2.969 1.328 2.969 2.967v3.278c0 5.057-4.1 9.155-9.156 9.155" fill="#EFCCA3"/><path fill="#F7D5AD" d="M106.605 149.545h-3.317l4.34 43.531h2.786z"/><path fill="#ECC297" d="M106.365 146.798l-3.095 2.567.018.18h3.317z"/><path d="M92.226 131.397h15.401v15.401c0 8.506-6.895 15.402-15.4 15.402H76.824v-15.402c0-8.505 6.895-15.4 15.401-15.4" fill="#EFCCA3"/><path d="M125.302 139.098h5.47a4.804 4.804 0 0 0 4.805-4.804v-2.897h-10.275v7.7z" fill="#F9E5CD"/></g></svg>