<svg width="337" height="268" viewBox="0 0 337 268" xmlns="http://www.w3.org/2000/svg" xmlns:xlink="http://www.w3.org/1999/xlink"><title>A19D3256-D99C-4103-ABB6-FFB1632D5C29</title><defs><path id="a" d="M0 76.203V.703h151.002v151H0v-75.5z"/><path id="c" d="M151.002.702H0v25.723h151.002V.702z"/><path id="e" d="M164.637 163.912V.752H1.477v163.16h163.16z"/></defs><g fill="none" fill-rule="evenodd"><path d="M121.969 181.305l-76.915-10.33a4.56 4.56 0 0 0-5.126 3.912L38.57 185.01 29.6 251.8a4.56 4.56 0 0 0 3.911 5.126l76.914 10.33a4.559 4.559 0 0 0 5.127-3.912l8.97-66.79 1.36-10.123a4.558 4.558 0 0 0-3.912-5.126" fill="#F4DAC0"/><path d="M25.04 245.722l10.33-76.914a4.561 4.561 0 0 1 5.125-3.912l76.915 10.33a4.561 4.561 0 0 1 3.912 5.126l-10.332 76.914a4.559 4.559 0 0 1-5.125 3.912l-76.914-10.33a4.56 4.56 0 0 1-3.912-5.126" fill="#F9F38C"/><path d="M34.01 178.931l1.36-10.123a4.558 4.558 0 0 1 5.125-3.912l76.914 10.33a4.56 4.56 0 0 1 3.912 5.126l-1.36 10.123-85.951-11.544z" fill="#E8D574"/><path d="M149.482 6.598H13.678a7.6 7.6 0 0 0-7.6 7.6v135.804a7.6 7.6 0 0 0 7.6 7.598h135.804a7.6 7.6 0 0 0 7.598-7.599V14.197a7.6 7.6 0 0 0-7.598-7.599" fill="#F4DAC0"/><g transform="translate(0 -.182)"><mask id="b" fill="#fff"><use xlink:href="#a"/></mask><path d="M0 144.104V8.3A7.6 7.6 0 0 1 7.599.702h135.804a7.6 7.6 0 0 1 7.599 7.598v135.804a7.6 7.6 0 0 1-7.6 7.6H7.6a7.6 7.6 0 0 1-7.599-7.6" fill="#F8C58D" mask="url(#b)"/></g><g transform="translate(0 -.182)"><mask id="d" fill="#fff"><use xlink:href="#c"/></mask><path d="M0 26.425V8.3A7.6 7.6 0 0 1 7.599.701h135.804a7.6 7.6 0 0 1 7.599 7.6v18.124H0z" fill="#EBB178" mask="url(#d)"/></g><g transform="translate(171.734 71.247)"><mask id="f" fill="#fff"><use xlink:href="#e"/></mask><path d="M151.845 7.638a7.598 7.598 0 0 0-8.28-6.851L8.364 13.544a7.6 7.6 0 0 0-6.852 8.28l12.758 135.203a7.599 7.599 0 0 0 8.28 6.851l135.202-12.758a7.598 7.598 0 0 0 6.853-8.278L151.845 7.638z" fill="#F4DAC0" mask="url(#f)"/></g><path d="M178.405 222.195L165.647 86.99a7.598 7.598 0 0 1 6.852-8.278l135.202-12.759a7.6 7.6 0 0 1 8.28 6.851l12.757 135.204a7.598 7.598 0 0 1-6.851 8.28l-135.202 12.757a7.598 7.598 0 0 1-8.28-6.851" fill="#D8F88D"/><path d="M167.35 105.036l-1.702-18.045a7.6 7.6 0 0 1 6.85-8.28l135.205-12.756a7.597 7.597 0 0 1 8.278 6.85l1.702 18.045-150.333 14.186z" fill="#C2DB67"/><path fill="#88993D" d="M205.214 150.2l4.13-.389-1.736-18.412-4.29.406-.445-4.722 9.443-.89 2.182 23.132 3.816-.359.417 4.404-13.102 1.236zM225.012 140.87c.943 9.993 14.79 8.686 13.849-1.305l-.376-3.975c-.927-9.835-14.787-8.646-13.848 1.308l.375 3.973zm-5.529-3.487c-1.55-16.444 22.607-18.686 24.156-2.28l.375 3.975c1.547 16.404-22.603 18.723-24.155 2.28l-.376-3.975zM252.392 138.287c.942 9.992 14.79 8.687 13.848-1.307l-.375-3.973c-.927-9.836-14.787-8.646-13.848 1.307l.375 3.973zm-5.529-3.486c-1.55-16.446 22.607-18.686 24.156-2.28l.375 3.973c1.547 16.404-22.604 18.723-24.155 2.278l-.376-3.971zM279.429 131.648l-.552-5.861 4.762-.45.551 5.86 5.86-.552.414 4.367-5.862.553.558 5.903-4.761.448-.558-5.901-5.781.545-.414-4.368zM212.33 173.349c-.114-1.21-.705-1.795-1.793-1.692-1.438.135-2.25 1.538-2.43 3.173-.198 1.804.39 2.847 1.856 2.709 1.876-.177 2.525-2.513 2.367-4.19zm-4.55-5.858l1.255-.117-.536 4.674c.433-.759 1.193-1.426 2.372-1.535 1.573-.15 2.581.823 2.75 2.608.225 2.389-.803 5.247-3.57 5.507-1.15.11-1.879-.357-2.198-.997-.056.386-.132.882-.176 1.069l-1.225.117c.058-.373.152-1.13.276-2.087l1.052-9.239zM219.27 171.03c-1.456.247-2.439 1.452-2.641 3.209l-.433 3.658-1.24.117.64-5.506c.08-.77.17-1.589.224-2.312l1.209-.114c.003.2-.044.98-.133 1.646.456-1.141 1.36-1.913 2.525-2.023l-.15 1.325zM221.427 166.205l1.257-.118-.195 1.68-1.255.12.193-1.682zm-.403 3.5l1.257-.117-.91 7.82-1.242.117.895-7.82zM223.687 177.19l1.298-11.32 1.255-.118-1.314 11.32zM227.242 176.854l1.298-11.32 1.255-.118-1.315 11.321zM232.11 165.198l1.257-.119-.195 1.68-1.255.12.193-1.681zm-.403 3.5l1.257-.119-.91 7.82-1.242.118.895-7.82zM239.202 171.943c-.407.053-.92.1-1.562.237-1.23.239-2.302.692-2.187 1.917.055.574.482 1.038 1.327.957 1.678-.158 2.205-1.52 2.404-2.988l.018-.123zm1.022 1.763a48.795 48.795 0 0 0-.183 1.94l-1.226.116c.003-.29.035-.766.086-1.197-.319.655-.902 1.427-2.475 1.576-1.544.144-2.198-.815-2.284-1.739-.207-2.175 1.79-2.852 3.317-3.149.797-.137 1.46-.199 1.853-.25l.056-.526c.068-.74-.065-1.67-1.532-1.534-1.3.123-1.583.836-1.755 1.448l-1.284.122c.162-1.176.905-2.343 3.053-2.547 1.755-.166 2.979.526 2.76 2.395l-.386 3.345zM242.968 169.603c.073-.678.134-1.34.194-1.987l1.227-.115c.004.244-.08 1.12-.108 1.322.374-.736 1.029-1.56 2.436-1.693 1.467-.14 2.453.621 2.189 2.845l-.545 4.886-1.255.118.549-4.857c.149-1.174-.2-1.948-1.363-1.839-1.423.134-2.114 1.528-2.3 3.116l-.456 3.918-1.238.117.67-5.831zM250.455 166.928l1.288-.12.258-2.254 1.238-.117-.258 2.254 1.632-.155-.129 1.05-1.634.154-.53 4.734c-.084.71-.02 1.055.644.992a3.25 3.25 0 0 0 .751-.147l-.135 1.02c-.336.155-.714.19-1.047.22-1.21.115-1.642-.424-1.506-1.733l.568-4.968-1.27.12.13-1.05zM260.344 162.534l1.256-.119-.195 1.68-1.254.12.193-1.681zm-.402 3.5l1.255-.119-.91 7.82-1.24.118.895-7.82zM263.823 170.428c.128 1.361.778 1.939 1.792 1.845 1.586-.15 2.283-1.664 2.456-3.39.18-1.635-.401-2.616-1.882-2.477-1.785.168-2.526 2.329-2.366 4.022zm6.263-8.815l-1.044 9.146a56.005 56.005 0 0 0-.223 2.172l-1.227.117c-.004-.23.04-.737.099-1.231-.44.85-1.141 1.48-2.412 1.6-1.649.155-2.597-1.004-2.761-2.745-.213-2.252.875-5.117 3.553-5.369 1.284-.121 2.029.51 2.243.993l.532-4.566 1.24-.117zM276.358 167.583c.03-.201.01-.383-.007-.564-.098-1.044-.64-1.604-1.743-1.497-1.165.11-1.937.99-2.197 2.433l3.947-.372zm-4.068 1.345c-.003.304-.017.474.007.73.122 1.302.812 1.969 1.883 1.867 1.12-.106 1.576-.774 1.864-1.458l1.3-.123c-.385 1.244-1.217 2.45-3.214 2.639-1.92.18-2.933-1.005-3.1-2.775-.205-2.162.714-5.042 3.558-5.307 2.054-.195 2.865 1.088 2.995 2.478.046.484.026.929-.059 1.456l-5.234.493zM283.746 167.74c-.407.053-.92.1-1.562.237-1.232.239-2.302.692-2.187 1.917.055.574.48 1.038 1.325.957 1.681-.158 2.207-1.52 2.406-2.988l.018-.123zm1.02 1.763a51.877 51.877 0 0 0-.182 1.94l-1.225.116c.003-.29.035-.766.086-1.197-.319.655-.902 1.427-2.477 1.576-1.542.144-2.194-.815-2.282-1.739-.207-2.175 1.79-2.853 3.317-3.149.797-.137 1.46-.199 1.851-.25l.06-.525c.066-.74-.067-1.672-1.534-1.535-1.3.123-1.584.836-1.755 1.448l-1.284.123c.162-1.177.905-2.345 3.053-2.548 1.755-.166 2.979.526 2.758 2.395l-.386 3.345zM287.592 168.841c.15.78.694 1.383 1.92 1.27 1.027-.098 1.525-.665 1.457-1.39-.069-.711-.617-1.01-1.742-1.3-1.7-.42-2.255-.948-2.339-1.84-.112-1.194.696-2.308 2.558-2.483 1.98-.187 2.827.862 2.901 1.953l-1.272.12c-.096-.524-.416-1.18-1.656-1.064-.801.076-1.34.523-1.274 1.219.049.527.512.745 1.638 1.033 1.657.425 2.37 1.013 2.468 2.072.145 1.529-.995 2.535-2.825 2.708-1.95.184-2.983-.74-3.12-2.178l1.286-.12z"/><path d="M43.613 61.305c.04-5.85 5.572-8.378 10.67-8.378 5.531 0 11.537 2.254 11.537 8.813 0 7.034-5.295 8.377-11.102 8.377-2.293 0-6.007.591-6.007 3.596v2.37H65.9v4.86H43.495v-7.27c0-6.361 5.769-8.258 11.223-8.258 2.094 0 5.926-.356 5.926-3.558 0-3.001-2.727-4.425-6.283-4.425-2.726 0-5.53 1.383-5.571 3.873h-5.177zM83.169 70.63V57.828L73.803 70.63h9.366zm5.137-17.308V70.63h3.24v5.058h-3.24v5.255h-5.137v-5.255h-14.78l-.474-5.295 12.447-17.071h7.944zM99.92 65.019V59.13h4.782v5.888h5.889v4.387h-5.89v5.927h-4.78v-5.927h-5.809V65.02zM20.34 94.123h1.262l-1.003 4.678c.531-.76 1.322-1.382 2.566-1.382 1.155 0 2.43.578 1.946 2.902l-1.034 4.951h-1.261l1.003-4.754c.274-1.307-.03-1.99-1.169-1.99-1.276 0-2.188 1.048-2.507 2.49l-.91 4.254h-1.247l2.354-11.149zM27.895 102.31c0 1.291.606 2.065 1.73 2.065 1.853 0 2.674-2.202 2.674-3.827 0-1.292-.562-2.08-1.746-2.08-1.779 0-2.658 2.202-2.658 3.842m5.694-1.716c0 2.035-1.138 4.83-4.1 4.83-1.87 0-2.886-1.184-2.886-3.098 0-2.143 1.292-4.907 4.07-4.907 1.763 0 2.916 1.138 2.916 3.175M40.885 103.206a50.77 50.77 0 0 0-.395 2.065h-1.23c.016-.243.122-.925.213-1.32-.516.88-1.383 1.472-2.582 1.472-1.413 0-2.308-.804-1.883-2.839l1.095-5.013h1.229l-1.033 4.892c-.213.986-.183 1.883 1.077 1.883 1.187 0 2.204-.897 2.658-3.07l.79-3.705h1.262l-1.2 5.635zM47.695 98.725c-1.473.107-2.566 1.216-2.932 2.946l-.774 3.601h-1.246l1.155-5.424c.152-.758.32-1.563.441-2.278h1.214c-.015.198-.137.973-.289 1.626.563-1.094 1.535-1.776 2.706-1.776l-.275 1.305zM49.232 102.963c.076.791.562 1.443 1.794 1.443 1.031 0 1.579-.516 1.579-1.246 0-.714-.517-1.062-1.611-1.457-1.655-.578-2.157-1.155-2.157-2.052 0-1.2.912-2.231 2.78-2.231 1.99 0 2.734 1.123 2.705 2.217h-1.277c-.045-.532-.304-1.216-1.55-1.216-.804 0-1.381.394-1.381 1.093 0 .532.439.79 1.533 1.186 1.61.577 2.263 1.23 2.263 2.294 0 1.534-1.23 2.43-3.067 2.43-1.959 0-2.903-1.018-2.903-2.461h1.292zM60.464 102.31c0 1.291.607 2.065 1.731 2.065 1.853 0 2.674-2.202 2.674-3.827 0-1.292-.563-2.08-1.747-2.08-1.778 0-2.658 2.202-2.658 3.842m5.695-1.716c0 2.035-1.139 4.83-4.1 4.83-1.87 0-2.887-1.184-2.887-3.098 0-2.143 1.292-4.907 4.07-4.907 1.763 0 2.917 1.138 2.917 3.175M67.35 105.287l1.397-6.669h-1.23l.244-1.032h1.213l.243-1.11c.306-1.411 1.049-2.504 2.568-2.504.364 0 .728.06.897.12l-.243 1.08a2.624 2.624 0 0 0-.625-.077c-.728 0-1.138.471-1.334 1.398l-.245 1.093h1.519l-.227 1.032h-1.52l-1.396 6.669h-1.262zM76.468 99.53c.137-.667.258-1.321.38-1.96h1.23c-.016.244-.183 1.109-.229 1.306.441-.697 1.17-1.457 2.582-1.457 1.475 0 2.387.85 1.914 3.038l-1.002 4.814h-1.261l1.003-4.784c.258-1.155-.015-1.959-1.184-1.959-1.429 0-2.25 1.32-2.582 2.885l-.82 3.858h-1.247l1.216-5.741zM85.16 102.31c0 1.291.607 2.065 1.732 2.065 1.852 0 2.673-2.202 2.673-3.827 0-1.292-.562-2.08-1.746-2.08-1.779 0-2.658 2.202-2.658 3.842m5.694-1.716c0 2.035-1.138 4.83-4.1 4.83-1.87 0-2.886-1.184-2.886-3.098 0-2.143 1.292-4.907 4.07-4.907 1.763 0 2.916 1.138 2.916 3.175M92.988 99.53c.137-.667.258-1.321.38-1.96h1.23c-.016.244-.183 1.109-.229 1.306.441-.697 1.17-1.457 2.583-1.457 1.474 0 2.386.85 1.913 3.038l-1.002 4.814h-1.261l1.003-4.784c.258-1.155-.015-1.959-1.184-1.959-1.428 0-2.25 1.32-2.582 2.885l-.82 3.858h-1.247l1.216-5.741zM104.535 100.806l-.243 1.155h-3.842l.243-1.155zM106.74 102.963c.076.791.563 1.443 1.794 1.443 1.032 0 1.579-.516 1.579-1.246 0-.714-.517-1.062-1.611-1.457-1.655-.578-2.157-1.155-2.157-2.052 0-1.2.912-2.231 2.78-2.231 1.99 0 2.734 1.123 2.705 2.217h-1.277c-.045-.532-.304-1.216-1.55-1.216-.804 0-1.381.394-1.381 1.093 0 .532.439.79 1.533 1.186 1.61.577 2.263 1.23 2.263 2.294 0 1.534-1.23 2.43-3.067 2.43-1.959 0-2.903-1.018-2.903-2.461h1.292zM113.048 97.57h1.292l.47-2.217h1.246l-.472 2.218h1.64l-.226 1.033h-1.642l-.972 4.663c-.152.699-.12 1.047.547 1.047.228 0 .532-.014.76-.075l-.228 1.004c-.35.12-.73.12-1.062.12-1.216 0-1.596-.576-1.338-1.868l1.032-4.89h-1.275l.228-1.034zM118.472 102.31c0 1.291.607 2.065 1.731 2.065 1.853 0 2.674-2.202 2.674-3.827 0-1.292-.563-2.08-1.746-2.08-1.779 0-2.659 2.202-2.659 3.842m5.695-1.716c0 2.035-1.138 4.83-4.1 4.83-1.87 0-2.886-1.184-2.886-3.098 0-2.143 1.291-4.907 4.07-4.907 1.763 0 2.916 1.138 2.916 3.175M128.715 104.33c1.867 0 2.719-2.172 2.719-3.873 0-1.277-.593-1.929-1.596-1.929-1.442 0-2.429 1.428-2.748 2.93-.366 1.701.06 2.871 1.625 2.871zm-2.493-4.496c.23-1.047.38-1.793.458-2.263h1.244c-.013.167-.152.866-.243 1.322.547-.82 1.368-1.474 2.63-1.474 1.547 0 2.443 1.155 2.443 2.916 0 2.522-1.442 5.089-4.055 5.089-1.26 0-1.883-.593-2.14-1.186l-.867 4.057h-1.26l1.79-8.461zM59.859 121.2c-.517 1.474-1.595 2.46-3.417 2.46-1.883 0-2.796-1.23-2.796-3.006 0-2.325 1.292-4.997 3.98-4.997 2.172 0 2.78 1.564 2.689 2.611h-1.231c-.03-.865-.41-1.579-1.534-1.579-1.792 0-2.597 2.202-2.597 3.874 0 1.458.653 2.064 1.67 2.064.882 0 1.55-.53 1.976-1.427h1.26zM62.567 120.547c0 1.292.607 2.065 1.731 2.065 1.853 0 2.674-2.202 2.674-3.827 0-1.291-.563-2.08-1.747-2.08-1.778 0-2.658 2.202-2.658 3.842m5.695-1.716c0 2.035-1.138 4.83-4.1 4.83-1.87 0-2.887-1.184-2.887-3.097 0-2.143 1.292-4.908 4.07-4.908 1.763 0 2.917 1.138 2.917 3.175M70.775 120.547c0 1.366.592 2.004 1.61 2.004 1.593 0 2.43-1.442 2.764-3.142.334-1.611-.152-2.643-1.64-2.643-1.794 0-2.734 2.08-2.734 3.78zm7.062-8.187l-1.898 9.007a59.176 59.176 0 0 0-.426 2.142h-1.23c.014-.228.107-.728.212-1.216-.517.807-1.275 1.368-2.55 1.368-1.657 0-2.493-1.246-2.493-2.993 0-2.263 1.353-5.012 4.042-5.012 1.291 0 1.974.7 2.14 1.2l.958-4.496h1.245zM80.21 112.36h1.262l-.35 1.657h-1.26l.349-1.657zm-.727 3.449h1.26l-1.64 7.7h-1.246l1.626-7.7zM82.599 117.767c.137-.667.258-1.32.38-1.959h1.23c-.016.243-.183 1.108-.229 1.305.441-.697 1.17-1.457 2.583-1.457 1.474 0 2.386.851 1.913 3.038l-1.002 4.815h-1.261l1.003-4.785c.258-1.155-.015-1.959-1.184-1.959-1.428 0-2.25 1.321-2.582 2.885l-.82 3.859h-1.247l1.216-5.742zM91.321 120.425c0 1.292.578 1.96 1.625 1.96 1.429 0 2.295-1.337 2.644-2.946.32-1.474-.031-2.705-1.61-2.705-1.733 0-2.659 1.886-2.659 3.691zm4.771 2.324c-.517 2.447-1.277 3.935-3.935 3.935-2.568 0-2.87-1.428-2.87-2.324h1.275c0 .699.486 1.322 1.732 1.322 1.61 0 2.126-1.11 2.55-2.916l.154-.684c-.532.864-1.322 1.398-2.493 1.398-1.532 0-2.504-1.08-2.504-2.962 0-2.295 1.381-4.862 3.902-4.862 1.338 0 2.02.684 2.172 1.246.091-.366.228-.881.32-1.094h1.2c-.152.608-.32 1.353-.456 2.037l-1.047 4.904z" fill="#A06B3C"/></g></svg>