<svg width="332" height="270" viewBox="0 0 332 270" xmlns="http://www.w3.org/2000/svg" xmlns:xlink="http://www.w3.org/1999/xlink"><title>BC10D6E5-9E67-47AA-876C-EBDC4AA11292</title><defs><path id="a" d="M0 .588v34.617h152.409V.588H0z"/></defs><g fill="none" fill-rule="evenodd"><path d="M157.394 60.542a7.627 7.627 0 0 0-8.08-7.145L13.26 61.762a7.627 7.627 0 0 0-7.145 8.08l8.365 136.051a7.625 7.625 0 0 0 8.08 7.145l136.053-8.364a7.626 7.626 0 0 0 7.144-8.08l-8.364-136.052z" fill="#F4DAC0"/><path d="M8.379 199.792L.015 63.742A7.626 7.626 0 0 1 7.16 55.66l136.052-8.364a7.625 7.625 0 0 1 8.08 7.145l8.366 136.05a7.627 7.627 0 0 1-7.145 8.08l-136.053 8.366a7.627 7.627 0 0 1-8.08-7.145" fill="#F9F38C"/><g transform="translate(0 46.693)"><mask id="b" fill="#fff"><use xlink:href="#a"/></mask><path d="M1.13 35.205L.015 17.048A7.629 7.629 0 0 1 7.16 8.966L143.21.602a7.629 7.629 0 0 1 8.082 7.145l1.117 18.157-151.278 9.3z" fill="#E8D574" mask="url(#b)"/></g><path d="M258.55 17.925a4.578 4.578 0 0 0-4.143-4.972l-75.083-6.831a4.577 4.577 0 0 0-4.973 4.143l-6.831 75.083a4.576 4.576 0 0 0 4.143 4.971l75.083 6.832a4.576 4.576 0 0 0 4.971-4.143l5.942-65.297.89-9.786z" fill="#F4DAC0"/><path d="M162.943 79.246l6.831-75.083A4.578 4.578 0 0 1 174.747.02l75.083 6.83a4.578 4.578 0 0 1 4.143 4.974l-6.83 75.083a4.578 4.578 0 0 1-4.974 4.143l-75.082-6.833a4.576 4.576 0 0 1-4.144-4.971" fill="#B2ECED"/><path d="M168.885 13.948l.89-9.785A4.576 4.576 0 0 1 174.748.02l75.083 6.832a4.575 4.575 0 0 1 4.143 4.972l-.89 9.785-84.198-7.66z" fill="#8FD1CF"/><path d="M324.987 118.654l-135.54-14.46a7.627 7.627 0 0 0-8.393 6.775l-1.93 18.09-12.53 117.45a7.627 7.627 0 0 0 6.777 8.393l135.538 14.46a7.628 7.628 0 0 0 8.394-6.775l12.529-117.45 1.93-18.09a7.626 7.626 0 0 0-6.775-8.393" fill="#F4DAC0"/><path d="M160.493 240.407l14.46-135.54a7.626 7.626 0 0 1 8.393-6.774l135.54 14.46a7.626 7.626 0 0 1 6.774 8.392l-14.46 135.54a7.627 7.627 0 0 1-8.392 6.775l-135.54-14.46a7.627 7.627 0 0 1-6.775-8.393" fill="#EFB1DF"/><path d="M173.023 122.957l1.93-18.088a7.627 7.627 0 0 1 8.392-6.776l135.54 14.46a7.626 7.626 0 0 1 6.775 8.392l-1.93 18.09-150.707-16.078z" fill="#D68AC6"/><path fill="#A08330" d="M24.244 137.808l4.157-.256-1.138-18.527-4.315.266-.291-4.75 9.5-.586 1.43 23.278 3.842-.235.271 4.433-13.182.811zM44.412 129.098c.617 10.055 14.554 9.198 13.936-.857l-.246-3.999c-.608-9.897-14.55-9.16-13.936.858l.246 3.998zm-5.432-3.68c-1.018-16.549 23.291-18.004 24.306-1.494l.245 3.998c1.016 16.508-23.287 18.042-24.304 1.495l-.247-3.998zM71.965 127.404c.617 10.056 14.552 9.198 13.934-.857l-.245-3.998c-.609-9.897-14.55-9.16-13.935.857l.246 3.998zm-5.434-3.68c-1.017-16.548 23.292-18.004 24.306-1.494l.246 3.998c1.016 16.508-23.287 18.043-24.305 1.495l-.247-3.998zM99.516 125.71c.618 10.056 14.553 9.199 13.935-.857l-.246-3.998c-.608-9.897-14.55-9.16-13.934.857l.245 3.998zm-5.433-3.679c-1.018-16.55 23.293-18.005 24.307-1.495l.246 3.998c1.016 16.508-23.289 18.043-24.306 1.495l-.247-3.998zM126.858 119.936l-.362-5.898 4.79-.295.363 5.899 5.897-.363.27 4.395-5.899.363.368 5.938-4.791.293-.366-5.937-5.821.357-.269-4.395zM46.399 158.574c-1.467.197-2.496 1.374-2.755 3.132l-.554 3.653-1.247.078.823-5.504c.102-.769.221-1.586.3-2.31l1.218-.074c-.003.197-.078.982-.19 1.644.495-1.128 1.427-1.873 2.599-1.945l-.194 1.326zM52.425 160.143c.033-.202.023-.383.012-.566-.064-1.051-.59-1.628-1.7-1.56-1.172.07-1.973.93-2.285 2.37l3.973-.244zM48.3 161.36c-.013.303-.033.473-.016.732.08 1.309.747 2.001 1.829 1.934 1.125-.068 1.604-.724 1.914-1.4l1.309-.08c-.429 1.233-1.303 2.415-3.31 2.54-1.935.118-2.91-1.104-3.02-2.886-.135-2.175.881-5.032 3.743-5.207 2.07-.127 2.839 1.185 2.924 2.584a5.46 5.46 0 0 1-.108 1.458l-5.265.325zM56.313 161.446c.08 1.294.7 1.928 1.75 1.864 1.43-.088 2.216-1.483 2.466-3.116.229-1.497-.198-2.708-1.78-2.609-1.736.106-2.546 2.05-2.436 3.861zm4.924 2.035c-.37 2.482-1.04 4.02-3.7 4.183-2.574.158-2.966-1.253-3.021-2.151l1.278-.08c.043.7.569 1.296 1.817 1.218 1.612-.098 2.062-1.242 2.375-3.077l.111-.696c-.477.9-1.237 1.482-2.41 1.555-1.534.094-2.576-.926-2.692-2.815-.142-2.298 1.086-4.954 3.61-5.108 1.341-.084 2.067.56 2.253 1.113.07-.372.174-.898.254-1.115l1.203-.073a43.908 43.908 0 0 0-.332 2.066l-.746 4.98zM65.088 152.796l1.263-.078-.247 1.682-1.263.078.247-1.682zm-.517 3.499l1.262-.078-1.169 7.816-1.248.077 1.155-7.815zM67.934 161.51c.123.789.651 1.413 1.884 1.336 1.034-.062 1.55-.613 1.507-1.346-.046-.716-.585-1.033-1.706-1.36-1.691-.477-2.23-1.023-2.286-1.923-.074-1.2.775-2.291 2.648-2.407 1.992-.122 2.808.958 2.846 2.054l-1.28.078c-.079-.528-.378-1.197-1.626-1.121-.807.049-1.36.48-1.318 1.18.034.533.49.765 1.61 1.094 1.649.478 2.343 1.093 2.408 2.159.095 1.538-1.083 2.51-2.924 2.624-1.963.119-2.968-.84-3.057-2.288l1.294-.08zM73.92 155.72l1.294-.08.334-2.25 1.248-.077-.334 2.251 1.643-.1-.165 1.05-1.644.1-.688 4.732c-.109.707-.057 1.057.615 1.016.225-.016.53-.05.756-.124l-.166 1.019c-.343.142-.723.165-1.059.185-1.217.076-1.634-.48-1.454-1.787l.733-4.963-1.279.076.167-1.048zM82.955 156.326c-1.469.198-2.495 1.375-2.756 3.132l-.554 3.653-1.246.078.822-5.502c.104-.77.223-1.588.302-2.311l1.216-.075a15.9 15.9 0 0 1-.188 1.646c.495-1.132 1.427-1.873 2.598-1.946l-.194 1.325zM88.364 158.789c-.408.04-.925.071-1.575.187-1.242.2-2.331.618-2.256 1.85.036.579.448 1.056 1.3 1.004 1.688-.104 2.261-1.45 2.509-2.918l.022-.123zm.968 1.803a45.42 45.42 0 0 0-.248 1.94l-1.232.076c.012-.29.06-.769.125-1.197-.343.647-.953 1.4-2.537 1.498-1.553.096-2.177-.89-2.233-1.817-.134-2.192 1.887-2.805 3.43-3.05.806-.112 1.474-.153 1.87-.193l.076-.525c.088-.74-.013-1.68-1.49-1.588-1.308.081-1.618.786-1.81 1.394l-1.293.08c.205-1.175.988-2.322 3.148-2.456 1.766-.107 2.975.628 2.69 2.494l-.496 3.344zM91.414 154.644l1.293-.08.334-2.25 1.248-.077-.334 2.252 1.643-.101-.165 1.05-1.644.1-.688 4.732c-.108.708-.057 1.057.613 1.016.227-.014.532-.049.757-.124l-.165 1.02c-.343.141-.723.166-1.059.184-1.217.076-1.633-.479-1.453-1.786l.732-4.964-1.279.076.167-1.048zM97.624 150.795l1.263-.078-.247 1.683-1.263.078.247-1.683zm-.517 3.5l1.262-.077-1.169 7.815-1.248.078 1.155-7.815zM100.84 158.83c.08 1.294.736 2.032 1.861 1.964 1.858-.113 2.545-2.372 2.444-3.999-.08-1.295-.692-2.051-1.878-1.978-1.781.11-2.527 2.372-2.427 4.013m5.6-2.068c.125 2.038-.843 4.907-3.812 5.089-1.871.117-2.964-1.007-3.081-2.925-.131-2.146.991-4.994 3.775-5.166 1.767-.108 2.992.962 3.118 3.002M108.512 155.565c.095-.679.177-1.341.261-1.988l1.233-.076c-.002.247-.116 1.123-.148 1.322.398-.724 1.08-1.531 2.495-1.618 1.475-.09 2.44.706 2.104 2.926l-.706 4.884-1.265.08.71-4.857c.187-1.172-.135-1.962-1.306-1.889-1.431.087-2.171 1.461-2.41 3.048l-.585 3.919-1.246.074.863-5.825zM116.9 158.5c.123.79.65 1.412 1.883 1.337 1.034-.065 1.551-.614 1.507-1.347-.046-.715-.584-1.034-1.705-1.36-1.692-.478-2.229-1.024-2.285-1.922-.074-1.202.773-2.293 2.646-2.407 1.992-.122 2.81.956 2.847 2.053l-1.28.08c-.08-.53-.378-1.2-1.626-1.124-.807.05-1.36.481-1.318 1.183.033.53.49.762 1.61 1.09 1.648.48 2.342 1.094 2.408 2.16.094 1.538-1.083 2.511-2.924 2.624-1.964.12-2.969-.84-3.057-2.287l1.293-.08z"/><path d="M204.551 172.252l.455-4.259 3.983.424c2.799.3 5.838-.135 6.149-2.694.17-1.577-.871-3.8-5.287-4.272-2.444-.263-5.85.251-6.12 2.776l-5.205-.555c.636-5.956 6.78-7.493 11.87-6.952 5.206.557 10.535 3.678 9.95 9.559-.232 2.169-1.922 4.54-4.407 5.035 2.55 1.149 4.126 3.95 3.879 6.276-.72 6.745-7.287 8.078-12.61 7.51-5.244-.559-11.004-3.407-10.374-9.683l5.246.56c-.303 2.84 3.417 4.235 5.666 4.473 2.642.284 6.27-.447 6.585-3.405.175-1.655-.513-3.804-5.481-4.334l-4.299-.459zM228.942 175.054c-1.068 10.018 12.813 11.499 13.883 1.481l.424-3.984c1.05-9.859-12.817-11.457-13.883-1.48l-.424 3.983zm-4.741-4.535c1.759-16.485 25.969-13.864 24.214 2.584l-.425 3.983c-1.754 16.446-25.972 13.901-24.215-2.582l.426-3.985zM256.389 177.981c-1.068 10.018 12.815 11.5 13.884 1.482l.424-3.985c1.051-9.859-12.818-11.457-13.884-1.48l-.424 3.983zm-4.741-4.535c1.759-16.483 25.97-13.863 24.216 2.584l-.426 3.983c-1.754 16.446-25.973 13.901-24.216-2.582l.426-3.985zM284.31 176.852l.627-5.877 4.773.51-.627 5.875 5.874.627-.466 4.378-5.876-.627-.63 5.916-4.773-.508.63-5.917-5.797-.618.467-4.377zM204.684 208.354c1.864.2 2.946-1.876 3.126-3.575.135-1.274-.385-1.988-1.387-2.096-1.44-.153-2.577 1.168-3.054 2.634-.548 1.658-.246 2.871 1.315 3.037zm-2.008-4.75a52.36 52.36 0 0 0 .698-2.21l1.243.131c-.032.166-.246.848-.385 1.294.632-.762 1.52-1.326 2.78-1.19 1.545.163 2.317 1.412 2.13 3.17-.27 2.517-1.982 4.924-4.59 4.646-1.26-.134-1.814-.792-2.01-1.41l-1.298 3.956-1.257-.134 2.69-8.253zM215.16 206.622c-.411-.03-.925-.084-1.584-.078-1.257-.012-2.401.221-2.532 1.448-.061.575.264 1.116 1.112 1.206 1.684.18 2.474-1.054 2.964-2.459l.04-.117zm.654 1.939a46.574 46.574 0 0 0-.568 1.871l-1.228-.13c.061-.285.185-.747.324-1.162-.447.58-1.175 1.224-2.752 1.056-1.545-.166-1.997-1.24-1.9-2.165.233-2.183 2.33-2.451 3.894-2.437.81.027 1.478.097 1.871.123l.163-.503c.214-.716.269-1.658-1.202-1.814-1.304-.14-1.725.504-2.016 1.073l-1.288-.138c.395-1.122 1.361-2.125 3.513-1.894 1.76.187 2.826 1.112 2.235 2.906l-1.046 3.214zM223.147 204.667c-1.483-.05-2.692.94-3.24 2.629l-1.156 3.51-1.244-.131 1.73-5.29c.232-.742.485-1.528.684-2.226l1.212.128a16.88 16.88 0 0 1-.462 1.591c.679-1.031 1.72-1.61 2.89-1.484l-.414 1.273zM224.501 203.647l1.289.137.705-2.163 1.241.133-.704 2.163 1.636.174-.335 1.007-1.64-.174-1.466 4.549c-.227.683-.232 1.034.436 1.104.226.026.531.043.766.006l-.335.976c-.36.084-.74.045-1.073.008-1.214-.13-1.531-.746-1.136-2.006l1.551-4.771-1.274-.138.339-1.005zM231.267 200.888l1.259.134-.527 1.616-1.257-.133.525-1.617zm-1.095 3.364l1.257.134-2.456 7.511-1.243-.133 2.442-7.512zM237.923 210.522c-.671 1.415-1.853 2.285-3.672 2.091-1.882-.201-2.66-1.527-2.47-3.3.246-2.32 1.819-4.849 4.504-4.562 2.167.23 2.608 1.858 2.405 2.892l-1.228-.13c.061-.867-.24-1.62-1.362-1.738-1.79-.192-2.828 1.919-3.005 3.588-.157 1.455.432 2.13 1.446 2.239.88.094 1.603-.365 2.124-1.216l1.258.136zM242.385 202.074l1.258.134-.525 1.616-1.258-.133.525-1.617zm-1.094 3.364l1.257.134-2.458 7.51-1.241-.132 2.442-7.512zM246.09 212.771c1.866.2 2.948-1.876 3.128-3.574.136-1.274-.386-1.989-1.387-2.096-1.441-.152-2.578 1.167-3.055 2.633-.548 1.66-.246 2.873 1.315 3.037zm-2.007-4.75c.34-1.022.57-1.751.699-2.21l1.242.131c-.032.166-.244.85-.385 1.295.633-.761 1.521-1.326 2.78-1.191 1.545.164 2.318 1.412 2.13 3.171-.268 2.515-1.982 4.923-4.59 4.645-1.258-.134-1.815-.792-2.01-1.41l-1.298 3.956-1.257-.134 2.69-8.253zM256.568 211.039c-.41-.03-.925-.084-1.585-.078-1.257-.012-2.401.221-2.532 1.448-.061.575.265 1.116 1.112 1.206 1.684.18 2.474-1.054 2.964-2.457l.04-.12zm.653 1.939c-.208.639-.492 1.574-.568 1.873l-1.228-.131c.061-.284.186-.748.324-1.163-.446.581-1.175 1.224-2.752 1.056-1.546-.165-1.997-1.24-1.9-2.165.232-2.183 2.33-2.451 3.895-2.436.808.026 1.477.098 1.87.124l.163-.505c.215-.714.27-1.658-1.202-1.814-1.304-.139-1.723.505-2.016 1.072l-1.288-.137c.395-1.123 1.36-2.125 3.513-1.894 1.76.187 2.827 1.113 2.235 2.905l-1.046 3.215zM260.739 209.49c.209-.652.4-1.291.59-1.915l1.227.131c-.043.241-.3 1.086-.368 1.28.514-.65 1.321-1.33 2.732-1.18 1.47.157 2.291 1.102 1.586 3.236l-1.511 4.699-1.26-.135 1.511-4.669c.382-1.126.194-1.957-.974-2.082-1.425-.153-2.383 1.08-2.883 2.605l-1.231 3.764-1.242-.132 1.823-5.603zM268.64 208.356l1.29.137.704-2.163 1.242.133-.705 2.163 1.637.174-.336 1.007-1.64-.174-1.466 4.549c-.227.683-.232 1.032.436 1.104.226.024.531.043.766.006l-.335.976c-.36.084-.74.045-1.073.008-1.214-.13-1.531-.746-1.136-2.006l1.551-4.773-1.274-.136.34-1.005zM273.343 214.3c-.01.797.409 1.5 1.635 1.632 1.031.111 1.632-.346 1.709-1.077.076-.713-.401-1.115-1.453-1.625-1.589-.752-2.028-1.382-1.932-2.277.128-1.198 1.147-2.131 3.011-1.931 1.986.212 2.608 1.41 2.464 2.5l-1.274-.136c.009-.535-.176-1.246-1.417-1.377-.804-.087-1.422.247-1.497.944-.056.53.356.836 1.405 1.345 1.545.748 2.128 1.468 2.015 2.53-.165 1.532-1.487 2.295-3.32 2.1-1.956-.21-2.788-1.326-2.635-2.766l1.289.138z" fill="#A55696"/></g></svg>